%
M48
M72
T01C0.0240
T02C0.0400
T03C0.0512
T04C0.0750
T05C0.1000
T06C0.1300
T07C0.2000
%
T01
X14160Y13131
X14660Y14131
X15660Y13631
X16160Y12631
X17160Y13631
X16660Y14631
X13660Y15131
X15160Y6131
X14660Y25131
X13660Y26131
X16660Y26131
X14660Y35131
X13660Y36131
X2660Y36131
X1660Y35131
X1660Y47131
X2660Y48131
X3660Y60631
X4660Y61631
X1160Y73631
X2160Y74631
X1160Y86131
X2160Y87131
X1160Y99631
X2160Y100631
X21160Y99631
X22160Y100631
X21160Y109631
X22160Y110631
X31160Y109631
X32160Y110631
X31160Y114131
X32160Y115131
X43160Y114131
X44160Y115131
X43160Y116131
X44160Y117131
X82160Y116631
X83660Y115631
X82160Y111631
X83660Y110631
X93660Y111631
X94660Y110631
X106660Y103131
X107660Y102131
X106660Y93631
X107660Y92631
X118160Y93631
X119160Y92631
X118160Y82131
X119160Y80631
X119160Y66131
X117160Y56131
X111660Y41631
X110660Y40631
X111660Y30631
X110660Y29631
X98160Y18131
X99160Y16631
X89160Y16631
X88160Y18131
X77160Y14131
X77160Y13131
X77160Y11631
X77660Y11131
X74660Y7131
X76660Y6131
X63660Y11631
X61660Y10631
X62160Y7131
X56660Y9631
X49660Y12631
X49160Y12131
X49160Y11131
X48160Y13131
X47660Y13631
X37660Y14131
X36660Y14631
T02
X37614Y18081
X36748Y18581
X35882Y19081
X35016Y19581
X34150Y20081
X33284Y20581
X32418Y21081
X31552Y21581
X26464Y25485
X25757Y26192
X25050Y26899
X24342Y27607
X23635Y28314
X22928Y29021
X22221Y29728
X21514Y30435
X17610Y35523
X17110Y36389
X16610Y37255
X16110Y38121
X15610Y38987
X15110Y39853
X14610Y40719
X14110Y41585
X11656Y47511
X11397Y48476
X11138Y49442
X10879Y50408
X10620Y51374
X10362Y52340
X10103Y53306
X9844Y54272
X6160Y49131
X4160Y49131
X2660Y60631
X2660Y61631
X2660Y62631
X2660Y65631
X2660Y66631
X2660Y67631
X9007Y67631
X9007Y66631
X9007Y65631
X9007Y64631
X9007Y63631
X9007Y62631
X9007Y61631
X9007Y60631
X9844Y73990
X10103Y74955
X10362Y75921
X10621Y76887
X10879Y77853
X11138Y78819
X11397Y79785
X11656Y80751
X6160Y79131
X4160Y79131
X14110Y86677
X14610Y87543
X15110Y88409
X15610Y89275
X16110Y90141
X16610Y91007
X17110Y91873
X17610Y92739
X21514Y97827
X22221Y98534
X22928Y99241
X23636Y99949
X24343Y100656
X25050Y101363
X25757Y102070
X26464Y102777
X31552Y106681
X32418Y107181
X33284Y107681
X34150Y108181
X35016Y108681
X35882Y109181
X36748Y109681
X37614Y110181
X43539Y112635
X44505Y112894
X45471Y113153
X46437Y113412
X47403Y113671
X48369Y113929
X49335Y114188
X50301Y114447
X56660Y115284
X57660Y115284
X58660Y115284
X59660Y115284
X60660Y115284
X61660Y115284
X62660Y115284
X63660Y115284
X70019Y114447
X70984Y114188
X71950Y113929
X72916Y113670
X73882Y113411
X74848Y113153
X75814Y112894
X76780Y112635
X82706Y110181
X83572Y109681
X84438Y109181
X85304Y108681
X86170Y108181
X87036Y107681
X87902Y107181
X88768Y106681
X93856Y102777
X94563Y102070
X95270Y101363
X95978Y100655
X96685Y99948
X97392Y99241
X98099Y98534
X98806Y97827
X102710Y92739
X103210Y91873
X103710Y91007
X104210Y90141
X104710Y89275
X105210Y88409
X105710Y87543
X106210Y86677
X108664Y80751
X108923Y79786
X109182Y78820
X109441Y77854
X109699Y76888
X109958Y75922
X110217Y74956
X110476Y73990
X114160Y79131
X116160Y79131
X117660Y67631
X117660Y66631
X117660Y65631
X117660Y62631
X117660Y61631
X117660Y60631
X111313Y60631
X111313Y61631
X111313Y62631
X111313Y63631
X111313Y64631
X111313Y65631
X111313Y66631
X111313Y67631
X110476Y54272
X110217Y53307
X109958Y52341
X109699Y51375
X109440Y50409
X109182Y49443
X108923Y48477
X108664Y47511
X114160Y49131
X116160Y49131
X106210Y41585
X105710Y40719
X105210Y39853
X104710Y38987
X104210Y38121
X103710Y37255
X103210Y36389
X102710Y35523
X98806Y30435
X98099Y29728
X97391Y29021
X96684Y28313
X95977Y27606
X95270Y26899
X94563Y26192
X93856Y25485
X88768Y21581
X87902Y21081
X87036Y20581
X86170Y20081
X85304Y19581
X84438Y19081
X83572Y18581
X82706Y18081
X76780Y15627
X75815Y15368
X74849Y15109
X73883Y14850
X72917Y14591
X71951Y14333
X70985Y14074
X70019Y13815
X63660Y12978
X62660Y12978
X61660Y12978
X60660Y12978
X59660Y12978
X58660Y12978
X57660Y12978
X56660Y12978
X55660Y8631
X56660Y6631
X57660Y6631
X58660Y6631
X61660Y6631
X62660Y6631
X63660Y6631
X50301Y13815
X49336Y14074
X48370Y14333
X47404Y14592
X46438Y14851
X45472Y15109
X44506Y15368
X43540Y15627
X18320Y10631
X17240Y10631
X16160Y10631
X15080Y10631
X14000Y10631
X14540Y9631
X15620Y9631
X16700Y9631
X17780Y9631
X6160Y26631
X4160Y26631
X4160Y104131
X6160Y104131
X114160Y104131
X116160Y104131
X116160Y26631
X114160Y26631
T03
X78613Y9131
X77629Y10115
X75660Y9131
X73691Y10115
X72707Y9131
X74676Y5194
X76644Y5194
X31113Y9131
X30129Y10115
X28160Y9131
X26191Y10115
X25207Y9131
X27176Y5194
X29144Y5194
T04
X37180Y5121
X39820Y10131
X39820Y12081
X44500Y12081
X44500Y10131
X47140Y5121
T05
X5160Y18631
X115160Y16631
T06
X21090Y10131
X11230Y10131
T07
X5160Y9131
X5160Y39131
X35160Y9131
X85160Y9131
X115160Y9131
X115160Y39131
X115160Y89131
X115160Y119131
X85160Y119131
X35160Y119131
X5160Y119131
X5160Y89131
M30
