G75*
G70*
%OFA0B0*%
%FSLAX24Y24*%
%IPPOS*%
%LPD*%
%AMOC8*
5,1,8,0,0,1.08239X$1,22.5*
%
%ADD10C,0.0070*%
%ADD11C,0.0000*%
%ADD12C,0.0100*%
D10*
X000160Y004131D02*
X000160Y124131D01*
X120160Y124131D01*
X120160Y004131D01*
X000160Y004131D01*
D11*
X004160Y009131D02*
X004162Y009194D01*
X004168Y009256D01*
X004178Y009318D01*
X004191Y009380D01*
X004209Y009440D01*
X004230Y009499D01*
X004255Y009557D01*
X004284Y009613D01*
X004316Y009667D01*
X004351Y009719D01*
X004389Y009768D01*
X004431Y009816D01*
X004475Y009860D01*
X004523Y009902D01*
X004572Y009940D01*
X004624Y009975D01*
X004678Y010007D01*
X004734Y010036D01*
X004792Y010061D01*
X004851Y010082D01*
X004911Y010100D01*
X004973Y010113D01*
X005035Y010123D01*
X005097Y010129D01*
X005160Y010131D01*
X005223Y010129D01*
X005285Y010123D01*
X005347Y010113D01*
X005409Y010100D01*
X005469Y010082D01*
X005528Y010061D01*
X005586Y010036D01*
X005642Y010007D01*
X005696Y009975D01*
X005748Y009940D01*
X005797Y009902D01*
X005845Y009860D01*
X005889Y009816D01*
X005931Y009768D01*
X005969Y009719D01*
X006004Y009667D01*
X006036Y009613D01*
X006065Y009557D01*
X006090Y009499D01*
X006111Y009440D01*
X006129Y009380D01*
X006142Y009318D01*
X006152Y009256D01*
X006158Y009194D01*
X006160Y009131D01*
X006158Y009068D01*
X006152Y009006D01*
X006142Y008944D01*
X006129Y008882D01*
X006111Y008822D01*
X006090Y008763D01*
X006065Y008705D01*
X006036Y008649D01*
X006004Y008595D01*
X005969Y008543D01*
X005931Y008494D01*
X005889Y008446D01*
X005845Y008402D01*
X005797Y008360D01*
X005748Y008322D01*
X005696Y008287D01*
X005642Y008255D01*
X005586Y008226D01*
X005528Y008201D01*
X005469Y008180D01*
X005409Y008162D01*
X005347Y008149D01*
X005285Y008139D01*
X005223Y008133D01*
X005160Y008131D01*
X005097Y008133D01*
X005035Y008139D01*
X004973Y008149D01*
X004911Y008162D01*
X004851Y008180D01*
X004792Y008201D01*
X004734Y008226D01*
X004678Y008255D01*
X004624Y008287D01*
X004572Y008322D01*
X004523Y008360D01*
X004475Y008402D01*
X004431Y008446D01*
X004389Y008494D01*
X004351Y008543D01*
X004316Y008595D01*
X004284Y008649D01*
X004255Y008705D01*
X004230Y008763D01*
X004209Y008822D01*
X004191Y008882D01*
X004178Y008944D01*
X004168Y009006D01*
X004162Y009068D01*
X004160Y009131D01*
X004160Y039131D02*
X004162Y039194D01*
X004168Y039256D01*
X004178Y039318D01*
X004191Y039380D01*
X004209Y039440D01*
X004230Y039499D01*
X004255Y039557D01*
X004284Y039613D01*
X004316Y039667D01*
X004351Y039719D01*
X004389Y039768D01*
X004431Y039816D01*
X004475Y039860D01*
X004523Y039902D01*
X004572Y039940D01*
X004624Y039975D01*
X004678Y040007D01*
X004734Y040036D01*
X004792Y040061D01*
X004851Y040082D01*
X004911Y040100D01*
X004973Y040113D01*
X005035Y040123D01*
X005097Y040129D01*
X005160Y040131D01*
X005223Y040129D01*
X005285Y040123D01*
X005347Y040113D01*
X005409Y040100D01*
X005469Y040082D01*
X005528Y040061D01*
X005586Y040036D01*
X005642Y040007D01*
X005696Y039975D01*
X005748Y039940D01*
X005797Y039902D01*
X005845Y039860D01*
X005889Y039816D01*
X005931Y039768D01*
X005969Y039719D01*
X006004Y039667D01*
X006036Y039613D01*
X006065Y039557D01*
X006090Y039499D01*
X006111Y039440D01*
X006129Y039380D01*
X006142Y039318D01*
X006152Y039256D01*
X006158Y039194D01*
X006160Y039131D01*
X006158Y039068D01*
X006152Y039006D01*
X006142Y038944D01*
X006129Y038882D01*
X006111Y038822D01*
X006090Y038763D01*
X006065Y038705D01*
X006036Y038649D01*
X006004Y038595D01*
X005969Y038543D01*
X005931Y038494D01*
X005889Y038446D01*
X005845Y038402D01*
X005797Y038360D01*
X005748Y038322D01*
X005696Y038287D01*
X005642Y038255D01*
X005586Y038226D01*
X005528Y038201D01*
X005469Y038180D01*
X005409Y038162D01*
X005347Y038149D01*
X005285Y038139D01*
X005223Y038133D01*
X005160Y038131D01*
X005097Y038133D01*
X005035Y038139D01*
X004973Y038149D01*
X004911Y038162D01*
X004851Y038180D01*
X004792Y038201D01*
X004734Y038226D01*
X004678Y038255D01*
X004624Y038287D01*
X004572Y038322D01*
X004523Y038360D01*
X004475Y038402D01*
X004431Y038446D01*
X004389Y038494D01*
X004351Y038543D01*
X004316Y038595D01*
X004284Y038649D01*
X004255Y038705D01*
X004230Y038763D01*
X004209Y038822D01*
X004191Y038882D01*
X004178Y038944D01*
X004168Y039006D01*
X004162Y039068D01*
X004160Y039131D01*
X034160Y009131D02*
X034162Y009194D01*
X034168Y009256D01*
X034178Y009318D01*
X034191Y009380D01*
X034209Y009440D01*
X034230Y009499D01*
X034255Y009557D01*
X034284Y009613D01*
X034316Y009667D01*
X034351Y009719D01*
X034389Y009768D01*
X034431Y009816D01*
X034475Y009860D01*
X034523Y009902D01*
X034572Y009940D01*
X034624Y009975D01*
X034678Y010007D01*
X034734Y010036D01*
X034792Y010061D01*
X034851Y010082D01*
X034911Y010100D01*
X034973Y010113D01*
X035035Y010123D01*
X035097Y010129D01*
X035160Y010131D01*
X035223Y010129D01*
X035285Y010123D01*
X035347Y010113D01*
X035409Y010100D01*
X035469Y010082D01*
X035528Y010061D01*
X035586Y010036D01*
X035642Y010007D01*
X035696Y009975D01*
X035748Y009940D01*
X035797Y009902D01*
X035845Y009860D01*
X035889Y009816D01*
X035931Y009768D01*
X035969Y009719D01*
X036004Y009667D01*
X036036Y009613D01*
X036065Y009557D01*
X036090Y009499D01*
X036111Y009440D01*
X036129Y009380D01*
X036142Y009318D01*
X036152Y009256D01*
X036158Y009194D01*
X036160Y009131D01*
X036158Y009068D01*
X036152Y009006D01*
X036142Y008944D01*
X036129Y008882D01*
X036111Y008822D01*
X036090Y008763D01*
X036065Y008705D01*
X036036Y008649D01*
X036004Y008595D01*
X035969Y008543D01*
X035931Y008494D01*
X035889Y008446D01*
X035845Y008402D01*
X035797Y008360D01*
X035748Y008322D01*
X035696Y008287D01*
X035642Y008255D01*
X035586Y008226D01*
X035528Y008201D01*
X035469Y008180D01*
X035409Y008162D01*
X035347Y008149D01*
X035285Y008139D01*
X035223Y008133D01*
X035160Y008131D01*
X035097Y008133D01*
X035035Y008139D01*
X034973Y008149D01*
X034911Y008162D01*
X034851Y008180D01*
X034792Y008201D01*
X034734Y008226D01*
X034678Y008255D01*
X034624Y008287D01*
X034572Y008322D01*
X034523Y008360D01*
X034475Y008402D01*
X034431Y008446D01*
X034389Y008494D01*
X034351Y008543D01*
X034316Y008595D01*
X034284Y008649D01*
X034255Y008705D01*
X034230Y008763D01*
X034209Y008822D01*
X034191Y008882D01*
X034178Y008944D01*
X034168Y009006D01*
X034162Y009068D01*
X034160Y009131D01*
X084160Y009131D02*
X084162Y009194D01*
X084168Y009256D01*
X084178Y009318D01*
X084191Y009380D01*
X084209Y009440D01*
X084230Y009499D01*
X084255Y009557D01*
X084284Y009613D01*
X084316Y009667D01*
X084351Y009719D01*
X084389Y009768D01*
X084431Y009816D01*
X084475Y009860D01*
X084523Y009902D01*
X084572Y009940D01*
X084624Y009975D01*
X084678Y010007D01*
X084734Y010036D01*
X084792Y010061D01*
X084851Y010082D01*
X084911Y010100D01*
X084973Y010113D01*
X085035Y010123D01*
X085097Y010129D01*
X085160Y010131D01*
X085223Y010129D01*
X085285Y010123D01*
X085347Y010113D01*
X085409Y010100D01*
X085469Y010082D01*
X085528Y010061D01*
X085586Y010036D01*
X085642Y010007D01*
X085696Y009975D01*
X085748Y009940D01*
X085797Y009902D01*
X085845Y009860D01*
X085889Y009816D01*
X085931Y009768D01*
X085969Y009719D01*
X086004Y009667D01*
X086036Y009613D01*
X086065Y009557D01*
X086090Y009499D01*
X086111Y009440D01*
X086129Y009380D01*
X086142Y009318D01*
X086152Y009256D01*
X086158Y009194D01*
X086160Y009131D01*
X086158Y009068D01*
X086152Y009006D01*
X086142Y008944D01*
X086129Y008882D01*
X086111Y008822D01*
X086090Y008763D01*
X086065Y008705D01*
X086036Y008649D01*
X086004Y008595D01*
X085969Y008543D01*
X085931Y008494D01*
X085889Y008446D01*
X085845Y008402D01*
X085797Y008360D01*
X085748Y008322D01*
X085696Y008287D01*
X085642Y008255D01*
X085586Y008226D01*
X085528Y008201D01*
X085469Y008180D01*
X085409Y008162D01*
X085347Y008149D01*
X085285Y008139D01*
X085223Y008133D01*
X085160Y008131D01*
X085097Y008133D01*
X085035Y008139D01*
X084973Y008149D01*
X084911Y008162D01*
X084851Y008180D01*
X084792Y008201D01*
X084734Y008226D01*
X084678Y008255D01*
X084624Y008287D01*
X084572Y008322D01*
X084523Y008360D01*
X084475Y008402D01*
X084431Y008446D01*
X084389Y008494D01*
X084351Y008543D01*
X084316Y008595D01*
X084284Y008649D01*
X084255Y008705D01*
X084230Y008763D01*
X084209Y008822D01*
X084191Y008882D01*
X084178Y008944D01*
X084168Y009006D01*
X084162Y009068D01*
X084160Y009131D01*
X114160Y009131D02*
X114162Y009194D01*
X114168Y009256D01*
X114178Y009318D01*
X114191Y009380D01*
X114209Y009440D01*
X114230Y009499D01*
X114255Y009557D01*
X114284Y009613D01*
X114316Y009667D01*
X114351Y009719D01*
X114389Y009768D01*
X114431Y009816D01*
X114475Y009860D01*
X114523Y009902D01*
X114572Y009940D01*
X114624Y009975D01*
X114678Y010007D01*
X114734Y010036D01*
X114792Y010061D01*
X114851Y010082D01*
X114911Y010100D01*
X114973Y010113D01*
X115035Y010123D01*
X115097Y010129D01*
X115160Y010131D01*
X115223Y010129D01*
X115285Y010123D01*
X115347Y010113D01*
X115409Y010100D01*
X115469Y010082D01*
X115528Y010061D01*
X115586Y010036D01*
X115642Y010007D01*
X115696Y009975D01*
X115748Y009940D01*
X115797Y009902D01*
X115845Y009860D01*
X115889Y009816D01*
X115931Y009768D01*
X115969Y009719D01*
X116004Y009667D01*
X116036Y009613D01*
X116065Y009557D01*
X116090Y009499D01*
X116111Y009440D01*
X116129Y009380D01*
X116142Y009318D01*
X116152Y009256D01*
X116158Y009194D01*
X116160Y009131D01*
X116158Y009068D01*
X116152Y009006D01*
X116142Y008944D01*
X116129Y008882D01*
X116111Y008822D01*
X116090Y008763D01*
X116065Y008705D01*
X116036Y008649D01*
X116004Y008595D01*
X115969Y008543D01*
X115931Y008494D01*
X115889Y008446D01*
X115845Y008402D01*
X115797Y008360D01*
X115748Y008322D01*
X115696Y008287D01*
X115642Y008255D01*
X115586Y008226D01*
X115528Y008201D01*
X115469Y008180D01*
X115409Y008162D01*
X115347Y008149D01*
X115285Y008139D01*
X115223Y008133D01*
X115160Y008131D01*
X115097Y008133D01*
X115035Y008139D01*
X114973Y008149D01*
X114911Y008162D01*
X114851Y008180D01*
X114792Y008201D01*
X114734Y008226D01*
X114678Y008255D01*
X114624Y008287D01*
X114572Y008322D01*
X114523Y008360D01*
X114475Y008402D01*
X114431Y008446D01*
X114389Y008494D01*
X114351Y008543D01*
X114316Y008595D01*
X114284Y008649D01*
X114255Y008705D01*
X114230Y008763D01*
X114209Y008822D01*
X114191Y008882D01*
X114178Y008944D01*
X114168Y009006D01*
X114162Y009068D01*
X114160Y009131D01*
X114160Y039131D02*
X114162Y039194D01*
X114168Y039256D01*
X114178Y039318D01*
X114191Y039380D01*
X114209Y039440D01*
X114230Y039499D01*
X114255Y039557D01*
X114284Y039613D01*
X114316Y039667D01*
X114351Y039719D01*
X114389Y039768D01*
X114431Y039816D01*
X114475Y039860D01*
X114523Y039902D01*
X114572Y039940D01*
X114624Y039975D01*
X114678Y040007D01*
X114734Y040036D01*
X114792Y040061D01*
X114851Y040082D01*
X114911Y040100D01*
X114973Y040113D01*
X115035Y040123D01*
X115097Y040129D01*
X115160Y040131D01*
X115223Y040129D01*
X115285Y040123D01*
X115347Y040113D01*
X115409Y040100D01*
X115469Y040082D01*
X115528Y040061D01*
X115586Y040036D01*
X115642Y040007D01*
X115696Y039975D01*
X115748Y039940D01*
X115797Y039902D01*
X115845Y039860D01*
X115889Y039816D01*
X115931Y039768D01*
X115969Y039719D01*
X116004Y039667D01*
X116036Y039613D01*
X116065Y039557D01*
X116090Y039499D01*
X116111Y039440D01*
X116129Y039380D01*
X116142Y039318D01*
X116152Y039256D01*
X116158Y039194D01*
X116160Y039131D01*
X116158Y039068D01*
X116152Y039006D01*
X116142Y038944D01*
X116129Y038882D01*
X116111Y038822D01*
X116090Y038763D01*
X116065Y038705D01*
X116036Y038649D01*
X116004Y038595D01*
X115969Y038543D01*
X115931Y038494D01*
X115889Y038446D01*
X115845Y038402D01*
X115797Y038360D01*
X115748Y038322D01*
X115696Y038287D01*
X115642Y038255D01*
X115586Y038226D01*
X115528Y038201D01*
X115469Y038180D01*
X115409Y038162D01*
X115347Y038149D01*
X115285Y038139D01*
X115223Y038133D01*
X115160Y038131D01*
X115097Y038133D01*
X115035Y038139D01*
X114973Y038149D01*
X114911Y038162D01*
X114851Y038180D01*
X114792Y038201D01*
X114734Y038226D01*
X114678Y038255D01*
X114624Y038287D01*
X114572Y038322D01*
X114523Y038360D01*
X114475Y038402D01*
X114431Y038446D01*
X114389Y038494D01*
X114351Y038543D01*
X114316Y038595D01*
X114284Y038649D01*
X114255Y038705D01*
X114230Y038763D01*
X114209Y038822D01*
X114191Y038882D01*
X114178Y038944D01*
X114168Y039006D01*
X114162Y039068D01*
X114160Y039131D01*
X114160Y089131D02*
X114162Y089194D01*
X114168Y089256D01*
X114178Y089318D01*
X114191Y089380D01*
X114209Y089440D01*
X114230Y089499D01*
X114255Y089557D01*
X114284Y089613D01*
X114316Y089667D01*
X114351Y089719D01*
X114389Y089768D01*
X114431Y089816D01*
X114475Y089860D01*
X114523Y089902D01*
X114572Y089940D01*
X114624Y089975D01*
X114678Y090007D01*
X114734Y090036D01*
X114792Y090061D01*
X114851Y090082D01*
X114911Y090100D01*
X114973Y090113D01*
X115035Y090123D01*
X115097Y090129D01*
X115160Y090131D01*
X115223Y090129D01*
X115285Y090123D01*
X115347Y090113D01*
X115409Y090100D01*
X115469Y090082D01*
X115528Y090061D01*
X115586Y090036D01*
X115642Y090007D01*
X115696Y089975D01*
X115748Y089940D01*
X115797Y089902D01*
X115845Y089860D01*
X115889Y089816D01*
X115931Y089768D01*
X115969Y089719D01*
X116004Y089667D01*
X116036Y089613D01*
X116065Y089557D01*
X116090Y089499D01*
X116111Y089440D01*
X116129Y089380D01*
X116142Y089318D01*
X116152Y089256D01*
X116158Y089194D01*
X116160Y089131D01*
X116158Y089068D01*
X116152Y089006D01*
X116142Y088944D01*
X116129Y088882D01*
X116111Y088822D01*
X116090Y088763D01*
X116065Y088705D01*
X116036Y088649D01*
X116004Y088595D01*
X115969Y088543D01*
X115931Y088494D01*
X115889Y088446D01*
X115845Y088402D01*
X115797Y088360D01*
X115748Y088322D01*
X115696Y088287D01*
X115642Y088255D01*
X115586Y088226D01*
X115528Y088201D01*
X115469Y088180D01*
X115409Y088162D01*
X115347Y088149D01*
X115285Y088139D01*
X115223Y088133D01*
X115160Y088131D01*
X115097Y088133D01*
X115035Y088139D01*
X114973Y088149D01*
X114911Y088162D01*
X114851Y088180D01*
X114792Y088201D01*
X114734Y088226D01*
X114678Y088255D01*
X114624Y088287D01*
X114572Y088322D01*
X114523Y088360D01*
X114475Y088402D01*
X114431Y088446D01*
X114389Y088494D01*
X114351Y088543D01*
X114316Y088595D01*
X114284Y088649D01*
X114255Y088705D01*
X114230Y088763D01*
X114209Y088822D01*
X114191Y088882D01*
X114178Y088944D01*
X114168Y089006D01*
X114162Y089068D01*
X114160Y089131D01*
X114160Y119131D02*
X114162Y119194D01*
X114168Y119256D01*
X114178Y119318D01*
X114191Y119380D01*
X114209Y119440D01*
X114230Y119499D01*
X114255Y119557D01*
X114284Y119613D01*
X114316Y119667D01*
X114351Y119719D01*
X114389Y119768D01*
X114431Y119816D01*
X114475Y119860D01*
X114523Y119902D01*
X114572Y119940D01*
X114624Y119975D01*
X114678Y120007D01*
X114734Y120036D01*
X114792Y120061D01*
X114851Y120082D01*
X114911Y120100D01*
X114973Y120113D01*
X115035Y120123D01*
X115097Y120129D01*
X115160Y120131D01*
X115223Y120129D01*
X115285Y120123D01*
X115347Y120113D01*
X115409Y120100D01*
X115469Y120082D01*
X115528Y120061D01*
X115586Y120036D01*
X115642Y120007D01*
X115696Y119975D01*
X115748Y119940D01*
X115797Y119902D01*
X115845Y119860D01*
X115889Y119816D01*
X115931Y119768D01*
X115969Y119719D01*
X116004Y119667D01*
X116036Y119613D01*
X116065Y119557D01*
X116090Y119499D01*
X116111Y119440D01*
X116129Y119380D01*
X116142Y119318D01*
X116152Y119256D01*
X116158Y119194D01*
X116160Y119131D01*
X116158Y119068D01*
X116152Y119006D01*
X116142Y118944D01*
X116129Y118882D01*
X116111Y118822D01*
X116090Y118763D01*
X116065Y118705D01*
X116036Y118649D01*
X116004Y118595D01*
X115969Y118543D01*
X115931Y118494D01*
X115889Y118446D01*
X115845Y118402D01*
X115797Y118360D01*
X115748Y118322D01*
X115696Y118287D01*
X115642Y118255D01*
X115586Y118226D01*
X115528Y118201D01*
X115469Y118180D01*
X115409Y118162D01*
X115347Y118149D01*
X115285Y118139D01*
X115223Y118133D01*
X115160Y118131D01*
X115097Y118133D01*
X115035Y118139D01*
X114973Y118149D01*
X114911Y118162D01*
X114851Y118180D01*
X114792Y118201D01*
X114734Y118226D01*
X114678Y118255D01*
X114624Y118287D01*
X114572Y118322D01*
X114523Y118360D01*
X114475Y118402D01*
X114431Y118446D01*
X114389Y118494D01*
X114351Y118543D01*
X114316Y118595D01*
X114284Y118649D01*
X114255Y118705D01*
X114230Y118763D01*
X114209Y118822D01*
X114191Y118882D01*
X114178Y118944D01*
X114168Y119006D01*
X114162Y119068D01*
X114160Y119131D01*
X084160Y119131D02*
X084162Y119194D01*
X084168Y119256D01*
X084178Y119318D01*
X084191Y119380D01*
X084209Y119440D01*
X084230Y119499D01*
X084255Y119557D01*
X084284Y119613D01*
X084316Y119667D01*
X084351Y119719D01*
X084389Y119768D01*
X084431Y119816D01*
X084475Y119860D01*
X084523Y119902D01*
X084572Y119940D01*
X084624Y119975D01*
X084678Y120007D01*
X084734Y120036D01*
X084792Y120061D01*
X084851Y120082D01*
X084911Y120100D01*
X084973Y120113D01*
X085035Y120123D01*
X085097Y120129D01*
X085160Y120131D01*
X085223Y120129D01*
X085285Y120123D01*
X085347Y120113D01*
X085409Y120100D01*
X085469Y120082D01*
X085528Y120061D01*
X085586Y120036D01*
X085642Y120007D01*
X085696Y119975D01*
X085748Y119940D01*
X085797Y119902D01*
X085845Y119860D01*
X085889Y119816D01*
X085931Y119768D01*
X085969Y119719D01*
X086004Y119667D01*
X086036Y119613D01*
X086065Y119557D01*
X086090Y119499D01*
X086111Y119440D01*
X086129Y119380D01*
X086142Y119318D01*
X086152Y119256D01*
X086158Y119194D01*
X086160Y119131D01*
X086158Y119068D01*
X086152Y119006D01*
X086142Y118944D01*
X086129Y118882D01*
X086111Y118822D01*
X086090Y118763D01*
X086065Y118705D01*
X086036Y118649D01*
X086004Y118595D01*
X085969Y118543D01*
X085931Y118494D01*
X085889Y118446D01*
X085845Y118402D01*
X085797Y118360D01*
X085748Y118322D01*
X085696Y118287D01*
X085642Y118255D01*
X085586Y118226D01*
X085528Y118201D01*
X085469Y118180D01*
X085409Y118162D01*
X085347Y118149D01*
X085285Y118139D01*
X085223Y118133D01*
X085160Y118131D01*
X085097Y118133D01*
X085035Y118139D01*
X084973Y118149D01*
X084911Y118162D01*
X084851Y118180D01*
X084792Y118201D01*
X084734Y118226D01*
X084678Y118255D01*
X084624Y118287D01*
X084572Y118322D01*
X084523Y118360D01*
X084475Y118402D01*
X084431Y118446D01*
X084389Y118494D01*
X084351Y118543D01*
X084316Y118595D01*
X084284Y118649D01*
X084255Y118705D01*
X084230Y118763D01*
X084209Y118822D01*
X084191Y118882D01*
X084178Y118944D01*
X084168Y119006D01*
X084162Y119068D01*
X084160Y119131D01*
X034160Y119131D02*
X034162Y119194D01*
X034168Y119256D01*
X034178Y119318D01*
X034191Y119380D01*
X034209Y119440D01*
X034230Y119499D01*
X034255Y119557D01*
X034284Y119613D01*
X034316Y119667D01*
X034351Y119719D01*
X034389Y119768D01*
X034431Y119816D01*
X034475Y119860D01*
X034523Y119902D01*
X034572Y119940D01*
X034624Y119975D01*
X034678Y120007D01*
X034734Y120036D01*
X034792Y120061D01*
X034851Y120082D01*
X034911Y120100D01*
X034973Y120113D01*
X035035Y120123D01*
X035097Y120129D01*
X035160Y120131D01*
X035223Y120129D01*
X035285Y120123D01*
X035347Y120113D01*
X035409Y120100D01*
X035469Y120082D01*
X035528Y120061D01*
X035586Y120036D01*
X035642Y120007D01*
X035696Y119975D01*
X035748Y119940D01*
X035797Y119902D01*
X035845Y119860D01*
X035889Y119816D01*
X035931Y119768D01*
X035969Y119719D01*
X036004Y119667D01*
X036036Y119613D01*
X036065Y119557D01*
X036090Y119499D01*
X036111Y119440D01*
X036129Y119380D01*
X036142Y119318D01*
X036152Y119256D01*
X036158Y119194D01*
X036160Y119131D01*
X036158Y119068D01*
X036152Y119006D01*
X036142Y118944D01*
X036129Y118882D01*
X036111Y118822D01*
X036090Y118763D01*
X036065Y118705D01*
X036036Y118649D01*
X036004Y118595D01*
X035969Y118543D01*
X035931Y118494D01*
X035889Y118446D01*
X035845Y118402D01*
X035797Y118360D01*
X035748Y118322D01*
X035696Y118287D01*
X035642Y118255D01*
X035586Y118226D01*
X035528Y118201D01*
X035469Y118180D01*
X035409Y118162D01*
X035347Y118149D01*
X035285Y118139D01*
X035223Y118133D01*
X035160Y118131D01*
X035097Y118133D01*
X035035Y118139D01*
X034973Y118149D01*
X034911Y118162D01*
X034851Y118180D01*
X034792Y118201D01*
X034734Y118226D01*
X034678Y118255D01*
X034624Y118287D01*
X034572Y118322D01*
X034523Y118360D01*
X034475Y118402D01*
X034431Y118446D01*
X034389Y118494D01*
X034351Y118543D01*
X034316Y118595D01*
X034284Y118649D01*
X034255Y118705D01*
X034230Y118763D01*
X034209Y118822D01*
X034191Y118882D01*
X034178Y118944D01*
X034168Y119006D01*
X034162Y119068D01*
X034160Y119131D01*
X004160Y119131D02*
X004162Y119194D01*
X004168Y119256D01*
X004178Y119318D01*
X004191Y119380D01*
X004209Y119440D01*
X004230Y119499D01*
X004255Y119557D01*
X004284Y119613D01*
X004316Y119667D01*
X004351Y119719D01*
X004389Y119768D01*
X004431Y119816D01*
X004475Y119860D01*
X004523Y119902D01*
X004572Y119940D01*
X004624Y119975D01*
X004678Y120007D01*
X004734Y120036D01*
X004792Y120061D01*
X004851Y120082D01*
X004911Y120100D01*
X004973Y120113D01*
X005035Y120123D01*
X005097Y120129D01*
X005160Y120131D01*
X005223Y120129D01*
X005285Y120123D01*
X005347Y120113D01*
X005409Y120100D01*
X005469Y120082D01*
X005528Y120061D01*
X005586Y120036D01*
X005642Y120007D01*
X005696Y119975D01*
X005748Y119940D01*
X005797Y119902D01*
X005845Y119860D01*
X005889Y119816D01*
X005931Y119768D01*
X005969Y119719D01*
X006004Y119667D01*
X006036Y119613D01*
X006065Y119557D01*
X006090Y119499D01*
X006111Y119440D01*
X006129Y119380D01*
X006142Y119318D01*
X006152Y119256D01*
X006158Y119194D01*
X006160Y119131D01*
X006158Y119068D01*
X006152Y119006D01*
X006142Y118944D01*
X006129Y118882D01*
X006111Y118822D01*
X006090Y118763D01*
X006065Y118705D01*
X006036Y118649D01*
X006004Y118595D01*
X005969Y118543D01*
X005931Y118494D01*
X005889Y118446D01*
X005845Y118402D01*
X005797Y118360D01*
X005748Y118322D01*
X005696Y118287D01*
X005642Y118255D01*
X005586Y118226D01*
X005528Y118201D01*
X005469Y118180D01*
X005409Y118162D01*
X005347Y118149D01*
X005285Y118139D01*
X005223Y118133D01*
X005160Y118131D01*
X005097Y118133D01*
X005035Y118139D01*
X004973Y118149D01*
X004911Y118162D01*
X004851Y118180D01*
X004792Y118201D01*
X004734Y118226D01*
X004678Y118255D01*
X004624Y118287D01*
X004572Y118322D01*
X004523Y118360D01*
X004475Y118402D01*
X004431Y118446D01*
X004389Y118494D01*
X004351Y118543D01*
X004316Y118595D01*
X004284Y118649D01*
X004255Y118705D01*
X004230Y118763D01*
X004209Y118822D01*
X004191Y118882D01*
X004178Y118944D01*
X004168Y119006D01*
X004162Y119068D01*
X004160Y119131D01*
X004160Y089131D02*
X004162Y089194D01*
X004168Y089256D01*
X004178Y089318D01*
X004191Y089380D01*
X004209Y089440D01*
X004230Y089499D01*
X004255Y089557D01*
X004284Y089613D01*
X004316Y089667D01*
X004351Y089719D01*
X004389Y089768D01*
X004431Y089816D01*
X004475Y089860D01*
X004523Y089902D01*
X004572Y089940D01*
X004624Y089975D01*
X004678Y090007D01*
X004734Y090036D01*
X004792Y090061D01*
X004851Y090082D01*
X004911Y090100D01*
X004973Y090113D01*
X005035Y090123D01*
X005097Y090129D01*
X005160Y090131D01*
X005223Y090129D01*
X005285Y090123D01*
X005347Y090113D01*
X005409Y090100D01*
X005469Y090082D01*
X005528Y090061D01*
X005586Y090036D01*
X005642Y090007D01*
X005696Y089975D01*
X005748Y089940D01*
X005797Y089902D01*
X005845Y089860D01*
X005889Y089816D01*
X005931Y089768D01*
X005969Y089719D01*
X006004Y089667D01*
X006036Y089613D01*
X006065Y089557D01*
X006090Y089499D01*
X006111Y089440D01*
X006129Y089380D01*
X006142Y089318D01*
X006152Y089256D01*
X006158Y089194D01*
X006160Y089131D01*
X006158Y089068D01*
X006152Y089006D01*
X006142Y088944D01*
X006129Y088882D01*
X006111Y088822D01*
X006090Y088763D01*
X006065Y088705D01*
X006036Y088649D01*
X006004Y088595D01*
X005969Y088543D01*
X005931Y088494D01*
X005889Y088446D01*
X005845Y088402D01*
X005797Y088360D01*
X005748Y088322D01*
X005696Y088287D01*
X005642Y088255D01*
X005586Y088226D01*
X005528Y088201D01*
X005469Y088180D01*
X005409Y088162D01*
X005347Y088149D01*
X005285Y088139D01*
X005223Y088133D01*
X005160Y088131D01*
X005097Y088133D01*
X005035Y088139D01*
X004973Y088149D01*
X004911Y088162D01*
X004851Y088180D01*
X004792Y088201D01*
X004734Y088226D01*
X004678Y088255D01*
X004624Y088287D01*
X004572Y088322D01*
X004523Y088360D01*
X004475Y088402D01*
X004431Y088446D01*
X004389Y088494D01*
X004351Y088543D01*
X004316Y088595D01*
X004284Y088649D01*
X004255Y088705D01*
X004230Y088763D01*
X004209Y088822D01*
X004191Y088882D01*
X004178Y088944D01*
X004168Y089006D01*
X004162Y089068D01*
X004160Y089131D01*
D12*
X012160Y064131D02*
X012218Y066486D01*
X012391Y068836D01*
X012680Y071174D01*
X013082Y073495D01*
X013598Y075794D01*
X014227Y078065D01*
X014966Y080302D01*
X015814Y082500D01*
X016769Y084654D01*
X017828Y086758D01*
X018989Y088808D01*
X020249Y090798D01*
X021606Y092725D01*
X023055Y094582D01*
X024594Y096366D01*
X026219Y098072D01*
X027925Y099697D01*
X029709Y101236D01*
X031566Y102685D01*
X033493Y104042D01*
X035483Y105302D01*
X037533Y106463D01*
X039637Y107522D01*
X041791Y108477D01*
X043989Y109325D01*
X046226Y110064D01*
X048497Y110693D01*
X050796Y111209D01*
X053117Y111611D01*
X055455Y111900D01*
X057805Y112073D01*
X060160Y112131D01*
X062515Y112073D01*
X064865Y111900D01*
X067203Y111611D01*
X069524Y111209D01*
X071823Y110693D01*
X074094Y110064D01*
X076331Y109325D01*
X078529Y108477D01*
X080683Y107522D01*
X082787Y106463D01*
X084837Y105302D01*
X086827Y104042D01*
X088754Y102685D01*
X090611Y101236D01*
X092395Y099697D01*
X094101Y098072D01*
X095726Y096366D01*
X097265Y094582D01*
X098714Y092725D01*
X100071Y090798D01*
X101331Y088808D01*
X102492Y086758D01*
X103551Y084654D01*
X104506Y082500D01*
X105354Y080302D01*
X106093Y078065D01*
X106722Y075794D01*
X107238Y073495D01*
X107640Y071174D01*
X107929Y068836D01*
X108102Y066486D01*
X108160Y064131D01*
X108102Y061776D01*
X107929Y059426D01*
X107640Y057088D01*
X107238Y054767D01*
X106722Y052468D01*
X106093Y050197D01*
X105354Y047960D01*
X104506Y045762D01*
X103551Y043608D01*
X102492Y041504D01*
X101331Y039454D01*
X100071Y037464D01*
X098714Y035537D01*
X097265Y033680D01*
X095726Y031896D01*
X094101Y030190D01*
X092395Y028565D01*
X090611Y027026D01*
X088754Y025577D01*
X086827Y024220D01*
X084837Y022960D01*
X082787Y021799D01*
X080683Y020740D01*
X078529Y019785D01*
X076331Y018937D01*
X074094Y018198D01*
X071823Y017569D01*
X069524Y017053D01*
X067203Y016651D01*
X064865Y016362D01*
X062515Y016189D01*
X060160Y016131D01*
X057805Y016189D01*
X055455Y016362D01*
X053117Y016651D01*
X050796Y017053D01*
X048497Y017569D01*
X046226Y018198D01*
X043989Y018937D01*
X041791Y019785D01*
X039637Y020740D01*
X037533Y021799D01*
X035483Y022960D01*
X033493Y024220D01*
X031566Y025577D01*
X029709Y027026D01*
X027925Y028565D01*
X026219Y030190D01*
X024594Y031896D01*
X023055Y033680D01*
X021606Y035537D01*
X020249Y037464D01*
X018989Y039454D01*
X017828Y041504D01*
X016769Y043608D01*
X015814Y045762D01*
X014966Y047960D01*
X014227Y050197D01*
X013598Y052468D01*
X013082Y054767D01*
X012680Y057088D01*
X012391Y059426D01*
X012218Y061776D01*
X012160Y064131D01*
X012218Y066486D01*
X012391Y068836D01*
X012680Y071174D01*
X013082Y073495D01*
X013598Y075794D01*
X014227Y078065D01*
X014966Y080302D01*
X015814Y082500D01*
X016769Y084654D01*
X017828Y086758D01*
X018989Y088808D01*
X020249Y090798D01*
X021606Y092725D01*
X023055Y094582D01*
X024594Y096366D01*
X026219Y098072D01*
X027925Y099697D01*
X029709Y101236D01*
X031566Y102685D01*
X033493Y104042D01*
X035483Y105302D01*
X037533Y106463D01*
X039637Y107522D01*
X041791Y108477D01*
X043989Y109325D01*
X046226Y110064D01*
X048497Y110693D01*
X050796Y111209D01*
X053117Y111611D01*
X055455Y111900D01*
X057805Y112073D01*
X060160Y112131D01*
X062515Y112073D01*
X064865Y111900D01*
X067203Y111611D01*
X069524Y111209D01*
X071823Y110693D01*
X074094Y110064D01*
X076331Y109325D01*
X078529Y108477D01*
X080683Y107522D01*
X082787Y106463D01*
X084837Y105302D01*
X086827Y104042D01*
X088754Y102685D01*
X090611Y101236D01*
X092395Y099697D01*
X094101Y098072D01*
X095726Y096366D01*
X097265Y094582D01*
X098714Y092725D01*
X100071Y090798D01*
X101331Y088808D01*
X102492Y086758D01*
X103551Y084654D01*
X104506Y082500D01*
X105354Y080302D01*
X106093Y078065D01*
X106722Y075794D01*
X107238Y073495D01*
X107640Y071174D01*
X107929Y068836D01*
X108102Y066486D01*
X108160Y064131D01*
X108102Y061776D01*
X107929Y059426D01*
X107640Y057088D01*
X107238Y054767D01*
X106722Y052468D01*
X106093Y050197D01*
X105354Y047960D01*
X104506Y045762D01*
X103551Y043608D01*
X102492Y041504D01*
X101331Y039454D01*
X100071Y037464D01*
X098714Y035537D01*
X097265Y033680D01*
X095726Y031896D01*
X094101Y030190D01*
X092395Y028565D01*
X090611Y027026D01*
X088754Y025577D01*
X086827Y024220D01*
X084837Y022960D01*
X082787Y021799D01*
X080683Y020740D01*
X078529Y019785D01*
X076331Y018937D01*
X074094Y018198D01*
X071823Y017569D01*
X069524Y017053D01*
X067203Y016651D01*
X064865Y016362D01*
X062515Y016189D01*
X060160Y016131D01*
X057805Y016189D01*
X055455Y016362D01*
X053117Y016651D01*
X050796Y017053D01*
X048497Y017569D01*
X046226Y018198D01*
X043989Y018937D01*
X041791Y019785D01*
X039637Y020740D01*
X037533Y021799D01*
X035483Y022960D01*
X033493Y024220D01*
X031566Y025577D01*
X029709Y027026D01*
X027925Y028565D01*
X026219Y030190D01*
X024594Y031896D01*
X023055Y033680D01*
X021606Y035537D01*
X020249Y037464D01*
X018989Y039454D01*
X017828Y041504D01*
X016769Y043608D01*
X015814Y045762D01*
X014966Y047960D01*
X014227Y050197D01*
X013598Y052468D01*
X013082Y054767D01*
X012680Y057088D01*
X012391Y059426D01*
X012218Y061776D01*
X012160Y064131D01*
M02*
