G75*
G70*
%OFA0B0*%
%FSLAX24Y24*%
%IPPOS*%
%LPD*%
%AMOC8*
5,1,8,0,0,1.08239X$1,22.5*
%
%ADD10C,0.2080*%
%ADD11R,0.0680X0.0680*%
%ADD12C,0.0680*%
%ADD13R,0.0680X0.0680*%
%ADD14OC8,0.0680*%
%ADD15C,0.0848*%
%ADD16C,0.1080*%
%ADD17OC8,0.1080*%
%ADD18C,0.1205*%
%ADD19C,0.0480*%
%ADD20C,0.1480*%
D10*
X005160Y009131D03*
X011230Y010131D03*
X021090Y010131D03*
X035160Y009131D03*
X005160Y039131D03*
X005160Y089131D03*
X005160Y119131D03*
X035160Y119131D03*
X085160Y119131D03*
X115160Y119131D03*
X115160Y089131D03*
X115160Y039131D03*
X115160Y009131D03*
X085160Y009131D03*
D11*
X063660Y012978D03*
X111313Y067631D03*
X056660Y115284D03*
X009007Y060631D03*
D12*
X009007Y061631D03*
X009007Y062631D03*
X009007Y063631D03*
X009007Y064631D03*
X009007Y065631D03*
X009007Y066631D03*
X009007Y067631D03*
X002660Y067631D03*
X002660Y066631D03*
X002660Y065631D03*
X002660Y062631D03*
X002660Y061631D03*
X002660Y060631D03*
X009844Y054272D03*
X010103Y053306D03*
X010362Y052340D03*
X010620Y051374D03*
X010879Y050408D03*
X011138Y049442D03*
X011397Y048476D03*
X014110Y041585D03*
X014610Y040719D03*
X015110Y039853D03*
X015610Y038987D03*
X016110Y038121D03*
X016610Y037255D03*
X017110Y036389D03*
X021514Y030435D03*
X022221Y029728D03*
X022928Y029021D03*
X023635Y028314D03*
X024342Y027607D03*
X025050Y026899D03*
X025757Y026192D03*
X031552Y021581D03*
X032418Y021081D03*
X033284Y020581D03*
X034150Y020081D03*
X035016Y019581D03*
X035882Y019081D03*
X036748Y018581D03*
X043540Y015627D03*
X044506Y015368D03*
X045472Y015109D03*
X046438Y014851D03*
X047404Y014592D03*
X048370Y014333D03*
X049336Y014074D03*
X055660Y008631D03*
X056660Y006631D03*
X057660Y006631D03*
X058660Y006631D03*
X061660Y006631D03*
X062660Y006631D03*
X063660Y006631D03*
X062660Y012978D03*
X061660Y012978D03*
X060660Y012978D03*
X059660Y012978D03*
X058660Y012978D03*
X057660Y012978D03*
X056660Y012978D03*
X070019Y013815D03*
X070985Y014074D03*
X071951Y014333D03*
X072917Y014591D03*
X073883Y014850D03*
X074849Y015109D03*
X075815Y015368D03*
X082706Y018081D03*
X083572Y018581D03*
X084438Y019081D03*
X085304Y019581D03*
X086170Y020081D03*
X087036Y020581D03*
X087902Y021081D03*
X093856Y025485D03*
X094563Y026192D03*
X095270Y026899D03*
X095977Y027606D03*
X096684Y028313D03*
X097391Y029021D03*
X098099Y029728D03*
X102710Y035523D03*
X103210Y036389D03*
X103710Y037255D03*
X104210Y038121D03*
X104710Y038987D03*
X105210Y039853D03*
X105710Y040719D03*
X108664Y047511D03*
X108923Y048477D03*
X109182Y049443D03*
X109440Y050409D03*
X109699Y051375D03*
X109958Y052341D03*
X110217Y053307D03*
X111313Y060631D03*
X111313Y061631D03*
X111313Y062631D03*
X111313Y063631D03*
X111313Y064631D03*
X111313Y065631D03*
X111313Y066631D03*
X117660Y066631D03*
X117660Y065631D03*
X117660Y067631D03*
X117660Y062631D03*
X117660Y061631D03*
X117660Y060631D03*
X110476Y073990D03*
X110217Y074956D03*
X109958Y075922D03*
X109699Y076888D03*
X109441Y077854D03*
X109182Y078820D03*
X108923Y079786D03*
X106210Y086677D03*
X105710Y087543D03*
X105210Y088409D03*
X104710Y089275D03*
X104210Y090141D03*
X103710Y091007D03*
X103210Y091873D03*
X098806Y097827D03*
X098099Y098534D03*
X097392Y099241D03*
X096685Y099948D03*
X095978Y100655D03*
X095270Y101363D03*
X094563Y102070D03*
X088768Y106681D03*
X087902Y107181D03*
X087036Y107681D03*
X086170Y108181D03*
X085304Y108681D03*
X084438Y109181D03*
X083572Y109681D03*
X076780Y112635D03*
X075814Y112894D03*
X074848Y113153D03*
X073882Y113411D03*
X072916Y113670D03*
X071950Y113929D03*
X070984Y114188D03*
X063660Y115284D03*
X062660Y115284D03*
X061660Y115284D03*
X060660Y115284D03*
X059660Y115284D03*
X058660Y115284D03*
X057660Y115284D03*
X050301Y114447D03*
X049335Y114188D03*
X048369Y113929D03*
X047403Y113671D03*
X046437Y113412D03*
X045471Y113153D03*
X044505Y112894D03*
X037614Y110181D03*
X036748Y109681D03*
X035882Y109181D03*
X035016Y108681D03*
X034150Y108181D03*
X033284Y107681D03*
X032418Y107181D03*
X026464Y102777D03*
X025757Y102070D03*
X025050Y101363D03*
X024343Y100656D03*
X023636Y099949D03*
X022928Y099241D03*
X022221Y098534D03*
X017610Y092739D03*
X017110Y091873D03*
X016610Y091007D03*
X016110Y090141D03*
X015610Y089275D03*
X015110Y088409D03*
X014610Y087543D03*
X011656Y080751D03*
X011397Y079785D03*
X011138Y078819D03*
X010879Y077853D03*
X010621Y076887D03*
X010362Y075921D03*
X010103Y074955D03*
D13*
G36*
X009604Y074406D02*
X010260Y074230D01*
X010084Y073574D01*
X009428Y073750D01*
X009604Y074406D01*
G37*
G36*
X013986Y087141D02*
X014574Y086801D01*
X014234Y086213D01*
X013646Y086553D01*
X013986Y087141D01*
G37*
G36*
X021514Y098307D02*
X021994Y097827D01*
X021514Y097347D01*
X021034Y097827D01*
X021514Y098307D01*
G37*
G36*
X031676Y107145D02*
X032016Y106557D01*
X031428Y106217D01*
X031088Y106805D01*
X031676Y107145D01*
G37*
G36*
X043779Y113051D02*
X043955Y112395D01*
X043299Y112219D01*
X043123Y112875D01*
X043779Y113051D01*
G37*
G36*
X070435Y114687D02*
X070259Y114031D01*
X069603Y114207D01*
X069779Y114863D01*
X070435Y114687D01*
G37*
G36*
X083170Y110305D02*
X082830Y109717D01*
X082242Y110057D01*
X082582Y110645D01*
X083170Y110305D01*
G37*
G36*
X094336Y102777D02*
X093856Y102297D01*
X093376Y102777D01*
X093856Y103257D01*
X094336Y102777D01*
G37*
G36*
X103174Y092615D02*
X102586Y092275D01*
X102246Y092863D01*
X102834Y093203D01*
X103174Y092615D01*
G37*
G36*
X109080Y080511D02*
X108424Y080335D01*
X108248Y080991D01*
X108904Y081167D01*
X109080Y080511D01*
G37*
G36*
X110716Y053856D02*
X110060Y054032D01*
X110236Y054688D01*
X110892Y054512D01*
X110716Y053856D01*
G37*
G36*
X106334Y041121D02*
X105746Y041461D01*
X106086Y042049D01*
X106674Y041709D01*
X106334Y041121D01*
G37*
G36*
X098806Y029955D02*
X098326Y030435D01*
X098806Y030915D01*
X099286Y030435D01*
X098806Y029955D01*
G37*
G36*
X088644Y021117D02*
X088304Y021705D01*
X088892Y022045D01*
X089232Y021457D01*
X088644Y021117D01*
G37*
G36*
X076540Y015211D02*
X076364Y015867D01*
X077020Y016043D01*
X077196Y015387D01*
X076540Y015211D01*
G37*
G36*
X049885Y013575D02*
X050061Y014231D01*
X050717Y014055D01*
X050541Y013399D01*
X049885Y013575D01*
G37*
G36*
X037150Y017957D02*
X037490Y018545D01*
X038078Y018205D01*
X037738Y017617D01*
X037150Y017957D01*
G37*
G36*
X025984Y025485D02*
X026464Y025965D01*
X026944Y025485D01*
X026464Y025005D01*
X025984Y025485D01*
G37*
G36*
X017146Y035647D02*
X017734Y035987D01*
X018074Y035399D01*
X017486Y035059D01*
X017146Y035647D01*
G37*
G36*
X011240Y047751D02*
X011896Y047927D01*
X012072Y047271D01*
X011416Y047095D01*
X011240Y047751D01*
G37*
D14*
X014000Y010631D03*
X015080Y010631D03*
X016160Y010631D03*
X017240Y010631D03*
X018320Y010631D03*
X017780Y009631D03*
X016700Y009631D03*
X015620Y009631D03*
X014540Y009631D03*
D15*
X025207Y009131D03*
X026191Y010115D03*
X028160Y009131D03*
X030129Y010115D03*
X031113Y009131D03*
X029144Y005194D03*
X027176Y005194D03*
X072707Y009131D03*
X073691Y010115D03*
X075660Y009131D03*
X077629Y010115D03*
X078613Y009131D03*
X076644Y005194D03*
X074676Y005194D03*
D16*
X114160Y026631D03*
X114160Y049131D03*
X114160Y079131D03*
X114160Y104131D03*
X004160Y104131D03*
X004160Y079131D03*
X004160Y049131D03*
X004160Y026631D03*
D17*
X006160Y026631D03*
X006160Y049131D03*
X006160Y079131D03*
X006160Y104131D03*
X116160Y104131D03*
X116160Y079131D03*
X116160Y049131D03*
X116160Y026631D03*
D18*
X047140Y005121D03*
X044500Y010131D03*
X044500Y012081D03*
X039820Y012081D03*
X039820Y010131D03*
X037180Y005121D03*
D19*
X037660Y014131D03*
X036660Y014631D03*
X047660Y013631D03*
X048160Y013131D03*
X049160Y012131D03*
X049660Y012631D03*
X049160Y011131D03*
X056660Y009631D03*
X061660Y010631D03*
X063660Y011631D03*
X062160Y007131D03*
X074660Y007131D03*
X076660Y006131D03*
X077660Y011131D03*
X077160Y011631D03*
X077160Y013131D03*
X077160Y014131D03*
X088160Y018131D03*
X089160Y016631D03*
X098160Y018131D03*
X099160Y016631D03*
X110660Y029631D03*
X111660Y030631D03*
X110660Y040631D03*
X111660Y041631D03*
X117160Y056131D03*
X119160Y066131D03*
X119160Y080631D03*
X118160Y082131D03*
X119160Y092631D03*
X118160Y093631D03*
X107660Y092631D03*
X106660Y093631D03*
X107660Y102131D03*
X106660Y103131D03*
X094660Y110631D03*
X093660Y111631D03*
X083660Y110631D03*
X082160Y111631D03*
X083660Y115631D03*
X082160Y116631D03*
X044160Y117131D03*
X043160Y116131D03*
X044160Y115131D03*
X043160Y114131D03*
X032160Y115131D03*
X031160Y114131D03*
X032160Y110631D03*
X031160Y109631D03*
X022160Y110631D03*
X021160Y109631D03*
X022160Y100631D03*
X021160Y099631D03*
X002160Y100631D03*
X001160Y099631D03*
X002160Y087131D03*
X001160Y086131D03*
X002160Y074631D03*
X001160Y073631D03*
X004660Y061631D03*
X003660Y060631D03*
X002660Y048131D03*
X001660Y047131D03*
X002660Y036131D03*
X001660Y035131D03*
X013660Y036131D03*
X014660Y035131D03*
X013660Y026131D03*
X014660Y025131D03*
X016660Y026131D03*
X013660Y015131D03*
X014660Y014131D03*
X014160Y013131D03*
X015660Y013631D03*
X016160Y012631D03*
X017160Y013631D03*
X016660Y014631D03*
X015160Y006131D03*
D20*
X005160Y018631D03*
X115160Y016631D03*
M02*
