G75*
G70*
%OFA0B0*%
%FSLAX24Y24*%
%IPPOS*%
%LPD*%
%AMOC8*
5,1,8,0,0,1.08239X$1,22.5*
%
%ADD10C,0.0100*%
%ADD11C,0.0110*%
%ADD12C,0.0150*%
%ADD13C,0.0160*%
%ADD14C,0.0080*%
%ADD15C,0.0060*%
%ADD16R,0.0100X0.0950*%
%ADD17R,0.0400X0.0650*%
%ADD18C,0.0050*%
%ADD19R,0.7300X0.0300*%
%ADD20R,1.2200X0.0200*%
%ADD21R,0.0320X0.2850*%
%ADD22R,0.0320X0.1850*%
%ADD23R,0.0250X0.0900*%
D10*
X022710Y011681D02*
X022710Y012241D01*
X022990Y012241D01*
X023084Y012148D01*
X023084Y011961D01*
X022990Y011868D01*
X022710Y011868D01*
X022897Y011868D02*
X023084Y011681D01*
X023318Y011774D02*
X023318Y011961D01*
X023411Y012055D01*
X023598Y012055D01*
X023691Y011961D01*
X023691Y011868D01*
X023318Y011868D01*
X023318Y011774D02*
X023411Y011681D01*
X023598Y011681D01*
X023925Y011774D02*
X024019Y011681D01*
X024299Y011681D01*
X024299Y011588D02*
X024299Y012055D01*
X024019Y012055D01*
X023925Y011961D01*
X023925Y011774D01*
X024112Y011494D02*
X024206Y011494D01*
X024299Y011588D01*
X024533Y011774D02*
X024627Y011681D01*
X024907Y011681D01*
X024907Y012055D01*
X025141Y012241D02*
X025234Y012241D01*
X025234Y011681D01*
X025141Y011681D02*
X025328Y011681D01*
X025546Y011774D02*
X025639Y011868D01*
X025920Y011868D01*
X025920Y011961D02*
X025920Y011681D01*
X025639Y011681D01*
X025546Y011774D01*
X025639Y012055D02*
X025826Y012055D01*
X025920Y011961D01*
X026154Y012055D02*
X026341Y012055D01*
X026247Y012148D02*
X026247Y011774D01*
X026341Y011681D01*
X026559Y011774D02*
X026559Y011961D01*
X026652Y012055D01*
X026839Y012055D01*
X026932Y011961D01*
X026932Y011868D01*
X026559Y011868D01*
X026559Y011774D02*
X026652Y011681D01*
X026839Y011681D01*
X027167Y011774D02*
X027167Y011961D01*
X027260Y012055D01*
X027540Y012055D01*
X027540Y012241D02*
X027540Y011681D01*
X027260Y011681D01*
X027167Y011774D01*
X028382Y011681D02*
X028382Y012241D01*
X028662Y012241D01*
X028756Y012148D01*
X028756Y011961D01*
X028662Y011868D01*
X028382Y011868D01*
X028990Y011961D02*
X028990Y011774D01*
X029083Y011681D01*
X029270Y011681D01*
X029363Y011774D01*
X029363Y011961D01*
X029270Y012055D01*
X029083Y012055D01*
X028990Y011961D01*
X029597Y012055D02*
X029597Y011774D01*
X029691Y011681D01*
X029784Y011774D01*
X029878Y011681D01*
X029971Y011774D01*
X029971Y012055D01*
X030205Y011961D02*
X030299Y012055D01*
X030485Y012055D01*
X030579Y011961D01*
X030579Y011868D01*
X030205Y011868D01*
X030205Y011961D02*
X030205Y011774D01*
X030299Y011681D01*
X030485Y011681D01*
X030813Y011681D02*
X030813Y012055D01*
X031000Y012055D02*
X031093Y012055D01*
X031000Y012055D02*
X030813Y011868D01*
X031927Y011774D02*
X032020Y011681D01*
X032207Y011681D01*
X032301Y011774D01*
X032301Y011868D01*
X032207Y011961D01*
X032020Y011961D01*
X031927Y012055D01*
X031927Y012148D01*
X032020Y012241D01*
X032207Y012241D01*
X032301Y012148D01*
X032535Y012055D02*
X032535Y011774D01*
X032628Y011681D01*
X032908Y011681D01*
X032908Y012055D01*
X033142Y012055D02*
X033423Y012055D01*
X033516Y011961D01*
X033516Y011774D01*
X033423Y011681D01*
X033142Y011681D01*
X033142Y011494D02*
X033142Y012055D01*
X033750Y012055D02*
X034030Y012055D01*
X034124Y011961D01*
X034124Y011774D01*
X034030Y011681D01*
X033750Y011681D01*
X033750Y011494D02*
X033750Y012055D01*
X034358Y012241D02*
X034451Y012241D01*
X034451Y011681D01*
X034358Y011681D02*
X034545Y011681D01*
X034763Y011774D02*
X034856Y011681D01*
X035137Y011681D01*
X035137Y011588D02*
X035043Y011494D01*
X034950Y011494D01*
X035137Y011588D02*
X035137Y012055D01*
X034763Y012055D02*
X034763Y011774D01*
X024533Y011774D02*
X024533Y012055D01*
X070210Y011868D02*
X070490Y011868D01*
X070584Y011961D01*
X070584Y012148D01*
X070490Y012241D01*
X070210Y012241D01*
X070210Y011681D01*
X070397Y011868D02*
X070584Y011681D01*
X070818Y011774D02*
X070818Y011961D01*
X070911Y012055D01*
X071098Y012055D01*
X071191Y011961D01*
X071191Y011868D01*
X070818Y011868D01*
X070818Y011774D02*
X070911Y011681D01*
X071098Y011681D01*
X071425Y011774D02*
X071519Y011681D01*
X071799Y011681D01*
X071799Y011588D02*
X071799Y012055D01*
X071519Y012055D01*
X071425Y011961D01*
X071425Y011774D01*
X071612Y011494D02*
X071706Y011494D01*
X071799Y011588D01*
X072033Y011774D02*
X072127Y011681D01*
X072407Y011681D01*
X072407Y012055D01*
X072641Y012241D02*
X072734Y012241D01*
X072734Y011681D01*
X072641Y011681D02*
X072828Y011681D01*
X073046Y011774D02*
X073139Y011868D01*
X073420Y011868D01*
X073420Y011961D02*
X073420Y011681D01*
X073139Y011681D01*
X073046Y011774D01*
X073139Y012055D02*
X073326Y012055D01*
X073420Y011961D01*
X073654Y012055D02*
X073841Y012055D01*
X073747Y012148D02*
X073747Y011774D01*
X073841Y011681D01*
X074059Y011774D02*
X074059Y011961D01*
X074152Y012055D01*
X074339Y012055D01*
X074432Y011961D01*
X074432Y011868D01*
X074059Y011868D01*
X074059Y011774D02*
X074152Y011681D01*
X074339Y011681D01*
X074667Y011774D02*
X074667Y011961D01*
X074760Y012055D01*
X075040Y012055D01*
X075040Y012241D02*
X075040Y011681D01*
X074760Y011681D01*
X074667Y011774D01*
X075882Y011681D02*
X075882Y012241D01*
X076162Y012241D01*
X076256Y012148D01*
X076256Y011961D01*
X076162Y011868D01*
X075882Y011868D01*
X076490Y011961D02*
X076490Y011774D01*
X076583Y011681D01*
X076770Y011681D01*
X076863Y011774D01*
X076863Y011961D01*
X076770Y012055D01*
X076583Y012055D01*
X076490Y011961D01*
X077097Y012055D02*
X077097Y011774D01*
X077191Y011681D01*
X077284Y011774D01*
X077378Y011681D01*
X077471Y011774D01*
X077471Y012055D01*
X077705Y011961D02*
X077799Y012055D01*
X077985Y012055D01*
X078079Y011961D01*
X078079Y011868D01*
X077705Y011868D01*
X077705Y011961D02*
X077705Y011774D01*
X077799Y011681D01*
X077985Y011681D01*
X078313Y011681D02*
X078313Y012055D01*
X078500Y012055D02*
X078593Y012055D01*
X078500Y012055D02*
X078313Y011868D01*
X079427Y011774D02*
X079520Y011681D01*
X079707Y011681D01*
X079801Y011774D01*
X079801Y011868D01*
X079707Y011961D01*
X079520Y011961D01*
X079427Y012055D01*
X079427Y012148D01*
X079520Y012241D01*
X079707Y012241D01*
X079801Y012148D01*
X080035Y012055D02*
X080035Y011774D01*
X080128Y011681D01*
X080408Y011681D01*
X080408Y012055D01*
X080642Y012055D02*
X080923Y012055D01*
X081016Y011961D01*
X081016Y011774D01*
X080923Y011681D01*
X080642Y011681D01*
X080642Y011494D02*
X080642Y012055D01*
X081250Y012055D02*
X081530Y012055D01*
X081624Y011961D01*
X081624Y011774D01*
X081530Y011681D01*
X081250Y011681D01*
X081250Y011494D02*
X081250Y012055D01*
X081858Y012241D02*
X081951Y012241D01*
X081951Y011681D01*
X081858Y011681D02*
X082045Y011681D01*
X082263Y011774D02*
X082356Y011681D01*
X082637Y011681D01*
X082637Y011588D02*
X082543Y011494D01*
X082450Y011494D01*
X082637Y011588D02*
X082637Y012055D01*
X082263Y012055D02*
X082263Y011774D01*
X072033Y011774D02*
X072033Y012055D01*
D11*
X007813Y005686D02*
X007715Y005784D01*
X007813Y005686D02*
X007912Y005686D01*
X008010Y005784D01*
X008010Y006276D01*
X007912Y006276D02*
X008109Y006276D01*
X008360Y006080D02*
X008556Y006276D01*
X008556Y005686D01*
X008360Y005686D02*
X008753Y005686D01*
X005799Y016936D02*
X005898Y017034D01*
X005898Y017428D01*
X005799Y017526D01*
X005504Y017526D01*
X005504Y016936D01*
X005799Y016936D01*
X005253Y016936D02*
X005253Y017526D01*
X004860Y017526D02*
X005253Y016936D01*
X004860Y016936D02*
X004860Y017526D01*
X004609Y017428D02*
X004510Y017526D01*
X004313Y017526D01*
X004215Y017428D01*
X004215Y017034D01*
X004313Y016936D01*
X004510Y016936D01*
X004609Y017034D01*
X004609Y017231D01*
X004412Y017231D01*
X004813Y023686D02*
X004715Y023784D01*
X004715Y024178D01*
X004813Y024276D01*
X005010Y024276D01*
X005109Y024178D01*
X005360Y024080D02*
X005556Y024276D01*
X005556Y023686D01*
X005360Y023686D02*
X005753Y023686D01*
X005109Y023784D02*
X005010Y023686D01*
X004813Y023686D01*
X016715Y033784D02*
X016813Y033686D01*
X016912Y033686D01*
X017010Y033784D01*
X017010Y034276D01*
X016912Y034276D02*
X017109Y034276D01*
X017360Y034276D02*
X017655Y034276D01*
X017753Y034178D01*
X017753Y033981D01*
X017655Y033883D01*
X017360Y033883D01*
X017360Y033686D02*
X017360Y034276D01*
X018004Y034178D02*
X018102Y034276D01*
X018299Y034276D01*
X018398Y034178D01*
X018398Y034080D01*
X018299Y033981D01*
X018398Y033883D01*
X018398Y033784D01*
X018299Y033686D01*
X018102Y033686D01*
X018004Y033784D01*
X018201Y033981D02*
X018299Y033981D01*
X025912Y024276D02*
X026109Y024276D01*
X026010Y024276D02*
X026010Y023784D01*
X025912Y023686D01*
X025813Y023686D01*
X025715Y023784D01*
X026360Y023686D02*
X026360Y024276D01*
X026655Y024276D01*
X026753Y024178D01*
X026753Y023981D01*
X026655Y023883D01*
X026360Y023883D01*
X027004Y023981D02*
X027398Y023981D01*
X027299Y023686D02*
X027299Y024276D01*
X027004Y023981D01*
X036412Y016776D02*
X036609Y016776D01*
X036510Y016776D02*
X036510Y016284D01*
X036412Y016186D01*
X036313Y016186D01*
X036215Y016284D01*
X036860Y016186D02*
X036860Y016776D01*
X037155Y016776D01*
X037253Y016678D01*
X037253Y016481D01*
X037155Y016383D01*
X036860Y016383D01*
X037504Y016481D02*
X037701Y016580D01*
X037799Y016580D01*
X037898Y016481D01*
X037898Y016284D01*
X037799Y016186D01*
X037602Y016186D01*
X037504Y016284D01*
X037504Y016481D02*
X037504Y016776D01*
X037898Y016776D01*
X033155Y005776D02*
X032958Y005776D01*
X032860Y005678D01*
X032609Y005776D02*
X032412Y005776D01*
X032510Y005776D02*
X032510Y005284D01*
X032412Y005186D01*
X032313Y005186D01*
X032215Y005284D01*
X032860Y005186D02*
X033253Y005580D01*
X033253Y005678D01*
X033155Y005776D01*
X033253Y005186D02*
X032860Y005186D01*
X048215Y005284D02*
X048313Y005186D01*
X048510Y005186D01*
X048609Y005284D01*
X048609Y005383D01*
X048510Y005481D01*
X048313Y005481D01*
X048215Y005580D01*
X048215Y005678D01*
X048313Y005776D01*
X048510Y005776D01*
X048609Y005678D01*
X048860Y005580D02*
X049056Y005776D01*
X049056Y005186D01*
X048860Y005186D02*
X049253Y005186D01*
X050813Y012186D02*
X050912Y012186D01*
X051010Y012284D01*
X051010Y012776D01*
X050912Y012776D02*
X051109Y012776D01*
X051360Y012776D02*
X051655Y012776D01*
X051753Y012678D01*
X051753Y012481D01*
X051655Y012383D01*
X051360Y012383D01*
X051360Y012186D02*
X051360Y012776D01*
X052004Y012481D02*
X052004Y012284D01*
X052102Y012186D01*
X052299Y012186D01*
X052398Y012284D01*
X052398Y012383D01*
X052299Y012481D01*
X052004Y012481D01*
X052201Y012678D01*
X052398Y012776D01*
X050813Y012186D02*
X050715Y012284D01*
X056265Y009915D02*
X056363Y010013D01*
X056757Y009620D01*
X056855Y009718D01*
X056855Y009915D01*
X056757Y010013D01*
X056363Y010013D01*
X056265Y009915D02*
X056265Y009718D01*
X056363Y009620D01*
X056757Y009620D01*
X056855Y009369D02*
X056461Y009369D01*
X056265Y009172D01*
X056461Y008975D01*
X056855Y008975D01*
X056757Y008724D02*
X056363Y008724D01*
X056265Y008626D01*
X056265Y008331D01*
X056855Y008331D01*
X056855Y008626D01*
X056757Y008724D01*
X056560Y008975D02*
X056560Y009369D01*
X057265Y009172D02*
X057461Y009369D01*
X057855Y009369D01*
X057855Y009620D02*
X057855Y010013D01*
X057855Y009816D02*
X057265Y009816D01*
X057461Y009620D01*
X057560Y009369D02*
X057560Y008975D01*
X057461Y008975D02*
X057265Y009172D01*
X057461Y008975D02*
X057855Y008975D01*
X057757Y008724D02*
X057363Y008724D01*
X057265Y008626D01*
X057265Y008331D01*
X057855Y008331D01*
X057855Y008626D01*
X057757Y008724D01*
X058265Y008626D02*
X058363Y008724D01*
X058757Y008724D01*
X058855Y008626D01*
X058855Y008331D01*
X058265Y008331D01*
X058265Y008626D01*
X058461Y008975D02*
X058265Y009172D01*
X058461Y009369D01*
X058855Y009369D01*
X058855Y009620D02*
X058855Y010013D01*
X058855Y009816D02*
X058265Y009816D01*
X058461Y009620D01*
X058560Y009369D02*
X058560Y008975D01*
X058461Y008975D02*
X058855Y008975D01*
X058757Y008080D02*
X058855Y007981D01*
X058855Y007784D01*
X058757Y007686D01*
X058560Y007784D02*
X058560Y007981D01*
X058658Y008080D01*
X058757Y008080D01*
X058560Y007784D02*
X058461Y007686D01*
X058363Y007686D01*
X058265Y007784D01*
X058265Y007981D01*
X058363Y008080D01*
X057855Y007981D02*
X057855Y007784D01*
X057757Y007686D01*
X057560Y007784D02*
X057560Y007981D01*
X057658Y008080D01*
X057757Y008080D01*
X057855Y007981D01*
X057560Y007784D02*
X057461Y007686D01*
X057363Y007686D01*
X057265Y007784D01*
X057265Y007981D01*
X057363Y008080D01*
X056855Y007981D02*
X056855Y007784D01*
X056757Y007686D01*
X056560Y007784D02*
X056560Y007981D01*
X056658Y008080D01*
X056757Y008080D01*
X056855Y007981D01*
X056560Y007784D02*
X056461Y007686D01*
X056363Y007686D01*
X056265Y007784D01*
X056265Y007981D01*
X056363Y008080D01*
X056412Y005776D02*
X056609Y005776D01*
X056510Y005776D02*
X056510Y005284D01*
X056412Y005186D01*
X056313Y005186D01*
X056215Y005284D01*
X056860Y005186D02*
X056860Y005776D01*
X057155Y005776D01*
X057253Y005678D01*
X057253Y005481D01*
X057155Y005383D01*
X056860Y005383D01*
X057504Y005186D02*
X057898Y005580D01*
X057898Y005678D01*
X057799Y005776D01*
X057602Y005776D01*
X057504Y005678D01*
X057504Y005186D02*
X057898Y005186D01*
X058149Y005284D02*
X058149Y005383D01*
X058247Y005481D01*
X058444Y005481D01*
X058542Y005383D01*
X058542Y005284D01*
X058444Y005186D01*
X058247Y005186D01*
X058149Y005284D01*
X058247Y005481D02*
X058149Y005580D01*
X058149Y005678D01*
X058247Y005776D01*
X058444Y005776D01*
X058542Y005678D01*
X058542Y005580D01*
X058444Y005481D01*
X059765Y007686D02*
X059765Y007981D01*
X059863Y008080D01*
X059961Y008080D01*
X060060Y007981D01*
X060060Y007686D01*
X060355Y007686D02*
X059765Y007686D01*
X060060Y007981D02*
X060158Y008080D01*
X060257Y008080D01*
X060355Y007981D01*
X060355Y007686D01*
X060257Y008331D02*
X060355Y008429D01*
X060355Y008626D01*
X060257Y008724D01*
X059765Y008724D01*
X059863Y008975D02*
X059961Y008975D01*
X060060Y009073D01*
X060060Y009270D01*
X060158Y009369D01*
X060257Y009369D01*
X060355Y009270D01*
X060355Y009073D01*
X060257Y008975D01*
X059863Y008975D02*
X059765Y009073D01*
X059765Y009270D01*
X059863Y009369D01*
X059961Y009620D02*
X059765Y009816D01*
X060355Y009816D01*
X060355Y009620D02*
X060355Y010013D01*
X061265Y009915D02*
X061363Y010013D01*
X061757Y009620D01*
X061855Y009718D01*
X061855Y009915D01*
X061757Y010013D01*
X061363Y010013D01*
X061265Y009915D02*
X061265Y009718D01*
X061363Y009620D01*
X061757Y009620D01*
X061855Y009369D02*
X061855Y008975D01*
X061265Y008975D01*
X061363Y008724D02*
X061265Y008626D01*
X061265Y008429D01*
X061363Y008331D01*
X061757Y008331D01*
X061855Y008429D01*
X061855Y008626D01*
X061757Y008724D01*
X062265Y008626D02*
X062363Y008724D01*
X062265Y008626D02*
X062265Y008429D01*
X062363Y008331D01*
X062757Y008331D01*
X062855Y008429D01*
X062855Y008626D01*
X062757Y008724D01*
X062855Y008975D02*
X062855Y009369D01*
X062855Y009620D02*
X062855Y010013D01*
X062855Y009816D02*
X062265Y009816D01*
X062461Y009620D01*
X062461Y010264D02*
X062265Y010461D01*
X062855Y010461D01*
X062855Y010264D02*
X062855Y010658D01*
X063265Y009816D02*
X063855Y009816D01*
X063855Y009620D02*
X063855Y010013D01*
X063461Y009620D02*
X063265Y009816D01*
X063855Y009369D02*
X063855Y008975D01*
X063265Y008975D01*
X063363Y008724D02*
X063265Y008626D01*
X063265Y008429D01*
X063363Y008331D01*
X063757Y008331D01*
X063855Y008429D01*
X063855Y008626D01*
X063757Y008724D01*
X063757Y008080D02*
X063855Y007981D01*
X063855Y007784D01*
X063757Y007686D01*
X063560Y007784D02*
X063560Y007981D01*
X063658Y008080D01*
X063757Y008080D01*
X063560Y007784D02*
X063461Y007686D01*
X063363Y007686D01*
X063265Y007784D01*
X063265Y007981D01*
X063363Y008080D01*
X062855Y007981D02*
X062855Y007784D01*
X062757Y007686D01*
X062560Y007784D02*
X062560Y007981D01*
X062658Y008080D01*
X062757Y008080D01*
X062855Y007981D01*
X062560Y007784D02*
X062461Y007686D01*
X062363Y007686D01*
X062265Y007784D01*
X062265Y007981D01*
X062363Y008080D01*
X061855Y007981D02*
X061855Y007784D01*
X061757Y007686D01*
X061560Y007784D02*
X061560Y007981D01*
X061658Y008080D01*
X061757Y008080D01*
X061855Y007981D01*
X061560Y007784D02*
X061461Y007686D01*
X061363Y007686D01*
X061265Y007784D01*
X061265Y007981D01*
X061363Y008080D01*
X060257Y008331D02*
X059765Y008331D01*
X062265Y008975D02*
X062855Y008975D01*
X064313Y011686D02*
X064412Y011686D01*
X064510Y011784D01*
X064510Y012276D01*
X064412Y012276D02*
X064609Y012276D01*
X064860Y012276D02*
X065155Y012276D01*
X065253Y012178D01*
X065253Y011981D01*
X065155Y011883D01*
X064860Y011883D01*
X064860Y011686D02*
X064860Y012276D01*
X065504Y012276D02*
X065898Y012276D01*
X065898Y012178D01*
X065504Y011784D01*
X065504Y011686D01*
X064313Y011686D02*
X064215Y011784D01*
X063542Y005776D02*
X063149Y005776D01*
X063149Y005481D01*
X063345Y005580D01*
X063444Y005580D01*
X063542Y005481D01*
X063542Y005284D01*
X063444Y005186D01*
X063247Y005186D01*
X063149Y005284D01*
X062898Y005186D02*
X062504Y005186D01*
X062898Y005580D01*
X062898Y005678D01*
X062799Y005776D01*
X062602Y005776D01*
X062504Y005678D01*
X062253Y005678D02*
X062253Y005481D01*
X062155Y005383D01*
X061860Y005383D01*
X061860Y005186D02*
X061860Y005776D01*
X062155Y005776D01*
X062253Y005678D01*
X061609Y005776D02*
X061412Y005776D01*
X061510Y005776D02*
X061510Y005284D01*
X061412Y005186D01*
X061313Y005186D01*
X061215Y005284D01*
X057855Y010264D02*
X057855Y010658D01*
X057855Y010461D02*
X057265Y010461D01*
X057461Y010264D01*
X077715Y015284D02*
X077813Y015186D01*
X077912Y015186D01*
X078010Y015284D01*
X078010Y015776D01*
X077912Y015776D02*
X078109Y015776D01*
X078360Y015776D02*
X078655Y015776D01*
X078753Y015678D01*
X078753Y015481D01*
X078655Y015383D01*
X078360Y015383D01*
X078360Y015186D02*
X078360Y015776D01*
X079004Y015678D02*
X079004Y015580D01*
X079102Y015481D01*
X079299Y015481D01*
X079398Y015383D01*
X079398Y015284D01*
X079299Y015186D01*
X079102Y015186D01*
X079004Y015284D01*
X079004Y015383D01*
X079102Y015481D01*
X079299Y015481D02*
X079398Y015580D01*
X079398Y015678D01*
X079299Y015776D01*
X079102Y015776D01*
X079004Y015678D01*
X079912Y005776D02*
X080109Y005776D01*
X080010Y005776D02*
X080010Y005284D01*
X079912Y005186D01*
X079813Y005186D01*
X079715Y005284D01*
X080360Y005284D02*
X080458Y005186D01*
X080655Y005186D01*
X080753Y005284D01*
X080753Y005383D01*
X080655Y005481D01*
X080556Y005481D01*
X080655Y005481D02*
X080753Y005580D01*
X080753Y005678D01*
X080655Y005776D01*
X080458Y005776D01*
X080360Y005678D01*
X089813Y021186D02*
X089912Y021186D01*
X090010Y021284D01*
X090010Y021776D01*
X089912Y021776D02*
X090109Y021776D01*
X090360Y021776D02*
X090655Y021776D01*
X090753Y021678D01*
X090753Y021481D01*
X090655Y021383D01*
X090360Y021383D01*
X090360Y021186D02*
X090360Y021776D01*
X091004Y021678D02*
X091004Y021580D01*
X091102Y021481D01*
X091398Y021481D01*
X091398Y021284D02*
X091398Y021678D01*
X091299Y021776D01*
X091102Y021776D01*
X091004Y021678D01*
X091004Y021284D02*
X091102Y021186D01*
X091299Y021186D01*
X091398Y021284D01*
X089813Y021186D02*
X089715Y021284D01*
X099715Y030284D02*
X099813Y030186D01*
X099912Y030186D01*
X100010Y030284D01*
X100010Y030776D01*
X099912Y030776D02*
X100109Y030776D01*
X100360Y030776D02*
X100655Y030776D01*
X100753Y030678D01*
X100753Y030481D01*
X100655Y030383D01*
X100360Y030383D01*
X100360Y030186D02*
X100360Y030776D01*
X101004Y030580D02*
X101201Y030776D01*
X101201Y030186D01*
X101004Y030186D02*
X101398Y030186D01*
X101649Y030284D02*
X102042Y030678D01*
X102042Y030284D01*
X101944Y030186D01*
X101747Y030186D01*
X101649Y030284D01*
X101649Y030678D01*
X101747Y030776D01*
X101944Y030776D01*
X102042Y030678D01*
X107313Y042186D02*
X107412Y042186D01*
X107510Y042284D01*
X107510Y042776D01*
X107412Y042776D02*
X107609Y042776D01*
X107860Y042776D02*
X108155Y042776D01*
X108253Y042678D01*
X108253Y042481D01*
X108155Y042383D01*
X107860Y042383D01*
X107860Y042186D02*
X107860Y042776D01*
X108504Y042580D02*
X108701Y042776D01*
X108701Y042186D01*
X108504Y042186D02*
X108898Y042186D01*
X109149Y042186D02*
X109542Y042186D01*
X109345Y042186D02*
X109345Y042776D01*
X109149Y042580D01*
X107313Y042186D02*
X107215Y042284D01*
X114715Y045784D02*
X114813Y045686D01*
X115010Y045686D01*
X115109Y045784D01*
X115360Y045784D02*
X115458Y045686D01*
X115655Y045686D01*
X115753Y045784D01*
X115753Y045883D01*
X115655Y045981D01*
X115360Y045981D01*
X115360Y045784D01*
X115360Y045981D02*
X115556Y046178D01*
X115753Y046276D01*
X115109Y046178D02*
X115010Y046276D01*
X114813Y046276D01*
X114715Y046178D01*
X114715Y045784D01*
X113542Y055186D02*
X113149Y055186D01*
X113542Y055580D01*
X113542Y055678D01*
X113444Y055776D01*
X113247Y055776D01*
X113149Y055678D01*
X112701Y055776D02*
X112701Y055186D01*
X112504Y055186D02*
X112898Y055186D01*
X112504Y055580D02*
X112701Y055776D01*
X112253Y055678D02*
X112253Y055481D01*
X112155Y055383D01*
X111860Y055383D01*
X111860Y055186D02*
X111860Y055776D01*
X112155Y055776D01*
X112253Y055678D01*
X111609Y055776D02*
X111412Y055776D01*
X111510Y055776D02*
X111510Y055284D01*
X111412Y055186D01*
X111313Y055186D01*
X111215Y055284D01*
X114485Y060236D02*
X114387Y060334D01*
X114485Y060236D02*
X114682Y060236D01*
X114780Y060334D01*
X114780Y060433D01*
X114682Y060531D01*
X114485Y060531D01*
X114387Y060630D01*
X114387Y060728D01*
X114485Y060826D01*
X114682Y060826D01*
X114780Y060728D01*
X115031Y060826D02*
X115327Y060826D01*
X115425Y060728D01*
X115425Y060334D01*
X115327Y060236D01*
X115031Y060236D01*
X115031Y060826D01*
X115031Y061236D02*
X115031Y061630D01*
X115228Y061826D01*
X115425Y061630D01*
X115425Y061236D01*
X115676Y061236D02*
X116070Y061630D01*
X116070Y061728D01*
X115971Y061826D01*
X115774Y061826D01*
X115676Y061728D01*
X115425Y061531D02*
X115031Y061531D01*
X114780Y061334D02*
X114780Y061728D01*
X114682Y061826D01*
X114387Y061826D01*
X114387Y061236D01*
X114682Y061236D01*
X114780Y061334D01*
X114136Y061334D02*
X114038Y061236D01*
X113841Y061236D01*
X113742Y061334D01*
X113841Y061531D02*
X114038Y061531D01*
X114136Y061433D01*
X114136Y061334D01*
X113841Y061531D02*
X113742Y061630D01*
X113742Y061728D01*
X113841Y061826D01*
X114038Y061826D01*
X114136Y061728D01*
X114485Y062236D02*
X114387Y062334D01*
X114485Y062236D02*
X114682Y062236D01*
X114780Y062334D01*
X114780Y062433D01*
X114682Y062531D01*
X114485Y062531D01*
X114387Y062630D01*
X114387Y062728D01*
X114485Y062826D01*
X114682Y062826D01*
X114780Y062728D01*
X115031Y062826D02*
X115327Y062826D01*
X115425Y062728D01*
X115425Y062334D01*
X115327Y062236D01*
X115031Y062236D01*
X115031Y062826D01*
X115676Y062630D02*
X115873Y062826D01*
X116070Y062630D01*
X116070Y062236D01*
X116320Y062236D02*
X116714Y062630D01*
X116714Y062728D01*
X116616Y062826D01*
X116419Y062826D01*
X116320Y062728D01*
X116070Y062531D02*
X115676Y062531D01*
X115676Y062630D02*
X115676Y062236D01*
X116320Y062236D02*
X116714Y062236D01*
X116616Y061826D02*
X116419Y061826D01*
X116320Y061728D01*
X116616Y061826D02*
X116714Y061728D01*
X116714Y061630D01*
X116320Y061236D01*
X116714Y061236D01*
X116616Y060826D02*
X116714Y060728D01*
X116320Y060334D01*
X116419Y060236D01*
X116616Y060236D01*
X116714Y060334D01*
X116714Y060728D01*
X116616Y060826D02*
X116419Y060826D01*
X116320Y060728D01*
X116320Y060334D01*
X116070Y060236D02*
X116070Y060630D01*
X115873Y060826D01*
X115676Y060630D01*
X115676Y060236D01*
X115676Y060531D02*
X116070Y060531D01*
X116070Y061236D02*
X115676Y061236D01*
X116912Y059776D02*
X117109Y059776D01*
X117010Y059776D02*
X117010Y059284D01*
X116912Y059186D01*
X116813Y059186D01*
X116715Y059284D01*
X117360Y059186D02*
X117360Y059776D01*
X117655Y059776D01*
X117753Y059678D01*
X117753Y059481D01*
X117655Y059383D01*
X117360Y059383D01*
X118004Y059186D02*
X118398Y059580D01*
X118398Y059678D01*
X118299Y059776D01*
X118102Y059776D01*
X118004Y059678D01*
X118004Y059186D02*
X118398Y059186D01*
X118649Y059284D02*
X118747Y059186D01*
X118944Y059186D01*
X119042Y059284D01*
X119042Y059678D01*
X118944Y059776D01*
X118747Y059776D01*
X118649Y059678D01*
X118649Y059580D01*
X118747Y059481D01*
X119042Y059481D01*
X116714Y063736D02*
X116320Y063736D01*
X116714Y064130D01*
X116714Y064228D01*
X116616Y064326D01*
X116419Y064326D01*
X116320Y064228D01*
X116070Y064228D02*
X115971Y064326D01*
X115774Y064326D01*
X115676Y064228D01*
X115676Y064130D01*
X115774Y064031D01*
X115971Y064031D01*
X116070Y063933D01*
X116070Y063834D01*
X115971Y063736D01*
X115774Y063736D01*
X115676Y063834D01*
X115425Y063834D02*
X115425Y064326D01*
X115031Y064326D02*
X115031Y063834D01*
X115130Y063736D01*
X115327Y063736D01*
X115425Y063834D01*
X114780Y063834D02*
X114682Y063736D01*
X114387Y063736D01*
X114387Y064326D01*
X114682Y064326D01*
X114780Y064228D01*
X114780Y064130D01*
X114682Y064031D01*
X114387Y064031D01*
X114682Y064031D02*
X114780Y063933D01*
X114780Y063834D01*
X114682Y065236D02*
X114485Y065236D01*
X114387Y065334D01*
X114485Y065531D02*
X114682Y065531D01*
X114780Y065433D01*
X114780Y065334D01*
X114682Y065236D01*
X114485Y065531D02*
X114387Y065630D01*
X114387Y065728D01*
X114485Y065826D01*
X114682Y065826D01*
X114780Y065728D01*
X115031Y065728D02*
X115031Y065334D01*
X115130Y065236D01*
X115327Y065236D01*
X115425Y065334D01*
X115676Y065236D02*
X116070Y065236D01*
X116320Y065334D02*
X116714Y065728D01*
X116714Y065334D01*
X116616Y065236D01*
X116419Y065236D01*
X116320Y065334D01*
X116320Y065728D01*
X116419Y065826D01*
X116616Y065826D01*
X116714Y065728D01*
X116714Y066236D02*
X116320Y066236D01*
X116714Y066630D01*
X116714Y066728D01*
X116616Y066826D01*
X116419Y066826D01*
X116320Y066728D01*
X116070Y066728D02*
X115971Y066826D01*
X115774Y066826D01*
X115676Y066728D01*
X116070Y066728D02*
X116070Y066630D01*
X115676Y066236D01*
X116070Y066236D01*
X115676Y065826D02*
X115676Y065236D01*
X115425Y065728D02*
X115327Y065826D01*
X115130Y065826D01*
X115031Y065728D01*
X115031Y066236D02*
X115425Y066236D01*
X115031Y066236D02*
X115031Y066826D01*
X114780Y066728D02*
X114682Y066826D01*
X114485Y066826D01*
X114387Y066728D01*
X114387Y066334D01*
X114485Y066236D01*
X114682Y066236D01*
X114780Y066334D01*
X114136Y066334D02*
X114038Y066236D01*
X113841Y066236D01*
X113742Y066334D01*
X113841Y066531D02*
X114038Y066531D01*
X114136Y066433D01*
X114136Y066334D01*
X113841Y066531D02*
X113742Y066630D01*
X113742Y066728D01*
X113841Y066826D01*
X114038Y066826D01*
X114136Y066728D01*
X114485Y067236D02*
X114387Y067334D01*
X114485Y067236D02*
X114682Y067236D01*
X114780Y067334D01*
X114780Y067433D01*
X114682Y067531D01*
X114485Y067531D01*
X114387Y067630D01*
X114387Y067728D01*
X114485Y067826D01*
X114682Y067826D01*
X114780Y067728D01*
X115031Y067728D02*
X115031Y067334D01*
X115130Y067236D01*
X115327Y067236D01*
X115425Y067334D01*
X115676Y067236D02*
X116070Y067236D01*
X116320Y067236D02*
X116714Y067630D01*
X116714Y067728D01*
X116616Y067826D01*
X116419Y067826D01*
X116320Y067728D01*
X116320Y067236D02*
X116714Y067236D01*
X115676Y067236D02*
X115676Y067826D01*
X115425Y067728D02*
X115327Y067826D01*
X115130Y067826D01*
X115031Y067728D01*
X113542Y068784D02*
X113444Y068686D01*
X113247Y068686D01*
X113149Y068784D01*
X112898Y068686D02*
X112504Y068686D01*
X112701Y068686D02*
X112701Y069276D01*
X112504Y069080D01*
X112253Y069178D02*
X112253Y068981D01*
X112155Y068883D01*
X111860Y068883D01*
X111860Y068686D02*
X111860Y069276D01*
X112155Y069276D01*
X112253Y069178D01*
X111609Y069276D02*
X111412Y069276D01*
X111510Y069276D02*
X111510Y068784D01*
X111412Y068686D01*
X111313Y068686D01*
X111215Y068784D01*
X113149Y069178D02*
X113247Y069276D01*
X113444Y069276D01*
X113542Y069178D01*
X113542Y069080D01*
X113444Y068981D01*
X113542Y068883D01*
X113542Y068784D01*
X113444Y068981D02*
X113345Y068981D01*
X116715Y068534D02*
X116813Y068436D01*
X116912Y068436D01*
X117010Y068534D01*
X117010Y069026D01*
X116912Y069026D02*
X117109Y069026D01*
X117360Y069026D02*
X117655Y069026D01*
X117753Y068928D01*
X117753Y068731D01*
X117655Y068633D01*
X117360Y068633D01*
X117360Y068436D02*
X117360Y069026D01*
X118004Y068928D02*
X118102Y069026D01*
X118299Y069026D01*
X118398Y068928D01*
X118398Y068830D01*
X118004Y068436D01*
X118398Y068436D01*
X118649Y068534D02*
X118747Y068436D01*
X118944Y068436D01*
X119042Y068534D01*
X119042Y068633D01*
X118944Y068731D01*
X118649Y068731D01*
X118649Y068534D01*
X118649Y068731D02*
X118845Y068928D01*
X119042Y069026D01*
X115360Y075686D02*
X115360Y075784D01*
X115753Y076178D01*
X115753Y076276D01*
X115360Y076276D01*
X115109Y076178D02*
X115010Y076276D01*
X114813Y076276D01*
X114715Y076178D01*
X114715Y075784D01*
X114813Y075686D01*
X115010Y075686D01*
X115109Y075784D01*
X110944Y081686D02*
X110944Y082276D01*
X110649Y081981D01*
X111042Y081981D01*
X110398Y081686D02*
X110004Y081686D01*
X110201Y081686D02*
X110201Y082276D01*
X110004Y082080D01*
X109753Y082178D02*
X109753Y081981D01*
X109655Y081883D01*
X109360Y081883D01*
X109360Y081686D02*
X109360Y082276D01*
X109655Y082276D01*
X109753Y082178D01*
X109109Y082276D02*
X108912Y082276D01*
X109010Y082276D02*
X109010Y081784D01*
X108912Y081686D01*
X108813Y081686D01*
X108715Y081784D01*
X104944Y093686D02*
X104747Y093686D01*
X104649Y093784D01*
X104649Y093981D02*
X104845Y094080D01*
X104944Y094080D01*
X105042Y093981D01*
X105042Y093784D01*
X104944Y093686D01*
X104649Y093981D02*
X104649Y094276D01*
X105042Y094276D01*
X104201Y094276D02*
X104201Y093686D01*
X104004Y093686D02*
X104398Y093686D01*
X104004Y094080D02*
X104201Y094276D01*
X103753Y094178D02*
X103753Y093981D01*
X103655Y093883D01*
X103360Y093883D01*
X103360Y093686D02*
X103360Y094276D01*
X103655Y094276D01*
X103753Y094178D01*
X103109Y094276D02*
X102912Y094276D01*
X103010Y094276D02*
X103010Y093784D01*
X102912Y093686D01*
X102813Y093686D01*
X102715Y093784D01*
X095944Y103686D02*
X096042Y103784D01*
X096042Y103883D01*
X095944Y103981D01*
X095649Y103981D01*
X095649Y103784D01*
X095747Y103686D01*
X095944Y103686D01*
X095649Y103981D02*
X095845Y104178D01*
X096042Y104276D01*
X095201Y104276D02*
X095201Y103686D01*
X095004Y103686D02*
X095398Y103686D01*
X095004Y104080D02*
X095201Y104276D01*
X094753Y104178D02*
X094753Y103981D01*
X094655Y103883D01*
X094360Y103883D01*
X094360Y103686D02*
X094360Y104276D01*
X094655Y104276D01*
X094753Y104178D01*
X094109Y104276D02*
X093912Y104276D01*
X094010Y104276D02*
X094010Y103784D01*
X093912Y103686D01*
X093813Y103686D01*
X093715Y103784D01*
X084649Y111186D02*
X084649Y111284D01*
X085042Y111678D01*
X085042Y111776D01*
X084649Y111776D01*
X084201Y111776D02*
X084201Y111186D01*
X084004Y111186D02*
X084398Y111186D01*
X084004Y111580D02*
X084201Y111776D01*
X083753Y111678D02*
X083753Y111481D01*
X083655Y111383D01*
X083360Y111383D01*
X083360Y111186D02*
X083360Y111776D01*
X083655Y111776D01*
X083753Y111678D01*
X083109Y111776D02*
X082912Y111776D01*
X083010Y111776D02*
X083010Y111284D01*
X082912Y111186D01*
X082813Y111186D01*
X082715Y111284D01*
X071042Y115784D02*
X070944Y115686D01*
X070747Y115686D01*
X070649Y115784D01*
X070649Y115883D01*
X070747Y115981D01*
X070944Y115981D01*
X071042Y115883D01*
X071042Y115784D01*
X070944Y115981D02*
X071042Y116080D01*
X071042Y116178D01*
X070944Y116276D01*
X070747Y116276D01*
X070649Y116178D01*
X070649Y116080D01*
X070747Y115981D01*
X070398Y115686D02*
X070004Y115686D01*
X070201Y115686D02*
X070201Y116276D01*
X070004Y116080D01*
X069753Y116178D02*
X069753Y115981D01*
X069655Y115883D01*
X069360Y115883D01*
X069360Y115686D02*
X069360Y116276D01*
X069655Y116276D01*
X069753Y116178D01*
X069109Y116276D02*
X068912Y116276D01*
X069010Y116276D02*
X069010Y115784D01*
X068912Y115686D01*
X068813Y115686D01*
X068715Y115784D01*
X057542Y116284D02*
X057542Y116678D01*
X057444Y116776D01*
X057247Y116776D01*
X057149Y116678D01*
X057149Y116580D01*
X057247Y116481D01*
X057542Y116481D01*
X057542Y116284D02*
X057444Y116186D01*
X057247Y116186D01*
X057149Y116284D01*
X056898Y116186D02*
X056504Y116186D01*
X056701Y116186D02*
X056701Y116776D01*
X056504Y116580D01*
X056253Y116678D02*
X056253Y116481D01*
X056155Y116383D01*
X055860Y116383D01*
X055860Y116186D02*
X055860Y116776D01*
X056155Y116776D01*
X056253Y116678D01*
X055609Y116776D02*
X055412Y116776D01*
X055510Y116776D02*
X055510Y116284D01*
X055412Y116186D01*
X055313Y116186D01*
X055215Y116284D01*
X042542Y113678D02*
X042149Y113284D01*
X042247Y113186D01*
X042444Y113186D01*
X042542Y113284D01*
X042542Y113678D01*
X042444Y113776D01*
X042247Y113776D01*
X042149Y113678D01*
X042149Y113284D01*
X041898Y113186D02*
X041504Y113186D01*
X041898Y113580D01*
X041898Y113678D01*
X041799Y113776D01*
X041602Y113776D01*
X041504Y113678D01*
X041253Y113678D02*
X041253Y113481D01*
X041155Y113383D01*
X040860Y113383D01*
X040860Y113186D02*
X040860Y113776D01*
X041155Y113776D01*
X041253Y113678D01*
X040609Y113776D02*
X040412Y113776D01*
X040510Y113776D02*
X040510Y113284D01*
X040412Y113186D01*
X040313Y113186D01*
X040215Y113284D01*
X030845Y108276D02*
X030845Y107686D01*
X030649Y107686D02*
X031042Y107686D01*
X030649Y108080D02*
X030845Y108276D01*
X030398Y108178D02*
X030299Y108276D01*
X030102Y108276D01*
X030004Y108178D01*
X029753Y108178D02*
X029753Y107981D01*
X029655Y107883D01*
X029360Y107883D01*
X029360Y107686D02*
X029360Y108276D01*
X029655Y108276D01*
X029753Y108178D01*
X030004Y107686D02*
X030398Y108080D01*
X030398Y108178D01*
X030398Y107686D02*
X030004Y107686D01*
X029010Y107784D02*
X029010Y108276D01*
X028912Y108276D02*
X029109Y108276D01*
X029010Y107784D02*
X028912Y107686D01*
X028813Y107686D01*
X028715Y107784D01*
X020444Y098776D02*
X020247Y098776D01*
X020149Y098678D01*
X019898Y098678D02*
X019799Y098776D01*
X019602Y098776D01*
X019504Y098678D01*
X019253Y098678D02*
X019253Y098481D01*
X019155Y098383D01*
X018860Y098383D01*
X018860Y098186D02*
X018860Y098776D01*
X019155Y098776D01*
X019253Y098678D01*
X019504Y098186D02*
X019898Y098580D01*
X019898Y098678D01*
X019898Y098186D02*
X019504Y098186D01*
X020149Y098186D02*
X020542Y098580D01*
X020542Y098678D01*
X020444Y098776D01*
X020542Y098186D02*
X020149Y098186D01*
X018510Y098284D02*
X018510Y098776D01*
X018412Y098776D02*
X018609Y098776D01*
X018510Y098284D02*
X018412Y098186D01*
X018313Y098186D01*
X018215Y098284D01*
X013444Y086276D02*
X013542Y086178D01*
X013542Y086080D01*
X013444Y085981D01*
X013542Y085883D01*
X013542Y085784D01*
X013444Y085686D01*
X013247Y085686D01*
X013149Y085784D01*
X012898Y085686D02*
X012504Y085686D01*
X012898Y086080D01*
X012898Y086178D01*
X012799Y086276D01*
X012602Y086276D01*
X012504Y086178D01*
X012253Y086178D02*
X012253Y085981D01*
X012155Y085883D01*
X011860Y085883D01*
X011860Y085686D02*
X011860Y086276D01*
X012155Y086276D01*
X012253Y086178D01*
X011609Y086276D02*
X011412Y086276D01*
X011510Y086276D02*
X011510Y085784D01*
X011412Y085686D01*
X011313Y085686D01*
X011215Y085784D01*
X013149Y086178D02*
X013247Y086276D01*
X013444Y086276D01*
X013444Y085981D02*
X013345Y085981D01*
X005655Y076276D02*
X005753Y076178D01*
X005753Y076080D01*
X005655Y075981D01*
X005753Y075883D01*
X005753Y075784D01*
X005655Y075686D01*
X005458Y075686D01*
X005360Y075784D01*
X005109Y075784D02*
X005010Y075686D01*
X004813Y075686D01*
X004715Y075784D01*
X004715Y076178D01*
X004813Y076276D01*
X005010Y076276D01*
X005109Y076178D01*
X005360Y076178D02*
X005458Y076276D01*
X005655Y076276D01*
X005655Y075981D02*
X005556Y075981D01*
X007412Y073276D02*
X007609Y073276D01*
X007510Y073276D02*
X007510Y072784D01*
X007412Y072686D01*
X007313Y072686D01*
X007215Y072784D01*
X007860Y072686D02*
X007860Y073276D01*
X008155Y073276D01*
X008253Y073178D01*
X008253Y072981D01*
X008155Y072883D01*
X007860Y072883D01*
X008504Y072686D02*
X008898Y073080D01*
X008898Y073178D01*
X008799Y073276D01*
X008602Y073276D01*
X008504Y073178D01*
X008504Y072686D02*
X008898Y072686D01*
X009149Y072981D02*
X009542Y072981D01*
X009444Y072686D02*
X009444Y073276D01*
X009149Y072981D01*
X005944Y068026D02*
X006042Y067928D01*
X005649Y067534D01*
X005747Y067436D01*
X005944Y067436D01*
X006042Y067534D01*
X006042Y067928D01*
X005944Y068026D02*
X005747Y068026D01*
X005649Y067928D01*
X005649Y067534D01*
X005398Y067436D02*
X005398Y067830D01*
X005201Y068026D01*
X005004Y067830D01*
X005004Y067436D01*
X004753Y067534D02*
X004753Y067928D01*
X004655Y068026D01*
X004360Y068026D01*
X004360Y067436D01*
X004655Y067436D01*
X004753Y067534D01*
X005004Y067731D02*
X005398Y067731D01*
X005201Y067026D02*
X005398Y066830D01*
X005398Y066436D01*
X005649Y066534D02*
X005747Y066436D01*
X005944Y066436D01*
X006042Y066534D01*
X006042Y066633D01*
X005944Y066731D01*
X005845Y066731D01*
X005944Y066731D02*
X006042Y066830D01*
X006042Y066928D01*
X005944Y067026D01*
X005747Y067026D01*
X005649Y066928D01*
X005398Y066731D02*
X005004Y066731D01*
X005004Y066830D02*
X005201Y067026D01*
X005004Y066830D02*
X005004Y066436D01*
X004753Y066534D02*
X004753Y066928D01*
X004655Y067026D01*
X004360Y067026D01*
X004360Y066436D01*
X004655Y066436D01*
X004753Y066534D01*
X004655Y066026D02*
X004360Y066026D01*
X004360Y065436D01*
X004655Y065436D01*
X004753Y065534D01*
X004753Y065928D01*
X004655Y066026D01*
X005004Y065830D02*
X005201Y066026D01*
X005398Y065830D01*
X005398Y065436D01*
X005649Y065534D02*
X005747Y065436D01*
X005944Y065436D01*
X006042Y065534D01*
X006042Y065633D01*
X005944Y065731D01*
X005845Y065731D01*
X005944Y065731D02*
X006042Y065830D01*
X006042Y065928D01*
X005944Y066026D01*
X005747Y066026D01*
X005649Y065928D01*
X005398Y065731D02*
X005004Y065731D01*
X005004Y065830D02*
X005004Y065436D01*
X004109Y065534D02*
X004010Y065436D01*
X003813Y065436D01*
X003715Y065534D01*
X003813Y065731D02*
X004010Y065731D01*
X004109Y065633D01*
X004109Y065534D01*
X003813Y065731D02*
X003715Y065830D01*
X003715Y065928D01*
X003813Y066026D01*
X004010Y066026D01*
X004109Y065928D01*
X004010Y066436D02*
X003813Y066436D01*
X003715Y066534D01*
X003813Y066731D02*
X004010Y066731D01*
X004109Y066633D01*
X004109Y066534D01*
X004010Y066436D01*
X003813Y066731D02*
X003715Y066830D01*
X003715Y066928D01*
X003813Y067026D01*
X004010Y067026D01*
X004109Y066928D01*
X004010Y067436D02*
X003813Y067436D01*
X003715Y067534D01*
X003813Y067731D02*
X004010Y067731D01*
X004109Y067633D01*
X004109Y067534D01*
X004010Y067436D01*
X003813Y067731D02*
X003715Y067830D01*
X003715Y067928D01*
X003813Y068026D01*
X004010Y068026D01*
X004109Y067928D01*
X003944Y068436D02*
X003747Y068436D01*
X003649Y068534D01*
X004042Y068928D01*
X004042Y068534D01*
X003944Y068436D01*
X003649Y068534D02*
X003649Y068928D01*
X003747Y069026D01*
X003944Y069026D01*
X004042Y068928D01*
X003398Y068928D02*
X003398Y068830D01*
X003299Y068731D01*
X003398Y068633D01*
X003398Y068534D01*
X003299Y068436D01*
X003102Y068436D01*
X003004Y068534D01*
X003201Y068731D02*
X003299Y068731D01*
X003398Y068928D02*
X003299Y069026D01*
X003102Y069026D01*
X003004Y068928D01*
X002753Y068928D02*
X002753Y068731D01*
X002655Y068633D01*
X002360Y068633D01*
X002360Y068436D02*
X002360Y069026D01*
X002655Y069026D01*
X002753Y068928D01*
X002109Y069026D02*
X001912Y069026D01*
X002010Y069026D02*
X002010Y068534D01*
X001912Y068436D01*
X001813Y068436D01*
X001715Y068534D01*
X003715Y064526D02*
X004010Y064526D01*
X004109Y064428D01*
X004109Y064330D01*
X004010Y064231D01*
X003715Y064231D01*
X003715Y063936D02*
X004010Y063936D01*
X004109Y064034D01*
X004109Y064133D01*
X004010Y064231D01*
X004360Y064034D02*
X004458Y063936D01*
X004655Y063936D01*
X004753Y064034D01*
X004753Y064526D01*
X005004Y064428D02*
X005004Y064330D01*
X005102Y064231D01*
X005299Y064231D01*
X005398Y064133D01*
X005398Y064034D01*
X005299Y063936D01*
X005102Y063936D01*
X005004Y064034D01*
X005004Y064428D02*
X005102Y064526D01*
X005299Y064526D01*
X005398Y064428D01*
X005649Y064428D02*
X005747Y064526D01*
X005944Y064526D01*
X006042Y064428D01*
X006042Y064330D01*
X005944Y064231D01*
X006042Y064133D01*
X006042Y064034D01*
X005944Y063936D01*
X005747Y063936D01*
X005649Y064034D01*
X005845Y064231D02*
X005944Y064231D01*
X005944Y063026D02*
X006042Y062928D01*
X005649Y062534D01*
X005747Y062436D01*
X005944Y062436D01*
X006042Y062534D01*
X006042Y062928D01*
X005944Y063026D02*
X005747Y063026D01*
X005649Y062928D01*
X005649Y062534D01*
X005398Y062436D02*
X005004Y062436D01*
X005004Y063026D01*
X004753Y062928D02*
X004655Y063026D01*
X004458Y063026D01*
X004360Y062928D01*
X004360Y062534D01*
X004458Y062436D01*
X004655Y062436D01*
X004753Y062534D01*
X004655Y062026D02*
X004458Y062026D01*
X004360Y061928D01*
X004360Y061534D01*
X004458Y061436D01*
X004655Y061436D01*
X004753Y061534D01*
X005004Y061436D02*
X005398Y061436D01*
X005649Y061534D02*
X005747Y061436D01*
X005944Y061436D01*
X006042Y061534D01*
X006042Y061633D01*
X005944Y061731D01*
X005845Y061731D01*
X005944Y061731D02*
X006042Y061830D01*
X006042Y061928D01*
X005944Y062026D01*
X005747Y062026D01*
X005649Y061928D01*
X006293Y061928D02*
X006391Y062026D01*
X006588Y062026D01*
X006687Y061928D01*
X006687Y061830D01*
X006588Y061731D01*
X006687Y061633D01*
X006687Y061534D01*
X006588Y061436D01*
X006391Y061436D01*
X006293Y061534D01*
X006490Y061731D02*
X006588Y061731D01*
X005944Y061026D02*
X006042Y060928D01*
X006042Y060830D01*
X005944Y060731D01*
X006042Y060633D01*
X006042Y060534D01*
X005944Y060436D01*
X005747Y060436D01*
X005649Y060534D01*
X005398Y060436D02*
X005004Y060436D01*
X005004Y061026D01*
X004753Y060928D02*
X004655Y061026D01*
X004458Y061026D01*
X004360Y060928D01*
X004360Y060534D01*
X004458Y060436D01*
X004655Y060436D01*
X004753Y060534D01*
X004109Y060534D02*
X004010Y060436D01*
X003813Y060436D01*
X003715Y060534D01*
X003813Y060731D02*
X004010Y060731D01*
X004109Y060633D01*
X004109Y060534D01*
X003813Y060731D02*
X003715Y060830D01*
X003715Y060928D01*
X003813Y061026D01*
X004010Y061026D01*
X004109Y060928D01*
X004010Y061436D02*
X003813Y061436D01*
X003715Y061534D01*
X003813Y061731D02*
X004010Y061731D01*
X004109Y061633D01*
X004109Y061534D01*
X004010Y061436D01*
X003813Y061731D02*
X003715Y061830D01*
X003715Y061928D01*
X003813Y062026D01*
X004010Y062026D01*
X004109Y061928D01*
X004010Y062436D02*
X003813Y062436D01*
X003715Y062534D01*
X003813Y062731D02*
X004010Y062731D01*
X004109Y062633D01*
X004109Y062534D01*
X004010Y062436D01*
X003813Y062731D02*
X003715Y062830D01*
X003715Y062928D01*
X003813Y063026D01*
X004010Y063026D01*
X004109Y062928D01*
X004655Y062026D02*
X004753Y061928D01*
X005004Y062026D02*
X005004Y061436D01*
X005649Y060928D02*
X005747Y061026D01*
X005944Y061026D01*
X005944Y060731D02*
X005845Y060731D01*
X007215Y059284D02*
X007313Y059186D01*
X007412Y059186D01*
X007510Y059284D01*
X007510Y059776D01*
X007412Y059776D02*
X007609Y059776D01*
X007860Y059776D02*
X008155Y059776D01*
X008253Y059678D01*
X008253Y059481D01*
X008155Y059383D01*
X007860Y059383D01*
X007860Y059186D02*
X007860Y059776D01*
X008504Y059580D02*
X008701Y059776D01*
X008701Y059186D01*
X008504Y059186D02*
X008898Y059186D01*
X004042Y059678D02*
X003649Y059284D01*
X003649Y059186D01*
X003398Y059186D02*
X003004Y059186D01*
X003398Y059580D01*
X003398Y059678D01*
X003299Y059776D01*
X003102Y059776D01*
X003004Y059678D01*
X002753Y059678D02*
X002753Y059481D01*
X002655Y059383D01*
X002360Y059383D01*
X002360Y059186D02*
X002360Y059776D01*
X002655Y059776D01*
X002753Y059678D01*
X002109Y059776D02*
X001912Y059776D01*
X002010Y059776D02*
X002010Y059284D01*
X001912Y059186D01*
X001813Y059186D01*
X001715Y059284D01*
X003649Y059776D02*
X004042Y059776D01*
X004042Y059678D01*
X003715Y063936D02*
X003715Y064526D01*
X004360Y064526D02*
X004360Y064034D01*
X006391Y066436D02*
X006293Y066534D01*
X006391Y066436D02*
X006588Y066436D01*
X006687Y066534D01*
X006687Y066633D01*
X006588Y066731D01*
X006490Y066731D01*
X006588Y066731D02*
X006687Y066830D01*
X006687Y066928D01*
X006588Y067026D01*
X006391Y067026D01*
X006293Y066928D01*
X005655Y046276D02*
X005360Y045981D01*
X005753Y045981D01*
X005655Y045686D02*
X005655Y046276D01*
X005109Y046178D02*
X005010Y046276D01*
X004813Y046276D01*
X004715Y046178D01*
X004715Y045784D01*
X004813Y045686D01*
X005010Y045686D01*
X005109Y045784D01*
X010715Y045784D02*
X010813Y045686D01*
X010912Y045686D01*
X011010Y045784D01*
X011010Y046276D01*
X010912Y046276D02*
X011109Y046276D01*
X011360Y046276D02*
X011655Y046276D01*
X011753Y046178D01*
X011753Y045981D01*
X011655Y045883D01*
X011360Y045883D01*
X011360Y045686D02*
X011360Y046276D01*
X012004Y046178D02*
X012102Y046276D01*
X012299Y046276D01*
X012398Y046178D01*
X012398Y046080D01*
X012004Y045686D01*
X012398Y045686D01*
X005753Y100686D02*
X005360Y100686D01*
X005753Y101080D01*
X005753Y101178D01*
X005655Y101276D01*
X005458Y101276D01*
X005360Y101178D01*
X005109Y101178D02*
X005010Y101276D01*
X004813Y101276D01*
X004715Y101178D01*
X004715Y100784D01*
X004813Y100686D01*
X005010Y100686D01*
X005109Y100784D01*
X114215Y015428D02*
X114215Y015034D01*
X114313Y014936D01*
X114510Y014936D01*
X114609Y015034D01*
X114609Y015231D01*
X114412Y015231D01*
X114609Y015428D02*
X114510Y015526D01*
X114313Y015526D01*
X114215Y015428D01*
X114860Y015526D02*
X115253Y014936D01*
X115253Y015526D01*
X115504Y015526D02*
X115799Y015526D01*
X115898Y015428D01*
X115898Y015034D01*
X115799Y014936D01*
X115504Y014936D01*
X115504Y015526D01*
X114860Y015526D02*
X114860Y014936D01*
X114813Y023186D02*
X115010Y023186D01*
X115109Y023284D01*
X115360Y023284D02*
X115458Y023186D01*
X115655Y023186D01*
X115753Y023284D01*
X115753Y023481D01*
X115655Y023580D01*
X115556Y023580D01*
X115360Y023481D01*
X115360Y023776D01*
X115753Y023776D01*
X115109Y023678D02*
X115010Y023776D01*
X114813Y023776D01*
X114715Y023678D01*
X114715Y023284D01*
X114813Y023186D01*
X114813Y100686D02*
X115010Y100686D01*
X115109Y100784D01*
X115360Y100784D02*
X115360Y100883D01*
X115458Y100981D01*
X115655Y100981D01*
X115753Y100883D01*
X115753Y100784D01*
X115655Y100686D01*
X115458Y100686D01*
X115360Y100784D01*
X115458Y100981D02*
X115360Y101080D01*
X115360Y101178D01*
X115458Y101276D01*
X115655Y101276D01*
X115753Y101178D01*
X115753Y101080D01*
X115655Y100981D01*
X115109Y101178D02*
X115010Y101276D01*
X114813Y101276D01*
X114715Y101178D01*
X114715Y100784D01*
X114813Y100686D01*
D12*
X103564Y095915D02*
X103423Y096057D01*
X103139Y096057D01*
X102997Y095915D01*
X102644Y095915D02*
X102502Y096057D01*
X102218Y096057D01*
X102076Y095915D01*
X102076Y095773D01*
X102218Y095631D01*
X102502Y095631D01*
X102644Y095490D01*
X102644Y095348D01*
X102502Y095206D01*
X102218Y095206D01*
X102076Y095348D01*
X101723Y095348D02*
X101723Y096057D01*
X101156Y096057D02*
X101156Y095348D01*
X101298Y095206D01*
X101581Y095206D01*
X101723Y095348D01*
X100802Y095348D02*
X100660Y095206D01*
X100235Y095206D01*
X100235Y096057D01*
X100660Y096057D01*
X100802Y095915D01*
X100802Y095773D01*
X100660Y095631D01*
X100235Y095631D01*
X100660Y095631D02*
X100802Y095490D01*
X100802Y095348D01*
X102997Y095206D02*
X103564Y095773D01*
X103564Y095915D01*
X103564Y095206D02*
X102997Y095206D01*
X102680Y121706D02*
X102113Y121706D01*
X102680Y122273D01*
X102680Y122415D01*
X102539Y122557D01*
X102255Y122557D01*
X102113Y122415D01*
X101760Y122415D02*
X101192Y121848D01*
X101334Y121706D01*
X101618Y121706D01*
X101760Y121848D01*
X101760Y122415D01*
X101618Y122557D01*
X101334Y122557D01*
X101192Y122415D01*
X101192Y121848D01*
X100839Y121848D02*
X100697Y121706D01*
X100414Y121706D01*
X100272Y121848D01*
X100839Y122415D01*
X100839Y121848D01*
X100839Y122415D02*
X100697Y122557D01*
X100414Y122557D01*
X100272Y122415D01*
X100272Y121848D01*
X099918Y121848D02*
X099776Y121706D01*
X099493Y121706D01*
X099351Y121848D01*
X099918Y122415D01*
X099918Y121848D01*
X099918Y122415D02*
X099776Y122557D01*
X099493Y122557D01*
X099351Y122415D01*
X099351Y121848D01*
X098997Y121706D02*
X098997Y122273D01*
X098714Y122557D01*
X098430Y122273D01*
X098430Y121706D01*
X098430Y122131D02*
X098997Y122131D01*
X098077Y122557D02*
X097509Y122557D01*
X097509Y121706D01*
X097509Y122131D02*
X097793Y122131D01*
X097156Y122131D02*
X096589Y122131D01*
X096235Y122131D02*
X096093Y121990D01*
X095668Y121990D01*
X095952Y121990D02*
X096235Y121706D01*
X096235Y122131D02*
X096235Y122415D01*
X096093Y122557D01*
X095668Y122557D01*
X095668Y121706D01*
X095314Y121706D02*
X095314Y122557D01*
X095031Y122273D01*
X094747Y122557D01*
X094747Y121706D01*
X094394Y122131D02*
X093826Y122131D01*
X093473Y122557D02*
X092906Y122557D01*
X092906Y121706D01*
X092906Y122131D02*
X093189Y122131D01*
X092552Y122557D02*
X092269Y122557D01*
X092410Y122557D02*
X092410Y121848D01*
X092269Y121706D01*
X092127Y121706D01*
X091985Y121848D01*
X080595Y121848D02*
X080454Y121706D01*
X080170Y121706D01*
X080028Y121848D01*
X080595Y122415D01*
X080595Y121848D01*
X080028Y121848D02*
X080028Y122415D01*
X080170Y122557D01*
X080454Y122557D01*
X080595Y122415D01*
X079675Y121706D02*
X079107Y121706D01*
X079391Y121706D02*
X079391Y122557D01*
X079107Y122273D01*
X078754Y122415D02*
X078187Y121848D01*
X078328Y121706D01*
X078612Y121706D01*
X078754Y121848D01*
X078754Y122415D01*
X078612Y122557D01*
X078328Y122557D01*
X078187Y122415D01*
X078187Y121848D01*
X077833Y121706D02*
X077266Y121706D01*
X077833Y122273D01*
X077833Y122415D01*
X077691Y122557D01*
X077408Y122557D01*
X077266Y122415D01*
X075992Y122273D02*
X075566Y122273D01*
X075424Y122131D01*
X075566Y121990D01*
X075850Y121990D01*
X075992Y121848D01*
X075850Y121706D01*
X075424Y121706D01*
X075071Y121706D02*
X075071Y122273D01*
X075071Y121706D02*
X074645Y121706D01*
X074504Y121848D01*
X074504Y122273D01*
X074150Y122131D02*
X074150Y121848D01*
X074008Y121706D01*
X073583Y121706D01*
X073583Y121422D02*
X073583Y122273D01*
X074008Y122273D01*
X074150Y122131D01*
X073229Y122131D02*
X073229Y121706D01*
X072946Y121706D02*
X072946Y122131D01*
X073088Y122273D01*
X073229Y122131D01*
X072946Y122131D02*
X072804Y122273D01*
X072662Y122273D01*
X072662Y121706D01*
X072309Y121706D02*
X071883Y121706D01*
X071741Y121848D01*
X071883Y121990D01*
X072309Y121990D01*
X072309Y122131D02*
X072309Y121706D01*
X072309Y122131D02*
X072167Y122273D01*
X071883Y122273D01*
X071388Y122415D02*
X071246Y122557D01*
X070962Y122557D01*
X070821Y122415D01*
X070821Y121848D01*
X070962Y121706D01*
X071246Y121706D01*
X071388Y121848D01*
X071258Y121057D02*
X070974Y121057D01*
X071116Y121057D02*
X071116Y120206D01*
X070974Y120206D02*
X071258Y120206D01*
X071588Y120206D02*
X071588Y120773D01*
X072013Y120773D01*
X072155Y120631D01*
X072155Y120206D01*
X072509Y120206D02*
X072934Y120206D01*
X073076Y120348D01*
X072934Y120490D01*
X072650Y120490D01*
X072509Y120631D01*
X072650Y120773D01*
X073076Y120773D01*
X073429Y120773D02*
X073713Y120773D01*
X073571Y120915D02*
X073571Y120348D01*
X073713Y120206D01*
X074043Y120206D02*
X074327Y120206D01*
X074185Y120206D02*
X074185Y120773D01*
X074043Y120773D01*
X074185Y121057D02*
X074185Y121199D01*
X074657Y120773D02*
X074941Y120773D01*
X074799Y120915D02*
X074799Y120348D01*
X074941Y120206D01*
X075271Y120348D02*
X075413Y120206D01*
X075838Y120206D01*
X075838Y120773D01*
X076192Y120773D02*
X076475Y120773D01*
X076333Y120915D02*
X076333Y120348D01*
X076475Y120206D01*
X076805Y120348D02*
X076805Y120631D01*
X076947Y120773D01*
X077231Y120773D01*
X077373Y120631D01*
X077373Y120490D01*
X076805Y120490D01*
X076805Y120348D02*
X076947Y120206D01*
X077231Y120206D01*
X075271Y120348D02*
X075271Y120773D01*
X069723Y120206D02*
X069440Y120206D01*
X069581Y120206D02*
X069581Y121057D01*
X069440Y121057D01*
X069086Y120631D02*
X069086Y120206D01*
X068661Y120206D01*
X068519Y120348D01*
X068661Y120490D01*
X069086Y120490D01*
X069086Y120631D02*
X068944Y120773D01*
X068661Y120773D01*
X068165Y120773D02*
X067740Y120773D01*
X067598Y120631D01*
X067598Y120348D01*
X067740Y120206D01*
X068165Y120206D01*
X067268Y120206D02*
X066984Y120206D01*
X067126Y120206D02*
X067126Y120773D01*
X066984Y120773D01*
X067126Y121057D02*
X067126Y121199D01*
X066631Y121057D02*
X066631Y120206D01*
X066205Y120206D01*
X066064Y120348D01*
X066064Y120631D01*
X066205Y120773D01*
X066631Y120773D01*
X065710Y120631D02*
X065710Y120490D01*
X065143Y120490D01*
X065143Y120631D02*
X065143Y120348D01*
X065285Y120206D01*
X065568Y120206D01*
X065710Y120631D02*
X065568Y120773D01*
X065285Y120773D01*
X065143Y120631D01*
X064789Y121057D02*
X064789Y120206D01*
X064222Y120206D02*
X064222Y121057D01*
X064506Y120773D01*
X064789Y121057D01*
X064954Y121706D02*
X065096Y121848D01*
X064954Y121990D01*
X064671Y121990D01*
X064529Y122131D01*
X064671Y122273D01*
X065096Y122273D01*
X065450Y122131D02*
X065591Y122273D01*
X065875Y122273D01*
X066017Y122131D01*
X066017Y121990D01*
X065450Y121990D01*
X065450Y122131D02*
X065450Y121848D01*
X065591Y121706D01*
X065875Y121706D01*
X066370Y121848D02*
X066512Y121990D01*
X066938Y121990D01*
X066938Y122131D02*
X066938Y121706D01*
X066512Y121706D01*
X066370Y121848D01*
X066512Y122273D02*
X066796Y122273D01*
X066938Y122131D01*
X067291Y121990D02*
X067575Y122273D01*
X067716Y122273D01*
X068058Y122131D02*
X068058Y121848D01*
X068200Y121706D01*
X068626Y121706D01*
X068979Y121706D02*
X068979Y122557D01*
X069121Y122273D02*
X069405Y122273D01*
X069546Y122131D01*
X069546Y121706D01*
X068979Y122131D02*
X069121Y122273D01*
X068626Y122273D02*
X068200Y122273D01*
X068058Y122131D01*
X067291Y122273D02*
X067291Y121706D01*
X064954Y121706D02*
X064529Y121706D01*
X064175Y121990D02*
X063608Y121990D01*
X063608Y122131D02*
X063750Y122273D01*
X064034Y122273D01*
X064175Y122131D01*
X064175Y121990D01*
X064034Y121706D02*
X063750Y121706D01*
X063608Y121848D01*
X063608Y122131D01*
X063255Y122131D02*
X063113Y121990D01*
X062687Y121990D01*
X062971Y121990D02*
X063255Y121706D01*
X063255Y122131D02*
X063255Y122415D01*
X063113Y122557D01*
X062687Y122557D01*
X062687Y121706D01*
X062522Y120773D02*
X062948Y120773D01*
X062806Y120490D02*
X062522Y120490D01*
X062381Y120631D01*
X062522Y120773D01*
X062806Y120490D02*
X062948Y120348D01*
X062806Y120206D01*
X062381Y120206D01*
X062027Y120490D02*
X061460Y120490D01*
X061460Y120631D02*
X061460Y120348D01*
X061602Y120206D01*
X061885Y120206D01*
X062027Y120490D02*
X062027Y120631D01*
X061885Y120773D01*
X061602Y120773D01*
X061460Y120631D01*
X061106Y120631D02*
X061106Y120206D01*
X061106Y120631D02*
X060964Y120773D01*
X060681Y120773D01*
X060539Y120631D01*
X060185Y120773D02*
X059760Y120773D01*
X059618Y120631D01*
X059618Y120348D01*
X059760Y120206D01*
X060185Y120206D01*
X060185Y120064D02*
X060185Y120773D01*
X060539Y121057D02*
X060539Y120206D01*
X060185Y120064D02*
X060044Y119922D01*
X059902Y119922D01*
X059265Y120206D02*
X059265Y120773D01*
X059265Y120206D02*
X058839Y120206D01*
X058698Y120348D01*
X058698Y120773D01*
X058344Y120631D02*
X057777Y120631D01*
X057777Y120206D02*
X057777Y121057D01*
X058344Y121057D02*
X058344Y120206D01*
X058237Y121706D02*
X058237Y122557D01*
X058804Y122557D01*
X058521Y122131D02*
X058237Y122131D01*
X059158Y121848D02*
X059300Y121706D01*
X059725Y121706D01*
X059725Y122131D01*
X059583Y122273D01*
X059300Y122273D01*
X059300Y121990D02*
X059725Y121990D01*
X060079Y121990D02*
X060362Y122273D01*
X060504Y122273D01*
X060846Y122273D02*
X060988Y122273D01*
X061129Y122131D01*
X061271Y122273D01*
X061413Y122131D01*
X061413Y121706D01*
X061129Y121706D02*
X061129Y122131D01*
X060846Y122273D02*
X060846Y121706D01*
X060079Y121706D02*
X060079Y122273D01*
X059300Y121990D02*
X059158Y121848D01*
X056963Y121990D02*
X056537Y121990D01*
X056396Y121848D01*
X056537Y121706D01*
X056963Y121706D01*
X056963Y122131D01*
X056821Y122273D01*
X056537Y122273D01*
X055924Y122273D02*
X055924Y121706D01*
X056065Y121706D02*
X055782Y121706D01*
X055452Y121706D02*
X055168Y121706D01*
X055310Y121706D02*
X055310Y122557D01*
X055168Y122557D01*
X054814Y122131D02*
X054814Y121990D01*
X054247Y121990D01*
X054247Y122131D02*
X054389Y122273D01*
X054673Y122273D01*
X054814Y122131D01*
X054673Y121706D02*
X054389Y121706D01*
X054247Y121848D01*
X054247Y122131D01*
X053894Y122131D02*
X053894Y121706D01*
X053894Y122131D02*
X053752Y122273D01*
X053326Y122273D01*
X053326Y121706D01*
X052973Y121706D02*
X052548Y121706D01*
X052406Y121848D01*
X052548Y121990D01*
X052973Y121990D01*
X052973Y122131D02*
X052973Y121706D01*
X052973Y122131D02*
X052831Y122273D01*
X052548Y122273D01*
X052052Y122557D02*
X051769Y122557D01*
X051910Y122557D02*
X051910Y121848D01*
X051769Y121706D01*
X051627Y121706D01*
X051485Y121848D01*
X051485Y121057D02*
X051485Y120206D01*
X051485Y120631D02*
X052052Y120631D01*
X052406Y120631D02*
X052406Y120348D01*
X052548Y120206D01*
X052831Y120206D01*
X052973Y120348D01*
X052973Y120631D01*
X052831Y120773D01*
X052548Y120773D01*
X052406Y120631D01*
X052052Y121057D02*
X052052Y120206D01*
X053326Y120348D02*
X053326Y120773D01*
X053326Y120348D02*
X053468Y120206D01*
X053610Y120348D01*
X053752Y120206D01*
X053894Y120348D01*
X053894Y120773D01*
X054389Y120773D02*
X054673Y120773D01*
X054814Y120631D01*
X054814Y120206D01*
X054389Y120206D01*
X054247Y120348D01*
X054389Y120490D01*
X054814Y120490D01*
X055168Y120490D02*
X055452Y120773D01*
X055593Y120773D01*
X055935Y120631D02*
X056077Y120773D01*
X056502Y120773D01*
X056502Y121057D02*
X056502Y120206D01*
X056077Y120206D01*
X055935Y120348D01*
X055935Y120631D01*
X055168Y120773D02*
X055168Y120206D01*
X055782Y122273D02*
X055924Y122273D01*
X055924Y122557D02*
X055924Y122699D01*
X030064Y105415D02*
X030064Y105273D01*
X029923Y105131D01*
X030064Y104990D01*
X030064Y104848D01*
X029923Y104706D01*
X029639Y104706D01*
X029497Y104848D01*
X029144Y104848D02*
X029002Y104706D01*
X028718Y104706D01*
X028576Y104848D01*
X028718Y105131D02*
X029002Y105131D01*
X029144Y104990D01*
X029144Y104848D01*
X028718Y105131D02*
X028576Y105273D01*
X028576Y105415D01*
X028718Y105557D01*
X029002Y105557D01*
X029144Y105415D01*
X029497Y105415D02*
X029639Y105557D01*
X029923Y105557D01*
X030064Y105415D01*
X029923Y105131D02*
X029781Y105131D01*
X028223Y104848D02*
X028223Y105557D01*
X027656Y105557D02*
X027656Y104848D01*
X027798Y104706D01*
X028081Y104706D01*
X028223Y104848D01*
X027302Y104848D02*
X027160Y104706D01*
X026735Y104706D01*
X026735Y105557D01*
X027160Y105557D01*
X027302Y105415D01*
X027302Y105273D01*
X027160Y105131D01*
X026735Y105131D01*
X027160Y105131D02*
X027302Y104990D01*
X027302Y104848D01*
X020423Y032557D02*
X020564Y032415D01*
X019997Y031848D01*
X020139Y031706D01*
X020423Y031706D01*
X020564Y031848D01*
X020564Y032415D01*
X020423Y032557D02*
X020139Y032557D01*
X019997Y032415D01*
X019997Y031848D01*
X019644Y031848D02*
X019502Y031706D01*
X019218Y031706D01*
X019076Y031848D01*
X019218Y032131D02*
X019502Y032131D01*
X019644Y031990D01*
X019644Y031848D01*
X019218Y032131D02*
X019076Y032273D01*
X019076Y032415D01*
X019218Y032557D01*
X019502Y032557D01*
X019644Y032415D01*
X018723Y032557D02*
X018723Y031848D01*
X018581Y031706D01*
X018298Y031706D01*
X018156Y031848D01*
X018156Y032557D01*
X017802Y032415D02*
X017802Y032273D01*
X017660Y032131D01*
X017235Y032131D01*
X017235Y031706D02*
X017660Y031706D01*
X017802Y031848D01*
X017802Y031990D01*
X017660Y032131D01*
X017802Y032415D02*
X017660Y032557D01*
X017235Y032557D01*
X017235Y031706D01*
X091235Y024057D02*
X091235Y023206D01*
X091660Y023206D01*
X091802Y023348D01*
X091802Y023490D01*
X091660Y023631D01*
X091235Y023631D01*
X091660Y023631D02*
X091802Y023773D01*
X091802Y023915D01*
X091660Y024057D01*
X091235Y024057D01*
X092156Y024057D02*
X092156Y023348D01*
X092298Y023206D01*
X092581Y023206D01*
X092723Y023348D01*
X092723Y024057D01*
X093076Y023915D02*
X093076Y023773D01*
X093218Y023631D01*
X093502Y023631D01*
X093644Y023490D01*
X093644Y023348D01*
X093502Y023206D01*
X093218Y023206D01*
X093076Y023348D01*
X093076Y023915D02*
X093218Y024057D01*
X093502Y024057D01*
X093644Y023915D01*
X093997Y023773D02*
X094281Y024057D01*
X094281Y023206D01*
X094564Y023206D02*
X093997Y023206D01*
X103955Y121706D02*
X103955Y122557D01*
X104380Y122557D01*
X104522Y122415D01*
X104522Y122131D01*
X104380Y121990D01*
X103955Y121990D01*
X104238Y121990D02*
X104522Y121706D01*
X104875Y121848D02*
X104875Y122131D01*
X105017Y122273D01*
X105301Y122273D01*
X105443Y122131D01*
X105443Y121990D01*
X104875Y121990D01*
X104875Y121848D02*
X105017Y121706D01*
X105301Y121706D01*
X105796Y122273D02*
X106080Y121706D01*
X106363Y122273D01*
X107638Y122273D02*
X107638Y121706D01*
X107638Y122131D02*
X108205Y122131D01*
X108205Y122273D02*
X108205Y121706D01*
X108205Y122273D02*
X107921Y122557D01*
X107638Y122273D01*
D13*
X069160Y113131D02*
X071529Y112635D01*
X073870Y112023D01*
X076179Y111298D01*
X078450Y110462D01*
X080677Y109515D01*
X082856Y108461D01*
X084980Y107303D01*
X087046Y106042D01*
X089048Y104682D01*
X090981Y103226D01*
X092841Y101677D01*
X094623Y100040D01*
X096323Y098318D01*
X097937Y096515D01*
X099462Y094635D01*
X100893Y092684D01*
X102227Y090665D01*
X103461Y088583D01*
X104592Y086444D01*
X105618Y084252D01*
X106536Y082012D01*
X107343Y079731D01*
X108038Y077413D01*
X108620Y075064D01*
X109086Y072689D01*
X109436Y070295D01*
X109669Y067886D01*
X109784Y065468D01*
X109781Y063048D01*
X109660Y060631D01*
X109160Y055131D02*
X108664Y052762D01*
X108052Y050421D01*
X107327Y048112D01*
X106491Y045841D01*
X105544Y043614D01*
X104490Y041435D01*
X103332Y039311D01*
X102071Y037245D01*
X100711Y035243D01*
X099255Y033310D01*
X097706Y031450D01*
X096069Y029668D01*
X094347Y027968D01*
X092544Y026354D01*
X090664Y024829D01*
X088713Y023398D01*
X086694Y022064D01*
X084612Y020830D01*
X082473Y019699D01*
X080281Y018673D01*
X078041Y017755D01*
X075760Y016948D01*
X073442Y016253D01*
X071093Y015671D01*
X068718Y015205D01*
X066324Y014855D01*
X063915Y014622D01*
X061497Y014507D01*
X059077Y014510D01*
X056660Y014631D01*
X051160Y015130D02*
X048774Y015630D01*
X046416Y016247D01*
X044091Y016979D01*
X041805Y017824D01*
X039563Y018780D01*
X037370Y019844D01*
X035232Y021016D01*
X033155Y022290D01*
X031142Y023665D01*
X029199Y025137D01*
X027331Y026703D01*
X025542Y028358D01*
X023836Y030099D01*
X022218Y031922D01*
X020691Y033821D01*
X019259Y035794D01*
X017925Y037834D01*
X016693Y039937D01*
X015566Y042099D01*
X014546Y044312D01*
X013636Y046574D01*
X012838Y048877D01*
X012154Y051216D01*
X011586Y053587D01*
X011134Y055982D01*
X010801Y058396D01*
X010586Y060824D01*
X010491Y063260D01*
X010516Y065697D01*
X010660Y068131D01*
X011160Y073131D02*
X011656Y075500D01*
X012268Y077841D01*
X012993Y080150D01*
X013829Y082421D01*
X014776Y084648D01*
X015830Y086827D01*
X016988Y088951D01*
X018249Y091017D01*
X019609Y093019D01*
X021065Y094952D01*
X022614Y096812D01*
X024251Y098594D01*
X025973Y100294D01*
X027776Y101908D01*
X029656Y103433D01*
X031607Y104864D01*
X033626Y106198D01*
X035708Y107432D01*
X037847Y108563D01*
X040039Y109589D01*
X042279Y110507D01*
X044560Y111314D01*
X046878Y112009D01*
X049227Y112591D01*
X051602Y113057D01*
X053996Y113407D01*
X056405Y113640D01*
X058823Y113755D01*
X061243Y113752D01*
X063660Y113631D01*
D14*
X063910Y114784D02*
X063410Y114784D01*
X063160Y115034D01*
X062910Y114784D01*
X062410Y114784D01*
X062160Y115034D01*
X061910Y114784D01*
X061410Y114784D01*
X061160Y115034D01*
X060910Y114784D01*
X060410Y114784D01*
X060160Y115034D01*
X059910Y114784D01*
X059410Y114784D01*
X059160Y115034D01*
X058910Y114784D01*
X058410Y114784D01*
X058160Y115034D01*
X057910Y114784D01*
X057410Y114784D01*
X057160Y115034D01*
X056910Y114784D01*
X056410Y114784D01*
X056160Y115034D01*
X056160Y115534D01*
X056410Y115784D01*
X056910Y115784D01*
X057160Y115534D01*
X057410Y115784D01*
X057910Y115784D01*
X058160Y115534D01*
X058410Y115784D01*
X058910Y115784D01*
X059160Y115534D01*
X059410Y115784D01*
X059910Y115784D01*
X060160Y115534D01*
X060410Y115784D01*
X060910Y115784D01*
X061160Y115534D01*
X061410Y115784D01*
X061910Y115784D01*
X062160Y115534D01*
X062410Y115784D01*
X062910Y115784D01*
X063160Y115534D01*
X063410Y115784D01*
X063910Y115784D01*
X064160Y115534D01*
X064160Y115034D01*
X063910Y114784D01*
X069471Y114335D02*
X069648Y114029D01*
X070131Y113899D01*
X070437Y114076D01*
X070614Y113770D01*
X071096Y113640D01*
X071403Y113817D01*
X071579Y113511D01*
X072062Y113381D01*
X072369Y113558D01*
X072545Y113252D01*
X073028Y113123D01*
X073335Y113299D01*
X073511Y112993D01*
X073994Y112864D01*
X074300Y113041D01*
X074477Y112734D01*
X074960Y112605D01*
X075266Y112782D01*
X075443Y112476D01*
X075926Y112346D01*
X076232Y112523D01*
X076409Y112217D01*
X076892Y112087D01*
X077198Y112264D01*
X077328Y112747D01*
X077151Y113053D01*
X076668Y113183D01*
X076362Y113006D01*
X076185Y113312D01*
X075702Y113441D01*
X075396Y113265D01*
X075219Y113571D01*
X074736Y113700D01*
X074430Y113524D01*
X074253Y113830D01*
X073770Y113959D01*
X073464Y113782D01*
X073287Y114089D01*
X072804Y114218D01*
X072498Y114041D01*
X072321Y114347D01*
X071838Y114477D01*
X071532Y114300D01*
X071355Y114606D01*
X070872Y114736D01*
X070566Y114559D01*
X070389Y114865D01*
X069906Y114994D01*
X069600Y114818D01*
X069471Y114335D01*
X082148Y110214D02*
X082239Y109873D01*
X082672Y109623D01*
X083014Y109714D01*
X083105Y109373D01*
X083538Y109123D01*
X083880Y109214D01*
X083971Y108873D01*
X084404Y108623D01*
X084746Y108714D01*
X084837Y108373D01*
X085270Y108123D01*
X085612Y108214D01*
X085703Y107873D01*
X086136Y107623D01*
X086478Y107714D01*
X086569Y107373D01*
X087002Y107123D01*
X087344Y107214D01*
X087435Y106873D01*
X087868Y106623D01*
X088210Y106714D01*
X088301Y106373D01*
X088734Y106123D01*
X089076Y106214D01*
X089326Y106648D01*
X089234Y106989D01*
X088801Y107239D01*
X088460Y107148D01*
X088368Y107489D01*
X087935Y107739D01*
X087594Y107648D01*
X087502Y107989D01*
X087069Y108239D01*
X086728Y108148D01*
X086636Y108489D01*
X086203Y108739D01*
X085862Y108648D01*
X085770Y108989D01*
X085337Y109239D01*
X084996Y109148D01*
X084904Y109489D01*
X084471Y109739D01*
X084130Y109648D01*
X084038Y109989D01*
X083605Y110239D01*
X083264Y110148D01*
X083172Y110489D01*
X082739Y110739D01*
X082398Y110648D01*
X082148Y110214D01*
X093326Y102954D02*
X093326Y102600D01*
X093679Y102246D01*
X094033Y102246D01*
X094033Y101893D01*
X094387Y101539D01*
X094740Y101539D01*
X094740Y101186D01*
X095094Y100832D01*
X095447Y100832D01*
X095447Y100479D01*
X095801Y100125D01*
X096154Y100125D01*
X096154Y099772D01*
X096508Y099418D01*
X096861Y099418D01*
X096861Y099064D01*
X097215Y098711D01*
X097569Y098711D01*
X097569Y098357D01*
X097922Y098004D01*
X098276Y098004D01*
X098276Y097650D01*
X098629Y097297D01*
X098983Y097297D01*
X099336Y097650D01*
X099336Y098004D01*
X098983Y098357D01*
X098629Y098357D01*
X098629Y098711D01*
X098276Y099064D01*
X097922Y099064D01*
X097922Y099418D01*
X097569Y099772D01*
X097215Y099772D01*
X097215Y100125D01*
X096861Y100479D01*
X096508Y100479D01*
X096508Y100832D01*
X096154Y101186D01*
X095801Y101186D01*
X095801Y101539D01*
X095447Y101893D01*
X095094Y101893D01*
X095094Y102246D01*
X094740Y102600D01*
X094387Y102600D01*
X094387Y102954D01*
X094033Y103307D01*
X093679Y103307D01*
X093326Y102954D01*
X102243Y093047D02*
X102152Y092706D01*
X102402Y092273D01*
X102743Y092181D01*
X102652Y091840D01*
X102902Y091407D01*
X103243Y091315D01*
X103152Y090974D01*
X103402Y090541D01*
X103743Y090449D01*
X103652Y090108D01*
X103902Y089675D01*
X104243Y089583D01*
X104152Y089242D01*
X104402Y088809D01*
X104743Y088717D01*
X104652Y088376D01*
X104902Y087943D01*
X105243Y087851D01*
X105152Y087510D01*
X105402Y087076D01*
X105743Y086985D01*
X105652Y086644D01*
X105902Y086210D01*
X106243Y086119D01*
X106676Y086369D01*
X106768Y086710D01*
X106518Y087144D01*
X106176Y087235D01*
X106268Y087576D01*
X106018Y088010D01*
X105676Y088101D01*
X105768Y088443D01*
X105518Y088876D01*
X105176Y088967D01*
X105268Y089309D01*
X105018Y089742D01*
X104676Y089833D01*
X104768Y090175D01*
X104518Y090608D01*
X104176Y090699D01*
X104268Y091041D01*
X104018Y091474D01*
X103676Y091565D01*
X103768Y091907D01*
X103518Y092340D01*
X103176Y092431D01*
X103268Y092773D01*
X103018Y093206D01*
X102676Y093297D01*
X102243Y093047D01*
X108293Y081170D02*
X108117Y080864D01*
X108246Y080381D01*
X108552Y080204D01*
X108375Y079898D01*
X108505Y079415D01*
X108811Y079238D01*
X108634Y078932D01*
X108764Y078449D01*
X109070Y078272D01*
X108893Y077966D01*
X109022Y077483D01*
X109329Y077306D01*
X109152Y077000D01*
X109281Y076517D01*
X109587Y076340D01*
X109411Y076034D01*
X109540Y075551D01*
X109846Y075374D01*
X109669Y075068D01*
X109799Y074585D01*
X110105Y074408D01*
X109928Y074102D01*
X110058Y073619D01*
X110364Y073442D01*
X110847Y073572D01*
X111024Y073878D01*
X110894Y074361D01*
X110588Y074538D01*
X110765Y074844D01*
X110635Y075327D01*
X110329Y075504D01*
X110506Y075810D01*
X110377Y076293D01*
X110070Y076470D01*
X110247Y076776D01*
X110118Y077259D01*
X109812Y077435D01*
X109988Y077742D01*
X109859Y078225D01*
X109553Y078401D01*
X109730Y078708D01*
X109600Y079191D01*
X109294Y079367D01*
X109471Y079674D01*
X109341Y080156D01*
X109035Y080333D01*
X109212Y080639D01*
X109082Y081122D01*
X108776Y081299D01*
X108293Y081170D01*
X111063Y068131D02*
X110813Y067881D01*
X110813Y067381D01*
X111063Y067131D01*
X110813Y066881D01*
X110813Y066381D01*
X111063Y066131D01*
X110813Y065881D01*
X110813Y065381D01*
X111063Y065131D01*
X110813Y064881D01*
X110813Y064381D01*
X111063Y064131D01*
X110813Y063881D01*
X110813Y063381D01*
X111063Y063131D01*
X110813Y062881D01*
X110813Y062381D01*
X111063Y062131D01*
X110813Y061881D01*
X110813Y061381D01*
X111063Y061131D01*
X110813Y060881D01*
X110813Y060381D01*
X111063Y060131D01*
X111563Y060131D01*
X111813Y060381D01*
X111813Y060881D01*
X111563Y061131D01*
X111813Y061381D01*
X111813Y061881D01*
X111563Y062131D01*
X111813Y062381D01*
X111813Y062881D01*
X111563Y063131D01*
X111813Y063381D01*
X111813Y063881D01*
X111563Y064131D01*
X111813Y064381D01*
X111813Y064881D01*
X111563Y065131D01*
X111813Y065381D01*
X111813Y065881D01*
X111563Y066131D01*
X111813Y066381D01*
X111813Y066881D01*
X111563Y067131D01*
X111813Y067381D01*
X111813Y067881D01*
X111563Y068131D01*
X111063Y068131D01*
X117160Y067881D02*
X117410Y068131D01*
X117910Y068131D01*
X118160Y067881D01*
X118160Y067381D01*
X117910Y067131D01*
X118160Y066881D01*
X118160Y066381D01*
X117910Y066131D01*
X118160Y065881D01*
X118160Y065381D01*
X117910Y065131D01*
X117410Y065131D01*
X117160Y065381D01*
X117160Y065881D01*
X117410Y066131D01*
X117160Y066381D01*
X117160Y066881D01*
X117410Y067131D01*
X117160Y067381D01*
X117160Y067881D01*
X117410Y063131D02*
X117910Y063131D01*
X118160Y062881D01*
X118160Y062381D01*
X117910Y062131D01*
X118160Y061881D01*
X118160Y061381D01*
X117910Y061131D01*
X118160Y060881D01*
X118160Y060381D01*
X117910Y060131D01*
X117410Y060131D01*
X117160Y060381D01*
X117160Y060881D01*
X117410Y061131D01*
X117160Y061381D01*
X117160Y061881D01*
X117410Y062131D01*
X117160Y062381D01*
X117160Y062881D01*
X117410Y063131D01*
X110847Y054691D02*
X110364Y054820D01*
X110057Y054643D01*
X109928Y054160D01*
X110105Y053854D01*
X109799Y053677D01*
X109669Y053194D01*
X109846Y052888D01*
X109540Y052712D01*
X109410Y052229D01*
X109587Y051922D01*
X109281Y051746D01*
X109152Y051263D01*
X109328Y050956D01*
X109022Y050780D01*
X108893Y050297D01*
X109070Y049991D01*
X108763Y049814D01*
X108634Y049331D01*
X108811Y049025D01*
X108505Y048848D01*
X108375Y048365D01*
X108552Y048059D01*
X108246Y047882D01*
X108116Y047399D01*
X108293Y047093D01*
X108776Y046963D01*
X109082Y047140D01*
X109212Y047623D01*
X109035Y047929D01*
X109341Y048106D01*
X109470Y048589D01*
X109294Y048895D01*
X109600Y049072D01*
X109729Y049555D01*
X109553Y049861D01*
X109859Y050038D01*
X109988Y050521D01*
X109811Y050827D01*
X110118Y051004D01*
X110247Y051487D01*
X110070Y051793D01*
X110376Y051970D01*
X110506Y052453D01*
X110329Y052759D01*
X110635Y052936D01*
X110765Y053419D01*
X110588Y053725D01*
X110894Y053902D01*
X111023Y054385D01*
X110847Y054691D01*
X106243Y042143D02*
X105902Y042052D01*
X105652Y041619D01*
X105743Y041277D01*
X105402Y041186D01*
X105152Y040753D01*
X105243Y040411D01*
X104902Y040320D01*
X104652Y039887D01*
X104743Y039545D01*
X104402Y039454D01*
X104152Y039021D01*
X104243Y038679D01*
X103902Y038588D01*
X103652Y038155D01*
X103743Y037813D01*
X103402Y037722D01*
X103152Y037289D01*
X103243Y036947D01*
X102902Y036856D01*
X102652Y036423D01*
X102743Y036081D01*
X102402Y035990D01*
X102152Y035556D01*
X102243Y035215D01*
X102676Y034965D01*
X103018Y035056D01*
X103268Y035490D01*
X103176Y035831D01*
X103518Y035923D01*
X103768Y036356D01*
X103676Y036697D01*
X104018Y036789D01*
X104268Y037222D01*
X104176Y037563D01*
X104518Y037655D01*
X104768Y038088D01*
X104676Y038429D01*
X105018Y038521D01*
X105268Y038954D01*
X105176Y039295D01*
X105518Y039387D01*
X105768Y039820D01*
X105676Y040161D01*
X106018Y040253D01*
X106268Y040686D01*
X106176Y041027D01*
X106518Y041119D01*
X106768Y041552D01*
X106676Y041893D01*
X106243Y042143D01*
X098982Y030965D02*
X098629Y030965D01*
X098275Y030612D01*
X098275Y030258D01*
X097922Y030258D01*
X097568Y029904D01*
X097568Y029551D01*
X097215Y029551D01*
X096861Y029197D01*
X096861Y028844D01*
X096508Y028844D01*
X096154Y028490D01*
X096154Y028137D01*
X095801Y028137D01*
X095447Y027783D01*
X095447Y027430D01*
X095093Y027430D01*
X094740Y027076D01*
X094740Y026722D01*
X094386Y026722D01*
X094033Y026369D01*
X094033Y026015D01*
X093679Y026015D01*
X093326Y025662D01*
X093326Y025308D01*
X093679Y024955D01*
X094033Y024955D01*
X094386Y025308D01*
X094386Y025662D01*
X094740Y025662D01*
X095093Y026015D01*
X095093Y026369D01*
X095447Y026369D01*
X095801Y026722D01*
X095801Y027076D01*
X096154Y027076D01*
X096508Y027430D01*
X096508Y027783D01*
X096861Y027783D01*
X097215Y028137D01*
X097215Y028490D01*
X097568Y028490D01*
X097922Y028844D01*
X097922Y029197D01*
X098275Y029197D01*
X098629Y029551D01*
X098629Y029904D01*
X098982Y029904D01*
X099336Y030258D01*
X099336Y030612D01*
X098982Y030965D01*
X089076Y022048D02*
X088735Y022139D01*
X088302Y021889D01*
X088210Y021548D01*
X087869Y021639D01*
X087436Y021389D01*
X087344Y021048D01*
X087003Y021139D01*
X086570Y020889D01*
X086478Y020548D01*
X086137Y020639D01*
X085704Y020389D01*
X085612Y020048D01*
X085271Y020139D01*
X084838Y019889D01*
X084746Y019548D01*
X084405Y019639D01*
X083971Y019389D01*
X083880Y019048D01*
X083539Y019139D01*
X083105Y018889D01*
X083014Y018548D01*
X082672Y018639D01*
X082239Y018389D01*
X082148Y018048D01*
X082398Y017614D01*
X082739Y017523D01*
X083172Y017773D01*
X083264Y018114D01*
X083605Y018023D01*
X084039Y018273D01*
X084130Y018614D01*
X084471Y018523D01*
X084905Y018773D01*
X084996Y019114D01*
X085338Y019023D01*
X085771Y019273D01*
X085862Y019614D01*
X086204Y019523D01*
X086637Y019773D01*
X086728Y020114D01*
X087070Y020023D01*
X087503Y020273D01*
X087594Y020614D01*
X087936Y020523D01*
X088369Y020773D01*
X088460Y021114D01*
X088802Y021023D01*
X089235Y021273D01*
X089326Y021614D01*
X089076Y022048D01*
X077199Y015998D02*
X076893Y016174D01*
X076410Y016045D01*
X076233Y015739D01*
X075927Y015916D01*
X075444Y015786D01*
X075267Y015480D01*
X074961Y015657D01*
X074478Y015527D01*
X074301Y015221D01*
X073995Y015398D01*
X073512Y015269D01*
X073335Y014962D01*
X073029Y015139D01*
X072546Y015010D01*
X072369Y014704D01*
X072063Y014880D01*
X071580Y014751D01*
X071403Y014445D01*
X071097Y014621D01*
X070614Y014492D01*
X070437Y014186D01*
X070131Y014363D01*
X069648Y014233D01*
X069471Y013927D01*
X069601Y013444D01*
X069907Y013267D01*
X070390Y013397D01*
X070567Y013703D01*
X070873Y013526D01*
X071356Y013656D01*
X071533Y013962D01*
X071839Y013785D01*
X072322Y013914D01*
X072499Y014221D01*
X072805Y014044D01*
X073288Y014173D01*
X073464Y014479D01*
X073771Y014303D01*
X074254Y014432D01*
X074430Y014738D01*
X074737Y014561D01*
X075220Y014691D01*
X075396Y014997D01*
X075702Y014820D01*
X076185Y014950D01*
X076362Y015256D01*
X076668Y015079D01*
X077151Y015209D01*
X077328Y015515D01*
X077199Y015998D01*
X064160Y013228D02*
X063910Y013478D01*
X063410Y013478D01*
X063160Y013228D01*
X062910Y013478D01*
X062410Y013478D01*
X062160Y013228D01*
X061910Y013478D01*
X061410Y013478D01*
X061160Y013228D01*
X060910Y013478D01*
X060410Y013478D01*
X060160Y013228D01*
X059910Y013478D01*
X059410Y013478D01*
X059160Y013228D01*
X058910Y013478D01*
X058410Y013478D01*
X058160Y013228D01*
X057910Y013478D01*
X057410Y013478D01*
X057160Y013228D01*
X056910Y013478D01*
X056410Y013478D01*
X056160Y013228D01*
X056160Y012728D01*
X056410Y012478D01*
X056910Y012478D01*
X057160Y012728D01*
X057410Y012478D01*
X057910Y012478D01*
X058160Y012728D01*
X058410Y012478D01*
X058910Y012478D01*
X059160Y012728D01*
X059410Y012478D01*
X059910Y012478D01*
X060160Y012728D01*
X060410Y012478D01*
X060910Y012478D01*
X061160Y012728D01*
X061410Y012478D01*
X061910Y012478D01*
X062160Y012728D01*
X062410Y012478D01*
X062910Y012478D01*
X063160Y012728D01*
X063410Y012478D01*
X063910Y012478D01*
X064160Y012728D01*
X064160Y013228D01*
X063910Y007131D02*
X063410Y007131D01*
X063160Y006881D01*
X062910Y007131D01*
X062410Y007131D01*
X062160Y006881D01*
X061910Y007131D01*
X061410Y007131D01*
X061160Y006881D01*
X061160Y006381D01*
X061410Y006131D01*
X061910Y006131D01*
X062160Y006381D01*
X062410Y006131D01*
X062910Y006131D01*
X063160Y006381D01*
X063410Y006131D01*
X063910Y006131D01*
X064160Y006381D01*
X064160Y006881D01*
X063910Y007131D01*
X059160Y006881D02*
X059160Y006381D01*
X058910Y006131D01*
X058410Y006131D01*
X058160Y006381D01*
X057910Y006131D01*
X057410Y006131D01*
X057160Y006381D01*
X056910Y006131D01*
X056410Y006131D01*
X056160Y006381D01*
X056160Y006881D01*
X056410Y007131D01*
X056910Y007131D01*
X057160Y006881D01*
X057410Y007131D01*
X057910Y007131D01*
X058160Y006881D01*
X058410Y007131D01*
X058910Y007131D01*
X059160Y006881D01*
X050720Y013444D02*
X050414Y013268D01*
X049931Y013397D01*
X049754Y013703D01*
X049448Y013526D01*
X048965Y013656D01*
X048788Y013962D01*
X048482Y013785D01*
X047999Y013915D01*
X047822Y014221D01*
X047516Y014044D01*
X047033Y014173D01*
X046856Y014480D01*
X046550Y014303D01*
X046067Y014432D01*
X045890Y014738D01*
X045584Y014562D01*
X045101Y014691D01*
X044924Y014997D01*
X044618Y014821D01*
X044135Y014950D01*
X043958Y015256D01*
X043652Y015079D01*
X043169Y015209D01*
X042992Y015515D01*
X043122Y015998D01*
X043428Y016175D01*
X043911Y016045D01*
X044088Y015739D01*
X044394Y015916D01*
X044877Y015786D01*
X045054Y015480D01*
X045360Y015657D01*
X045843Y015528D01*
X046019Y015221D01*
X046326Y015398D01*
X046809Y015269D01*
X046985Y014963D01*
X047292Y015139D01*
X047775Y015010D01*
X047951Y014704D01*
X048258Y014881D01*
X048741Y014751D01*
X048917Y014445D01*
X049223Y014622D01*
X049706Y014492D01*
X049883Y014186D01*
X050189Y014363D01*
X050672Y014234D01*
X050849Y013927D01*
X050720Y013444D01*
X038172Y018048D02*
X038081Y018389D01*
X037648Y018639D01*
X037306Y018548D01*
X037215Y018889D01*
X036782Y019139D01*
X036440Y019048D01*
X036349Y019389D01*
X035916Y019639D01*
X035574Y019548D01*
X035483Y019889D01*
X035050Y020139D01*
X034708Y020048D01*
X034617Y020389D01*
X034184Y020639D01*
X033842Y020548D01*
X033751Y020889D01*
X033318Y021139D01*
X032976Y021048D01*
X032885Y021389D01*
X032451Y021639D01*
X032110Y021548D01*
X032019Y021889D01*
X031585Y022139D01*
X031244Y022048D01*
X030994Y021614D01*
X031085Y021273D01*
X031519Y021023D01*
X031860Y021114D01*
X031951Y020773D01*
X032385Y020523D01*
X032726Y020614D01*
X032818Y020273D01*
X033251Y020023D01*
X033592Y020114D01*
X033684Y019773D01*
X034117Y019523D01*
X034458Y019614D01*
X034550Y019273D01*
X034983Y019023D01*
X035324Y019114D01*
X035416Y018773D01*
X035849Y018523D01*
X036190Y018614D01*
X036282Y018273D01*
X036715Y018023D01*
X037056Y018114D01*
X037148Y017773D01*
X037581Y017523D01*
X037922Y017614D01*
X038172Y018048D01*
X026994Y025309D02*
X026994Y025662D01*
X026641Y026016D01*
X026287Y026016D01*
X026287Y026369D01*
X025933Y026723D01*
X025580Y026723D01*
X025580Y027076D01*
X025226Y027430D01*
X024873Y027430D01*
X024873Y027783D01*
X024519Y028137D01*
X024166Y028137D01*
X024166Y028490D01*
X023812Y028844D01*
X023459Y028844D01*
X023459Y029198D01*
X023105Y029551D01*
X022751Y029551D01*
X022751Y029905D01*
X022398Y030258D01*
X022044Y030258D01*
X022044Y030612D01*
X021691Y030965D01*
X021337Y030965D01*
X020984Y030612D01*
X020984Y030258D01*
X021337Y029905D01*
X021691Y029905D01*
X021691Y029551D01*
X022044Y029198D01*
X022398Y029198D01*
X022398Y028844D01*
X022751Y028490D01*
X023105Y028490D01*
X023105Y028137D01*
X023459Y027783D01*
X023812Y027783D01*
X023812Y027430D01*
X024166Y027076D01*
X024519Y027076D01*
X024519Y026723D01*
X024873Y026369D01*
X025226Y026369D01*
X025226Y026016D01*
X025580Y025662D01*
X025933Y025662D01*
X025933Y025309D01*
X026287Y024955D01*
X026641Y024955D01*
X026994Y025309D01*
X018076Y035215D02*
X017643Y034965D01*
X017302Y035056D01*
X017052Y035489D01*
X017143Y035831D01*
X016802Y035922D01*
X016552Y036355D01*
X016643Y036697D01*
X016302Y036788D01*
X016052Y037221D01*
X016143Y037563D01*
X015802Y037654D01*
X015552Y038087D01*
X015643Y038429D01*
X015302Y038520D01*
X015052Y038953D01*
X015143Y039295D01*
X014802Y039386D01*
X014552Y039819D01*
X014643Y040161D01*
X014302Y040252D01*
X014052Y040686D01*
X014143Y041027D01*
X013802Y041119D01*
X013552Y041552D01*
X013643Y041893D01*
X014076Y042143D01*
X014418Y042052D01*
X014668Y041619D01*
X014576Y041277D01*
X014918Y041186D01*
X015168Y040752D01*
X015076Y040411D01*
X015418Y040319D01*
X015668Y039886D01*
X015576Y039545D01*
X015918Y039453D01*
X016168Y039020D01*
X016076Y038679D01*
X016418Y038587D01*
X016668Y038154D01*
X016576Y037813D01*
X016918Y037721D01*
X017168Y037288D01*
X017076Y036947D01*
X017418Y036855D01*
X017668Y036422D01*
X017576Y036081D01*
X017918Y035989D01*
X018168Y035556D01*
X018076Y035215D01*
X012027Y047092D02*
X012203Y047398D01*
X012074Y047881D01*
X011768Y048058D01*
X011945Y048364D01*
X011815Y048847D01*
X011509Y049024D01*
X011686Y049330D01*
X011556Y049813D01*
X011250Y049990D01*
X011427Y050296D01*
X011298Y050779D01*
X010991Y050956D01*
X011168Y051262D01*
X011039Y051745D01*
X010733Y051922D01*
X010909Y052228D01*
X010780Y052711D01*
X010474Y052888D01*
X010650Y053194D01*
X010521Y053677D01*
X010215Y053854D01*
X010392Y054160D01*
X010262Y054643D01*
X009956Y054820D01*
X009473Y054690D01*
X009296Y054384D01*
X009426Y053901D01*
X009732Y053724D01*
X009555Y053418D01*
X009685Y052935D01*
X009991Y052758D01*
X009814Y052452D01*
X009943Y051969D01*
X010250Y051792D01*
X010073Y051486D01*
X010202Y051003D01*
X010508Y050827D01*
X010332Y050520D01*
X010461Y050037D01*
X010767Y049861D01*
X010590Y049554D01*
X010720Y049071D01*
X011026Y048895D01*
X010849Y048589D01*
X010979Y048106D01*
X011285Y047929D01*
X011108Y047623D01*
X011237Y047140D01*
X011544Y046963D01*
X012027Y047092D01*
X009257Y060131D02*
X009507Y060381D01*
X009507Y060881D01*
X009257Y061131D01*
X009507Y061381D01*
X009507Y061881D01*
X009257Y062131D01*
X009507Y062381D01*
X009507Y062881D01*
X009257Y063131D01*
X009507Y063381D01*
X009507Y063881D01*
X009257Y064131D01*
X009507Y064381D01*
X009507Y064881D01*
X009257Y065131D01*
X009507Y065381D01*
X009507Y065881D01*
X009257Y066131D01*
X009507Y066381D01*
X009507Y066881D01*
X009257Y067131D01*
X009507Y067381D01*
X009507Y067881D01*
X009257Y068131D01*
X008757Y068131D01*
X008507Y067881D01*
X008507Y067381D01*
X008757Y067131D01*
X008507Y066881D01*
X008507Y066381D01*
X008757Y066131D01*
X008507Y065881D01*
X008507Y065381D01*
X008757Y065131D01*
X008507Y064881D01*
X008507Y064381D01*
X008757Y064131D01*
X008507Y063881D01*
X008507Y063381D01*
X008757Y063131D01*
X008507Y062881D01*
X008507Y062381D01*
X008757Y062131D01*
X008507Y061881D01*
X008507Y061381D01*
X008757Y061131D01*
X008507Y060881D01*
X008507Y060381D01*
X008757Y060131D01*
X009257Y060131D01*
X003160Y060381D02*
X002910Y060131D01*
X002410Y060131D01*
X002160Y060381D01*
X002160Y060881D01*
X002410Y061131D01*
X002160Y061381D01*
X002160Y061881D01*
X002410Y062131D01*
X002160Y062381D01*
X002160Y062881D01*
X002410Y063131D01*
X002910Y063131D01*
X003160Y062881D01*
X003160Y062381D01*
X002910Y062131D01*
X003160Y061881D01*
X003160Y061381D01*
X002910Y061131D01*
X003160Y060881D01*
X003160Y060381D01*
X002910Y065131D02*
X002410Y065131D01*
X002160Y065381D01*
X002160Y065881D01*
X002410Y066131D01*
X002160Y066381D01*
X002160Y066881D01*
X002410Y067131D01*
X002160Y067381D01*
X002160Y067881D01*
X002410Y068131D01*
X002910Y068131D01*
X003160Y067881D01*
X003160Y067381D01*
X002910Y067131D01*
X003160Y066881D01*
X003160Y066381D01*
X002910Y066131D01*
X003160Y065881D01*
X003160Y065381D01*
X002910Y065131D01*
X009473Y073571D02*
X009297Y073877D01*
X009426Y074360D01*
X009732Y074537D01*
X009555Y074843D01*
X009685Y075326D01*
X009991Y075503D01*
X009814Y075809D01*
X009944Y076292D01*
X010250Y076469D01*
X010073Y076775D01*
X010202Y077258D01*
X010509Y077435D01*
X010332Y077741D01*
X010461Y078224D01*
X010767Y078401D01*
X010591Y078707D01*
X010720Y079190D01*
X011026Y079367D01*
X010849Y079673D01*
X010979Y080156D01*
X011285Y080333D01*
X011108Y080639D01*
X011238Y081122D01*
X011544Y081299D01*
X012027Y081169D01*
X012204Y080863D01*
X012074Y080380D01*
X011768Y080203D01*
X011945Y079897D01*
X011815Y079414D01*
X011509Y079237D01*
X011686Y078931D01*
X011557Y078448D01*
X011250Y078271D01*
X011427Y077965D01*
X011298Y077482D01*
X010992Y077306D01*
X011168Y076999D01*
X011039Y076516D01*
X010733Y076340D01*
X010910Y076033D01*
X010780Y075550D01*
X010474Y075374D01*
X010651Y075068D01*
X010521Y074585D01*
X010215Y074408D01*
X010392Y074102D01*
X010262Y073619D01*
X009956Y073442D01*
X009473Y073571D01*
X014076Y086119D02*
X014418Y086210D01*
X014668Y086643D01*
X014576Y086985D01*
X014918Y087076D01*
X015168Y087509D01*
X015076Y087851D01*
X015418Y087942D01*
X015668Y088375D01*
X015576Y088717D01*
X015918Y088808D01*
X016168Y089241D01*
X016076Y089583D01*
X016418Y089674D01*
X016668Y090107D01*
X016576Y090449D01*
X016918Y090540D01*
X017168Y090973D01*
X017076Y091315D01*
X017418Y091406D01*
X017668Y091839D01*
X017576Y092181D01*
X017918Y092272D01*
X018168Y092706D01*
X018076Y093047D01*
X017643Y093297D01*
X017302Y093206D01*
X017052Y092772D01*
X017143Y092431D01*
X016802Y092339D01*
X016552Y091906D01*
X016643Y091565D01*
X016302Y091473D01*
X016052Y091040D01*
X016143Y090699D01*
X015802Y090607D01*
X015552Y090174D01*
X015643Y089833D01*
X015302Y089741D01*
X015052Y089308D01*
X015143Y088967D01*
X014802Y088875D01*
X014552Y088442D01*
X014643Y088101D01*
X014302Y088009D01*
X014052Y087576D01*
X014143Y087235D01*
X013802Y087143D01*
X013552Y086710D01*
X013643Y086369D01*
X014076Y086119D01*
X021337Y097297D02*
X021691Y097297D01*
X022045Y097650D01*
X022045Y098004D01*
X022398Y098004D01*
X022752Y098358D01*
X022752Y098711D01*
X023105Y098711D01*
X023459Y099065D01*
X023459Y099418D01*
X023812Y099418D01*
X024166Y099772D01*
X024166Y100125D01*
X024519Y100125D01*
X024873Y100479D01*
X024873Y100832D01*
X025227Y100832D01*
X025580Y101186D01*
X025580Y101540D01*
X025934Y101540D01*
X026287Y101893D01*
X026287Y102247D01*
X026641Y102247D01*
X026994Y102600D01*
X026994Y102954D01*
X026641Y103307D01*
X026287Y103307D01*
X025934Y102954D01*
X025934Y102600D01*
X025580Y102600D01*
X025227Y102247D01*
X025227Y101893D01*
X024873Y101893D01*
X024519Y101540D01*
X024519Y101186D01*
X024166Y101186D01*
X023812Y100832D01*
X023812Y100479D01*
X023459Y100479D01*
X023105Y100125D01*
X023105Y099772D01*
X022752Y099772D01*
X022398Y099418D01*
X022398Y099065D01*
X022045Y099065D01*
X021691Y098711D01*
X021691Y098358D01*
X021337Y098358D01*
X020984Y098004D01*
X020984Y097650D01*
X021337Y097297D01*
X031244Y106214D02*
X031585Y106123D01*
X032018Y106373D01*
X032110Y106714D01*
X032451Y106623D01*
X032884Y106873D01*
X032976Y107214D01*
X033317Y107123D01*
X033750Y107373D01*
X033842Y107714D01*
X034183Y107623D01*
X034616Y107873D01*
X034708Y108214D01*
X035049Y108123D01*
X035482Y108373D01*
X035574Y108714D01*
X035915Y108623D01*
X036348Y108873D01*
X036440Y109214D01*
X036781Y109123D01*
X037214Y109373D01*
X037306Y109714D01*
X037647Y109623D01*
X038081Y109873D01*
X038172Y110214D01*
X037922Y110648D01*
X037581Y110739D01*
X037147Y110489D01*
X037056Y110148D01*
X036714Y110239D01*
X036281Y109989D01*
X036190Y109648D01*
X035848Y109739D01*
X035415Y109489D01*
X035324Y109148D01*
X034982Y109239D01*
X034549Y108989D01*
X034458Y108648D01*
X034116Y108739D01*
X033683Y108489D01*
X033592Y108148D01*
X033250Y108239D01*
X032817Y107989D01*
X032726Y107648D01*
X032384Y107739D01*
X031951Y107489D01*
X031860Y107148D01*
X031518Y107239D01*
X031085Y106989D01*
X030994Y106648D01*
X031244Y106214D01*
X043121Y112264D02*
X043427Y112088D01*
X043910Y112217D01*
X044087Y112523D01*
X044393Y112346D01*
X044876Y112476D01*
X045053Y112782D01*
X045359Y112605D01*
X045842Y112735D01*
X046019Y113041D01*
X046325Y112864D01*
X046808Y112993D01*
X046985Y113300D01*
X047291Y113123D01*
X047774Y113252D01*
X047951Y113558D01*
X048257Y113382D01*
X048740Y113511D01*
X048917Y113817D01*
X049223Y113641D01*
X049706Y113770D01*
X049883Y114076D01*
X050189Y113899D01*
X050672Y114029D01*
X050849Y114335D01*
X050719Y114818D01*
X050413Y114995D01*
X049930Y114865D01*
X049753Y114559D01*
X049447Y114736D01*
X048964Y114606D01*
X048787Y114300D01*
X048481Y114477D01*
X047998Y114348D01*
X047821Y114041D01*
X047515Y114218D01*
X047032Y114089D01*
X046856Y113783D01*
X046549Y113959D01*
X046066Y113830D01*
X045890Y113524D01*
X045583Y113701D01*
X045100Y113571D01*
X044924Y113265D01*
X044617Y113442D01*
X044135Y113312D01*
X043958Y113006D01*
X043652Y113183D01*
X043169Y113054D01*
X042992Y112747D01*
X043121Y112264D01*
D15*
X005610Y104131D02*
X005410Y104131D01*
X003160Y104131D02*
X003162Y104229D01*
X003170Y104327D01*
X003182Y104424D01*
X003198Y104521D01*
X003220Y104617D01*
X003246Y104712D01*
X003277Y104805D01*
X003312Y104896D01*
X003352Y104986D01*
X003396Y105074D01*
X003445Y105159D01*
X003497Y105242D01*
X003554Y105322D01*
X003614Y105400D01*
X003678Y105474D01*
X003746Y105545D01*
X003817Y105613D01*
X003891Y105677D01*
X003969Y105737D01*
X004049Y105794D01*
X004132Y105846D01*
X004217Y105895D01*
X004305Y105939D01*
X004395Y105979D01*
X004486Y106014D01*
X004579Y106045D01*
X004674Y106071D01*
X004770Y106093D01*
X004867Y106109D01*
X004964Y106121D01*
X005062Y106129D01*
X005160Y106131D01*
X005258Y106129D01*
X005356Y106121D01*
X005453Y106109D01*
X005550Y106093D01*
X005646Y106071D01*
X005741Y106045D01*
X005834Y106014D01*
X005925Y105979D01*
X006015Y105939D01*
X006103Y105895D01*
X006188Y105846D01*
X006271Y105794D01*
X006351Y105737D01*
X006429Y105677D01*
X006503Y105613D01*
X006574Y105545D01*
X006642Y105474D01*
X006706Y105400D01*
X006766Y105322D01*
X006823Y105242D01*
X006875Y105159D01*
X006924Y105074D01*
X006968Y104986D01*
X007008Y104896D01*
X007043Y104805D01*
X007074Y104712D01*
X007100Y104617D01*
X007122Y104521D01*
X007138Y104424D01*
X007150Y104327D01*
X007158Y104229D01*
X007160Y104131D01*
X007158Y104033D01*
X007150Y103935D01*
X007138Y103838D01*
X007122Y103741D01*
X007100Y103645D01*
X007074Y103550D01*
X007043Y103457D01*
X007008Y103366D01*
X006968Y103276D01*
X006924Y103188D01*
X006875Y103103D01*
X006823Y103020D01*
X006766Y102940D01*
X006706Y102862D01*
X006642Y102788D01*
X006574Y102717D01*
X006503Y102649D01*
X006429Y102585D01*
X006351Y102525D01*
X006271Y102468D01*
X006188Y102416D01*
X006103Y102367D01*
X006015Y102323D01*
X005925Y102283D01*
X005834Y102248D01*
X005741Y102217D01*
X005646Y102191D01*
X005550Y102169D01*
X005453Y102153D01*
X005356Y102141D01*
X005258Y102133D01*
X005160Y102131D01*
X005062Y102133D01*
X004964Y102141D01*
X004867Y102153D01*
X004770Y102169D01*
X004674Y102191D01*
X004579Y102217D01*
X004486Y102248D01*
X004395Y102283D01*
X004305Y102323D01*
X004217Y102367D01*
X004132Y102416D01*
X004049Y102468D01*
X003969Y102525D01*
X003891Y102585D01*
X003817Y102649D01*
X003746Y102717D01*
X003678Y102788D01*
X003614Y102862D01*
X003554Y102940D01*
X003497Y103020D01*
X003445Y103103D01*
X003396Y103188D01*
X003352Y103276D01*
X003312Y103366D01*
X003277Y103457D01*
X003246Y103550D01*
X003220Y103645D01*
X003198Y103741D01*
X003182Y103838D01*
X003170Y103935D01*
X003162Y104033D01*
X003160Y104131D01*
X003660Y104481D02*
X003660Y104781D01*
X003810Y104631D02*
X003510Y104631D01*
X004710Y104131D02*
X004810Y104131D01*
X004810Y104581D01*
X005060Y104581D01*
X005060Y103681D01*
X004810Y103681D01*
X004810Y104131D01*
X003660Y079781D02*
X003660Y079481D01*
X003810Y079631D02*
X003510Y079631D01*
X004710Y079131D02*
X004810Y079131D01*
X004810Y079581D01*
X005060Y079581D01*
X005060Y078681D01*
X004810Y078681D01*
X004810Y079131D01*
X003160Y079131D02*
X003162Y079229D01*
X003170Y079327D01*
X003182Y079424D01*
X003198Y079521D01*
X003220Y079617D01*
X003246Y079712D01*
X003277Y079805D01*
X003312Y079896D01*
X003352Y079986D01*
X003396Y080074D01*
X003445Y080159D01*
X003497Y080242D01*
X003554Y080322D01*
X003614Y080400D01*
X003678Y080474D01*
X003746Y080545D01*
X003817Y080613D01*
X003891Y080677D01*
X003969Y080737D01*
X004049Y080794D01*
X004132Y080846D01*
X004217Y080895D01*
X004305Y080939D01*
X004395Y080979D01*
X004486Y081014D01*
X004579Y081045D01*
X004674Y081071D01*
X004770Y081093D01*
X004867Y081109D01*
X004964Y081121D01*
X005062Y081129D01*
X005160Y081131D01*
X005258Y081129D01*
X005356Y081121D01*
X005453Y081109D01*
X005550Y081093D01*
X005646Y081071D01*
X005741Y081045D01*
X005834Y081014D01*
X005925Y080979D01*
X006015Y080939D01*
X006103Y080895D01*
X006188Y080846D01*
X006271Y080794D01*
X006351Y080737D01*
X006429Y080677D01*
X006503Y080613D01*
X006574Y080545D01*
X006642Y080474D01*
X006706Y080400D01*
X006766Y080322D01*
X006823Y080242D01*
X006875Y080159D01*
X006924Y080074D01*
X006968Y079986D01*
X007008Y079896D01*
X007043Y079805D01*
X007074Y079712D01*
X007100Y079617D01*
X007122Y079521D01*
X007138Y079424D01*
X007150Y079327D01*
X007158Y079229D01*
X007160Y079131D01*
X007158Y079033D01*
X007150Y078935D01*
X007138Y078838D01*
X007122Y078741D01*
X007100Y078645D01*
X007074Y078550D01*
X007043Y078457D01*
X007008Y078366D01*
X006968Y078276D01*
X006924Y078188D01*
X006875Y078103D01*
X006823Y078020D01*
X006766Y077940D01*
X006706Y077862D01*
X006642Y077788D01*
X006574Y077717D01*
X006503Y077649D01*
X006429Y077585D01*
X006351Y077525D01*
X006271Y077468D01*
X006188Y077416D01*
X006103Y077367D01*
X006015Y077323D01*
X005925Y077283D01*
X005834Y077248D01*
X005741Y077217D01*
X005646Y077191D01*
X005550Y077169D01*
X005453Y077153D01*
X005356Y077141D01*
X005258Y077133D01*
X005160Y077131D01*
X005062Y077133D01*
X004964Y077141D01*
X004867Y077153D01*
X004770Y077169D01*
X004674Y077191D01*
X004579Y077217D01*
X004486Y077248D01*
X004395Y077283D01*
X004305Y077323D01*
X004217Y077367D01*
X004132Y077416D01*
X004049Y077468D01*
X003969Y077525D01*
X003891Y077585D01*
X003817Y077649D01*
X003746Y077717D01*
X003678Y077788D01*
X003614Y077862D01*
X003554Y077940D01*
X003497Y078020D01*
X003445Y078103D01*
X003396Y078188D01*
X003352Y078276D01*
X003312Y078366D01*
X003277Y078457D01*
X003246Y078550D01*
X003220Y078645D01*
X003198Y078741D01*
X003182Y078838D01*
X003170Y078935D01*
X003162Y079033D01*
X003160Y079131D01*
X005410Y079131D02*
X005610Y079131D01*
X003660Y049781D02*
X003660Y049481D01*
X003810Y049631D02*
X003510Y049631D01*
X004710Y049131D02*
X004810Y049131D01*
X004810Y049581D01*
X005060Y049581D01*
X005060Y048681D01*
X004810Y048681D01*
X004810Y049131D01*
X003160Y049131D02*
X003162Y049229D01*
X003170Y049327D01*
X003182Y049424D01*
X003198Y049521D01*
X003220Y049617D01*
X003246Y049712D01*
X003277Y049805D01*
X003312Y049896D01*
X003352Y049986D01*
X003396Y050074D01*
X003445Y050159D01*
X003497Y050242D01*
X003554Y050322D01*
X003614Y050400D01*
X003678Y050474D01*
X003746Y050545D01*
X003817Y050613D01*
X003891Y050677D01*
X003969Y050737D01*
X004049Y050794D01*
X004132Y050846D01*
X004217Y050895D01*
X004305Y050939D01*
X004395Y050979D01*
X004486Y051014D01*
X004579Y051045D01*
X004674Y051071D01*
X004770Y051093D01*
X004867Y051109D01*
X004964Y051121D01*
X005062Y051129D01*
X005160Y051131D01*
X005258Y051129D01*
X005356Y051121D01*
X005453Y051109D01*
X005550Y051093D01*
X005646Y051071D01*
X005741Y051045D01*
X005834Y051014D01*
X005925Y050979D01*
X006015Y050939D01*
X006103Y050895D01*
X006188Y050846D01*
X006271Y050794D01*
X006351Y050737D01*
X006429Y050677D01*
X006503Y050613D01*
X006574Y050545D01*
X006642Y050474D01*
X006706Y050400D01*
X006766Y050322D01*
X006823Y050242D01*
X006875Y050159D01*
X006924Y050074D01*
X006968Y049986D01*
X007008Y049896D01*
X007043Y049805D01*
X007074Y049712D01*
X007100Y049617D01*
X007122Y049521D01*
X007138Y049424D01*
X007150Y049327D01*
X007158Y049229D01*
X007160Y049131D01*
X007158Y049033D01*
X007150Y048935D01*
X007138Y048838D01*
X007122Y048741D01*
X007100Y048645D01*
X007074Y048550D01*
X007043Y048457D01*
X007008Y048366D01*
X006968Y048276D01*
X006924Y048188D01*
X006875Y048103D01*
X006823Y048020D01*
X006766Y047940D01*
X006706Y047862D01*
X006642Y047788D01*
X006574Y047717D01*
X006503Y047649D01*
X006429Y047585D01*
X006351Y047525D01*
X006271Y047468D01*
X006188Y047416D01*
X006103Y047367D01*
X006015Y047323D01*
X005925Y047283D01*
X005834Y047248D01*
X005741Y047217D01*
X005646Y047191D01*
X005550Y047169D01*
X005453Y047153D01*
X005356Y047141D01*
X005258Y047133D01*
X005160Y047131D01*
X005062Y047133D01*
X004964Y047141D01*
X004867Y047153D01*
X004770Y047169D01*
X004674Y047191D01*
X004579Y047217D01*
X004486Y047248D01*
X004395Y047283D01*
X004305Y047323D01*
X004217Y047367D01*
X004132Y047416D01*
X004049Y047468D01*
X003969Y047525D01*
X003891Y047585D01*
X003817Y047649D01*
X003746Y047717D01*
X003678Y047788D01*
X003614Y047862D01*
X003554Y047940D01*
X003497Y048020D01*
X003445Y048103D01*
X003396Y048188D01*
X003352Y048276D01*
X003312Y048366D01*
X003277Y048457D01*
X003246Y048550D01*
X003220Y048645D01*
X003198Y048741D01*
X003182Y048838D01*
X003170Y048935D01*
X003162Y049033D01*
X003160Y049131D01*
X005410Y049131D02*
X005610Y049131D01*
X003660Y027281D02*
X003660Y026981D01*
X003810Y027131D02*
X003510Y027131D01*
X004710Y026631D02*
X004810Y026631D01*
X004810Y027081D01*
X005060Y027081D01*
X005060Y026181D01*
X004810Y026181D01*
X004810Y026631D01*
X003160Y026631D02*
X003162Y026729D01*
X003170Y026827D01*
X003182Y026924D01*
X003198Y027021D01*
X003220Y027117D01*
X003246Y027212D01*
X003277Y027305D01*
X003312Y027396D01*
X003352Y027486D01*
X003396Y027574D01*
X003445Y027659D01*
X003497Y027742D01*
X003554Y027822D01*
X003614Y027900D01*
X003678Y027974D01*
X003746Y028045D01*
X003817Y028113D01*
X003891Y028177D01*
X003969Y028237D01*
X004049Y028294D01*
X004132Y028346D01*
X004217Y028395D01*
X004305Y028439D01*
X004395Y028479D01*
X004486Y028514D01*
X004579Y028545D01*
X004674Y028571D01*
X004770Y028593D01*
X004867Y028609D01*
X004964Y028621D01*
X005062Y028629D01*
X005160Y028631D01*
X005258Y028629D01*
X005356Y028621D01*
X005453Y028609D01*
X005550Y028593D01*
X005646Y028571D01*
X005741Y028545D01*
X005834Y028514D01*
X005925Y028479D01*
X006015Y028439D01*
X006103Y028395D01*
X006188Y028346D01*
X006271Y028294D01*
X006351Y028237D01*
X006429Y028177D01*
X006503Y028113D01*
X006574Y028045D01*
X006642Y027974D01*
X006706Y027900D01*
X006766Y027822D01*
X006823Y027742D01*
X006875Y027659D01*
X006924Y027574D01*
X006968Y027486D01*
X007008Y027396D01*
X007043Y027305D01*
X007074Y027212D01*
X007100Y027117D01*
X007122Y027021D01*
X007138Y026924D01*
X007150Y026827D01*
X007158Y026729D01*
X007160Y026631D01*
X007158Y026533D01*
X007150Y026435D01*
X007138Y026338D01*
X007122Y026241D01*
X007100Y026145D01*
X007074Y026050D01*
X007043Y025957D01*
X007008Y025866D01*
X006968Y025776D01*
X006924Y025688D01*
X006875Y025603D01*
X006823Y025520D01*
X006766Y025440D01*
X006706Y025362D01*
X006642Y025288D01*
X006574Y025217D01*
X006503Y025149D01*
X006429Y025085D01*
X006351Y025025D01*
X006271Y024968D01*
X006188Y024916D01*
X006103Y024867D01*
X006015Y024823D01*
X005925Y024783D01*
X005834Y024748D01*
X005741Y024717D01*
X005646Y024691D01*
X005550Y024669D01*
X005453Y024653D01*
X005356Y024641D01*
X005258Y024633D01*
X005160Y024631D01*
X005062Y024633D01*
X004964Y024641D01*
X004867Y024653D01*
X004770Y024669D01*
X004674Y024691D01*
X004579Y024717D01*
X004486Y024748D01*
X004395Y024783D01*
X004305Y024823D01*
X004217Y024867D01*
X004132Y024916D01*
X004049Y024968D01*
X003969Y025025D01*
X003891Y025085D01*
X003817Y025149D01*
X003746Y025217D01*
X003678Y025288D01*
X003614Y025362D01*
X003554Y025440D01*
X003497Y025520D01*
X003445Y025603D01*
X003396Y025688D01*
X003352Y025776D01*
X003312Y025866D01*
X003277Y025957D01*
X003246Y026050D01*
X003220Y026145D01*
X003198Y026241D01*
X003182Y026338D01*
X003170Y026435D01*
X003162Y026533D01*
X003160Y026631D01*
X005410Y026631D02*
X005610Y026631D01*
X010260Y011381D02*
X010060Y011181D01*
X010060Y007181D01*
X012060Y007181D01*
X012060Y007131D01*
X010060Y007131D01*
X010060Y007181D01*
X010060Y007131D02*
X010060Y005931D01*
X011060Y005931D01*
X011060Y006031D01*
X012060Y006031D01*
X012060Y005931D01*
X012110Y005931D01*
X012110Y006881D01*
X012112Y006911D01*
X012117Y006941D01*
X012126Y006970D01*
X012139Y006997D01*
X012154Y007023D01*
X012173Y007047D01*
X012194Y007068D01*
X012218Y007087D01*
X012244Y007102D01*
X012271Y007115D01*
X012300Y007124D01*
X012330Y007129D01*
X012360Y007131D01*
X012410Y007131D02*
X012410Y011181D01*
X012210Y011381D01*
X010260Y011381D01*
X010580Y010131D02*
X010582Y010181D01*
X010588Y010231D01*
X010598Y010281D01*
X010611Y010329D01*
X010628Y010377D01*
X010649Y010423D01*
X010673Y010467D01*
X010701Y010509D01*
X010732Y010549D01*
X010766Y010586D01*
X010803Y010621D01*
X010842Y010652D01*
X010883Y010681D01*
X010927Y010706D01*
X010973Y010728D01*
X011020Y010746D01*
X011068Y010760D01*
X011117Y010771D01*
X011167Y010778D01*
X011217Y010781D01*
X011268Y010780D01*
X011318Y010775D01*
X011368Y010766D01*
X011416Y010754D01*
X011464Y010737D01*
X011510Y010717D01*
X011555Y010694D01*
X011598Y010667D01*
X011638Y010637D01*
X011676Y010604D01*
X011711Y010568D01*
X011744Y010529D01*
X011773Y010488D01*
X011799Y010445D01*
X011822Y010400D01*
X011841Y010353D01*
X011856Y010305D01*
X011868Y010256D01*
X011876Y010206D01*
X011880Y010156D01*
X011880Y010106D01*
X011876Y010056D01*
X011868Y010006D01*
X011856Y009957D01*
X011841Y009909D01*
X011822Y009862D01*
X011799Y009817D01*
X011773Y009774D01*
X011744Y009733D01*
X011711Y009694D01*
X011676Y009658D01*
X011638Y009625D01*
X011598Y009595D01*
X011555Y009568D01*
X011510Y009545D01*
X011464Y009525D01*
X011416Y009508D01*
X011368Y009496D01*
X011318Y009487D01*
X011268Y009482D01*
X011217Y009481D01*
X011167Y009484D01*
X011117Y009491D01*
X011068Y009502D01*
X011020Y009516D01*
X010973Y009534D01*
X010927Y009556D01*
X010883Y009581D01*
X010842Y009610D01*
X010803Y009641D01*
X010766Y009676D01*
X010732Y009713D01*
X010701Y009753D01*
X010673Y009795D01*
X010649Y009839D01*
X010628Y009885D01*
X010611Y009933D01*
X010598Y009981D01*
X010588Y010031D01*
X010582Y010081D01*
X010580Y010131D01*
X012510Y007431D02*
X012510Y007131D01*
X012410Y007131D01*
X012060Y007131D01*
X012510Y007131D02*
X019810Y007131D01*
X019810Y007431D01*
X012510Y007431D01*
X012110Y005931D02*
X020210Y005931D01*
X020210Y006881D01*
X020208Y006911D01*
X020203Y006941D01*
X020194Y006970D01*
X020181Y006997D01*
X020166Y007023D01*
X020147Y007047D01*
X020126Y007068D01*
X020102Y007087D01*
X020076Y007102D01*
X020049Y007115D01*
X020020Y007124D01*
X019990Y007129D01*
X019960Y007131D01*
X019910Y007131D02*
X019910Y011181D01*
X020110Y011381D01*
X022010Y011381D01*
X022260Y011131D01*
X022260Y007181D01*
X020260Y007181D01*
X020260Y007131D01*
X019910Y007131D01*
X019810Y007131D01*
X020260Y007131D02*
X022260Y007131D01*
X022260Y007181D01*
X022260Y007131D02*
X022260Y005931D01*
X022260Y005731D01*
X021260Y005731D01*
X021260Y005931D01*
X021260Y006031D01*
X020260Y006031D01*
X020260Y005931D01*
X020210Y005931D01*
X020260Y005931D02*
X020260Y005731D01*
X012060Y005731D01*
X012060Y005931D01*
X012060Y005731D02*
X011060Y005731D01*
X010060Y005731D01*
X010060Y005931D01*
X010060Y005731D02*
X010060Y005531D01*
X012860Y005531D01*
X012860Y003431D01*
X012710Y003431D02*
X012712Y003405D01*
X012717Y003379D01*
X012725Y003354D01*
X012737Y003331D01*
X012751Y003309D01*
X012769Y003290D01*
X012788Y003272D01*
X012810Y003258D01*
X012833Y003246D01*
X012858Y003238D01*
X012884Y003233D01*
X012910Y003231D01*
X013010Y003231D01*
X019310Y003231D01*
X019310Y005331D01*
X019460Y005531D02*
X022260Y005531D01*
X022260Y005731D01*
X022260Y005931D02*
X021260Y005931D01*
X021260Y005731D02*
X020260Y005731D01*
X019860Y005531D02*
X019830Y005529D01*
X019800Y005524D01*
X019771Y005515D01*
X019744Y005502D01*
X019718Y005487D01*
X019694Y005468D01*
X019673Y005447D01*
X019654Y005423D01*
X019639Y005397D01*
X019626Y005370D01*
X019617Y005341D01*
X019612Y005311D01*
X019610Y005281D01*
X019610Y003431D01*
X019460Y003431D02*
X019460Y005531D01*
X012860Y005531D01*
X013010Y005331D02*
X013010Y003231D01*
X012710Y003431D02*
X012710Y005281D01*
X012708Y005311D01*
X012703Y005341D01*
X012694Y005370D01*
X012681Y005397D01*
X012666Y005423D01*
X012647Y005447D01*
X012626Y005468D01*
X012602Y005487D01*
X012576Y005502D01*
X012549Y005515D01*
X012520Y005524D01*
X012490Y005529D01*
X012460Y005531D01*
X011060Y005731D02*
X011060Y005931D01*
X014160Y004631D02*
X014160Y003731D01*
X014310Y003731D01*
X014310Y004481D01*
X014910Y004481D01*
X014910Y003731D01*
X015060Y003731D01*
X015060Y004631D01*
X014160Y004631D01*
X015710Y004631D02*
X015710Y003731D01*
X015860Y003731D01*
X015860Y004481D01*
X016460Y004481D01*
X016460Y003731D01*
X016610Y003731D01*
X016610Y004631D01*
X015710Y004631D01*
X017260Y004631D02*
X017260Y003731D01*
X017410Y003731D01*
X017410Y004481D01*
X018010Y004481D01*
X018010Y003731D01*
X018160Y003731D01*
X018160Y004631D01*
X017260Y004631D01*
X019410Y003231D02*
X019436Y003233D01*
X019462Y003238D01*
X019487Y003246D01*
X019510Y003258D01*
X019532Y003272D01*
X019551Y003290D01*
X019569Y003309D01*
X019583Y003331D01*
X019595Y003354D01*
X019603Y003379D01*
X019608Y003405D01*
X019610Y003431D01*
X019410Y003231D02*
X019310Y003231D01*
X020440Y010131D02*
X020442Y010181D01*
X020448Y010231D01*
X020458Y010281D01*
X020471Y010329D01*
X020488Y010377D01*
X020509Y010423D01*
X020533Y010467D01*
X020561Y010509D01*
X020592Y010549D01*
X020626Y010586D01*
X020663Y010621D01*
X020702Y010652D01*
X020743Y010681D01*
X020787Y010706D01*
X020833Y010728D01*
X020880Y010746D01*
X020928Y010760D01*
X020977Y010771D01*
X021027Y010778D01*
X021077Y010781D01*
X021128Y010780D01*
X021178Y010775D01*
X021228Y010766D01*
X021276Y010754D01*
X021324Y010737D01*
X021370Y010717D01*
X021415Y010694D01*
X021458Y010667D01*
X021498Y010637D01*
X021536Y010604D01*
X021571Y010568D01*
X021604Y010529D01*
X021633Y010488D01*
X021659Y010445D01*
X021682Y010400D01*
X021701Y010353D01*
X021716Y010305D01*
X021728Y010256D01*
X021736Y010206D01*
X021740Y010156D01*
X021740Y010106D01*
X021736Y010056D01*
X021728Y010006D01*
X021716Y009957D01*
X021701Y009909D01*
X021682Y009862D01*
X021659Y009817D01*
X021633Y009774D01*
X021604Y009733D01*
X021571Y009694D01*
X021536Y009658D01*
X021498Y009625D01*
X021458Y009595D01*
X021415Y009568D01*
X021370Y009545D01*
X021324Y009525D01*
X021276Y009508D01*
X021228Y009496D01*
X021178Y009487D01*
X021128Y009482D01*
X021077Y009481D01*
X021027Y009484D01*
X020977Y009491D01*
X020928Y009502D01*
X020880Y009516D01*
X020833Y009534D01*
X020787Y009556D01*
X020743Y009581D01*
X020702Y009610D01*
X020663Y009641D01*
X020626Y009676D01*
X020592Y009713D01*
X020561Y009753D01*
X020533Y009795D01*
X020509Y009839D01*
X020488Y009885D01*
X020471Y009933D01*
X020458Y009981D01*
X020448Y010031D01*
X020442Y010081D01*
X020440Y010131D01*
X113510Y027131D02*
X113810Y027131D01*
X113660Y027281D02*
X113660Y026981D01*
X114710Y026631D02*
X114810Y026631D01*
X114810Y027081D01*
X115060Y027081D01*
X115060Y026181D01*
X114810Y026181D01*
X114810Y026631D01*
X113160Y026631D02*
X113162Y026729D01*
X113170Y026827D01*
X113182Y026924D01*
X113198Y027021D01*
X113220Y027117D01*
X113246Y027212D01*
X113277Y027305D01*
X113312Y027396D01*
X113352Y027486D01*
X113396Y027574D01*
X113445Y027659D01*
X113497Y027742D01*
X113554Y027822D01*
X113614Y027900D01*
X113678Y027974D01*
X113746Y028045D01*
X113817Y028113D01*
X113891Y028177D01*
X113969Y028237D01*
X114049Y028294D01*
X114132Y028346D01*
X114217Y028395D01*
X114305Y028439D01*
X114395Y028479D01*
X114486Y028514D01*
X114579Y028545D01*
X114674Y028571D01*
X114770Y028593D01*
X114867Y028609D01*
X114964Y028621D01*
X115062Y028629D01*
X115160Y028631D01*
X115258Y028629D01*
X115356Y028621D01*
X115453Y028609D01*
X115550Y028593D01*
X115646Y028571D01*
X115741Y028545D01*
X115834Y028514D01*
X115925Y028479D01*
X116015Y028439D01*
X116103Y028395D01*
X116188Y028346D01*
X116271Y028294D01*
X116351Y028237D01*
X116429Y028177D01*
X116503Y028113D01*
X116574Y028045D01*
X116642Y027974D01*
X116706Y027900D01*
X116766Y027822D01*
X116823Y027742D01*
X116875Y027659D01*
X116924Y027574D01*
X116968Y027486D01*
X117008Y027396D01*
X117043Y027305D01*
X117074Y027212D01*
X117100Y027117D01*
X117122Y027021D01*
X117138Y026924D01*
X117150Y026827D01*
X117158Y026729D01*
X117160Y026631D01*
X117158Y026533D01*
X117150Y026435D01*
X117138Y026338D01*
X117122Y026241D01*
X117100Y026145D01*
X117074Y026050D01*
X117043Y025957D01*
X117008Y025866D01*
X116968Y025776D01*
X116924Y025688D01*
X116875Y025603D01*
X116823Y025520D01*
X116766Y025440D01*
X116706Y025362D01*
X116642Y025288D01*
X116574Y025217D01*
X116503Y025149D01*
X116429Y025085D01*
X116351Y025025D01*
X116271Y024968D01*
X116188Y024916D01*
X116103Y024867D01*
X116015Y024823D01*
X115925Y024783D01*
X115834Y024748D01*
X115741Y024717D01*
X115646Y024691D01*
X115550Y024669D01*
X115453Y024653D01*
X115356Y024641D01*
X115258Y024633D01*
X115160Y024631D01*
X115062Y024633D01*
X114964Y024641D01*
X114867Y024653D01*
X114770Y024669D01*
X114674Y024691D01*
X114579Y024717D01*
X114486Y024748D01*
X114395Y024783D01*
X114305Y024823D01*
X114217Y024867D01*
X114132Y024916D01*
X114049Y024968D01*
X113969Y025025D01*
X113891Y025085D01*
X113817Y025149D01*
X113746Y025217D01*
X113678Y025288D01*
X113614Y025362D01*
X113554Y025440D01*
X113497Y025520D01*
X113445Y025603D01*
X113396Y025688D01*
X113352Y025776D01*
X113312Y025866D01*
X113277Y025957D01*
X113246Y026050D01*
X113220Y026145D01*
X113198Y026241D01*
X113182Y026338D01*
X113170Y026435D01*
X113162Y026533D01*
X113160Y026631D01*
X115410Y026631D02*
X115610Y026631D01*
X115060Y048681D02*
X115060Y049581D01*
X114810Y049581D01*
X114810Y049131D01*
X114810Y048681D01*
X115060Y048681D01*
X113160Y049131D02*
X113162Y049229D01*
X113170Y049327D01*
X113182Y049424D01*
X113198Y049521D01*
X113220Y049617D01*
X113246Y049712D01*
X113277Y049805D01*
X113312Y049896D01*
X113352Y049986D01*
X113396Y050074D01*
X113445Y050159D01*
X113497Y050242D01*
X113554Y050322D01*
X113614Y050400D01*
X113678Y050474D01*
X113746Y050545D01*
X113817Y050613D01*
X113891Y050677D01*
X113969Y050737D01*
X114049Y050794D01*
X114132Y050846D01*
X114217Y050895D01*
X114305Y050939D01*
X114395Y050979D01*
X114486Y051014D01*
X114579Y051045D01*
X114674Y051071D01*
X114770Y051093D01*
X114867Y051109D01*
X114964Y051121D01*
X115062Y051129D01*
X115160Y051131D01*
X115258Y051129D01*
X115356Y051121D01*
X115453Y051109D01*
X115550Y051093D01*
X115646Y051071D01*
X115741Y051045D01*
X115834Y051014D01*
X115925Y050979D01*
X116015Y050939D01*
X116103Y050895D01*
X116188Y050846D01*
X116271Y050794D01*
X116351Y050737D01*
X116429Y050677D01*
X116503Y050613D01*
X116574Y050545D01*
X116642Y050474D01*
X116706Y050400D01*
X116766Y050322D01*
X116823Y050242D01*
X116875Y050159D01*
X116924Y050074D01*
X116968Y049986D01*
X117008Y049896D01*
X117043Y049805D01*
X117074Y049712D01*
X117100Y049617D01*
X117122Y049521D01*
X117138Y049424D01*
X117150Y049327D01*
X117158Y049229D01*
X117160Y049131D01*
X117158Y049033D01*
X117150Y048935D01*
X117138Y048838D01*
X117122Y048741D01*
X117100Y048645D01*
X117074Y048550D01*
X117043Y048457D01*
X117008Y048366D01*
X116968Y048276D01*
X116924Y048188D01*
X116875Y048103D01*
X116823Y048020D01*
X116766Y047940D01*
X116706Y047862D01*
X116642Y047788D01*
X116574Y047717D01*
X116503Y047649D01*
X116429Y047585D01*
X116351Y047525D01*
X116271Y047468D01*
X116188Y047416D01*
X116103Y047367D01*
X116015Y047323D01*
X115925Y047283D01*
X115834Y047248D01*
X115741Y047217D01*
X115646Y047191D01*
X115550Y047169D01*
X115453Y047153D01*
X115356Y047141D01*
X115258Y047133D01*
X115160Y047131D01*
X115062Y047133D01*
X114964Y047141D01*
X114867Y047153D01*
X114770Y047169D01*
X114674Y047191D01*
X114579Y047217D01*
X114486Y047248D01*
X114395Y047283D01*
X114305Y047323D01*
X114217Y047367D01*
X114132Y047416D01*
X114049Y047468D01*
X113969Y047525D01*
X113891Y047585D01*
X113817Y047649D01*
X113746Y047717D01*
X113678Y047788D01*
X113614Y047862D01*
X113554Y047940D01*
X113497Y048020D01*
X113445Y048103D01*
X113396Y048188D01*
X113352Y048276D01*
X113312Y048366D01*
X113277Y048457D01*
X113246Y048550D01*
X113220Y048645D01*
X113198Y048741D01*
X113182Y048838D01*
X113170Y048935D01*
X113162Y049033D01*
X113160Y049131D01*
X113660Y049481D02*
X113660Y049781D01*
X113810Y049631D02*
X113510Y049631D01*
X114710Y049131D02*
X114810Y049131D01*
X115410Y049131D02*
X115610Y049131D01*
X115060Y078681D02*
X115060Y079581D01*
X114810Y079581D01*
X114810Y079131D01*
X114810Y078681D01*
X115060Y078681D01*
X113160Y079131D02*
X113162Y079229D01*
X113170Y079327D01*
X113182Y079424D01*
X113198Y079521D01*
X113220Y079617D01*
X113246Y079712D01*
X113277Y079805D01*
X113312Y079896D01*
X113352Y079986D01*
X113396Y080074D01*
X113445Y080159D01*
X113497Y080242D01*
X113554Y080322D01*
X113614Y080400D01*
X113678Y080474D01*
X113746Y080545D01*
X113817Y080613D01*
X113891Y080677D01*
X113969Y080737D01*
X114049Y080794D01*
X114132Y080846D01*
X114217Y080895D01*
X114305Y080939D01*
X114395Y080979D01*
X114486Y081014D01*
X114579Y081045D01*
X114674Y081071D01*
X114770Y081093D01*
X114867Y081109D01*
X114964Y081121D01*
X115062Y081129D01*
X115160Y081131D01*
X115258Y081129D01*
X115356Y081121D01*
X115453Y081109D01*
X115550Y081093D01*
X115646Y081071D01*
X115741Y081045D01*
X115834Y081014D01*
X115925Y080979D01*
X116015Y080939D01*
X116103Y080895D01*
X116188Y080846D01*
X116271Y080794D01*
X116351Y080737D01*
X116429Y080677D01*
X116503Y080613D01*
X116574Y080545D01*
X116642Y080474D01*
X116706Y080400D01*
X116766Y080322D01*
X116823Y080242D01*
X116875Y080159D01*
X116924Y080074D01*
X116968Y079986D01*
X117008Y079896D01*
X117043Y079805D01*
X117074Y079712D01*
X117100Y079617D01*
X117122Y079521D01*
X117138Y079424D01*
X117150Y079327D01*
X117158Y079229D01*
X117160Y079131D01*
X117158Y079033D01*
X117150Y078935D01*
X117138Y078838D01*
X117122Y078741D01*
X117100Y078645D01*
X117074Y078550D01*
X117043Y078457D01*
X117008Y078366D01*
X116968Y078276D01*
X116924Y078188D01*
X116875Y078103D01*
X116823Y078020D01*
X116766Y077940D01*
X116706Y077862D01*
X116642Y077788D01*
X116574Y077717D01*
X116503Y077649D01*
X116429Y077585D01*
X116351Y077525D01*
X116271Y077468D01*
X116188Y077416D01*
X116103Y077367D01*
X116015Y077323D01*
X115925Y077283D01*
X115834Y077248D01*
X115741Y077217D01*
X115646Y077191D01*
X115550Y077169D01*
X115453Y077153D01*
X115356Y077141D01*
X115258Y077133D01*
X115160Y077131D01*
X115062Y077133D01*
X114964Y077141D01*
X114867Y077153D01*
X114770Y077169D01*
X114674Y077191D01*
X114579Y077217D01*
X114486Y077248D01*
X114395Y077283D01*
X114305Y077323D01*
X114217Y077367D01*
X114132Y077416D01*
X114049Y077468D01*
X113969Y077525D01*
X113891Y077585D01*
X113817Y077649D01*
X113746Y077717D01*
X113678Y077788D01*
X113614Y077862D01*
X113554Y077940D01*
X113497Y078020D01*
X113445Y078103D01*
X113396Y078188D01*
X113352Y078276D01*
X113312Y078366D01*
X113277Y078457D01*
X113246Y078550D01*
X113220Y078645D01*
X113198Y078741D01*
X113182Y078838D01*
X113170Y078935D01*
X113162Y079033D01*
X113160Y079131D01*
X113660Y079481D02*
X113660Y079781D01*
X113810Y079631D02*
X113510Y079631D01*
X114710Y079131D02*
X114810Y079131D01*
X115410Y079131D02*
X115610Y079131D01*
X115060Y103681D02*
X115060Y104581D01*
X114810Y104581D01*
X114810Y104131D01*
X114810Y103681D01*
X115060Y103681D01*
X113160Y104131D02*
X113162Y104229D01*
X113170Y104327D01*
X113182Y104424D01*
X113198Y104521D01*
X113220Y104617D01*
X113246Y104712D01*
X113277Y104805D01*
X113312Y104896D01*
X113352Y104986D01*
X113396Y105074D01*
X113445Y105159D01*
X113497Y105242D01*
X113554Y105322D01*
X113614Y105400D01*
X113678Y105474D01*
X113746Y105545D01*
X113817Y105613D01*
X113891Y105677D01*
X113969Y105737D01*
X114049Y105794D01*
X114132Y105846D01*
X114217Y105895D01*
X114305Y105939D01*
X114395Y105979D01*
X114486Y106014D01*
X114579Y106045D01*
X114674Y106071D01*
X114770Y106093D01*
X114867Y106109D01*
X114964Y106121D01*
X115062Y106129D01*
X115160Y106131D01*
X115258Y106129D01*
X115356Y106121D01*
X115453Y106109D01*
X115550Y106093D01*
X115646Y106071D01*
X115741Y106045D01*
X115834Y106014D01*
X115925Y105979D01*
X116015Y105939D01*
X116103Y105895D01*
X116188Y105846D01*
X116271Y105794D01*
X116351Y105737D01*
X116429Y105677D01*
X116503Y105613D01*
X116574Y105545D01*
X116642Y105474D01*
X116706Y105400D01*
X116766Y105322D01*
X116823Y105242D01*
X116875Y105159D01*
X116924Y105074D01*
X116968Y104986D01*
X117008Y104896D01*
X117043Y104805D01*
X117074Y104712D01*
X117100Y104617D01*
X117122Y104521D01*
X117138Y104424D01*
X117150Y104327D01*
X117158Y104229D01*
X117160Y104131D01*
X117158Y104033D01*
X117150Y103935D01*
X117138Y103838D01*
X117122Y103741D01*
X117100Y103645D01*
X117074Y103550D01*
X117043Y103457D01*
X117008Y103366D01*
X116968Y103276D01*
X116924Y103188D01*
X116875Y103103D01*
X116823Y103020D01*
X116766Y102940D01*
X116706Y102862D01*
X116642Y102788D01*
X116574Y102717D01*
X116503Y102649D01*
X116429Y102585D01*
X116351Y102525D01*
X116271Y102468D01*
X116188Y102416D01*
X116103Y102367D01*
X116015Y102323D01*
X115925Y102283D01*
X115834Y102248D01*
X115741Y102217D01*
X115646Y102191D01*
X115550Y102169D01*
X115453Y102153D01*
X115356Y102141D01*
X115258Y102133D01*
X115160Y102131D01*
X115062Y102133D01*
X114964Y102141D01*
X114867Y102153D01*
X114770Y102169D01*
X114674Y102191D01*
X114579Y102217D01*
X114486Y102248D01*
X114395Y102283D01*
X114305Y102323D01*
X114217Y102367D01*
X114132Y102416D01*
X114049Y102468D01*
X113969Y102525D01*
X113891Y102585D01*
X113817Y102649D01*
X113746Y102717D01*
X113678Y102788D01*
X113614Y102862D01*
X113554Y102940D01*
X113497Y103020D01*
X113445Y103103D01*
X113396Y103188D01*
X113352Y103276D01*
X113312Y103366D01*
X113277Y103457D01*
X113246Y103550D01*
X113220Y103645D01*
X113198Y103741D01*
X113182Y103838D01*
X113170Y103935D01*
X113162Y104033D01*
X113160Y104131D01*
X113660Y104481D02*
X113660Y104781D01*
X113810Y104631D02*
X113510Y104631D01*
X114710Y104131D02*
X114810Y104131D01*
X115410Y104131D02*
X115610Y104131D01*
D16*
X020010Y006406D03*
X012310Y006406D03*
D17*
X011230Y007456D03*
X021090Y007456D03*
D18*
X019260Y009406D02*
X019110Y009406D01*
X019035Y009481D01*
X019110Y009631D02*
X019335Y009631D01*
X019335Y009481D02*
X019335Y009781D01*
X019260Y009856D01*
X019110Y009856D01*
X019035Y009781D01*
X019035Y009706D01*
X019110Y009631D01*
X019260Y009406D02*
X019335Y009481D01*
X019260Y010406D02*
X019110Y010406D01*
X019035Y010481D01*
X019035Y010631D02*
X019185Y010706D01*
X019260Y010706D01*
X019335Y010631D01*
X019335Y010481D01*
X019260Y010406D01*
X019035Y010631D02*
X019035Y010856D01*
X019335Y010856D01*
X024617Y009918D02*
X025404Y009918D01*
X025404Y010903D01*
X030916Y010903D01*
X030916Y009918D01*
X031703Y009918D01*
X031703Y004407D01*
X024617Y004407D01*
X024617Y009918D01*
X014406Y006681D02*
X014331Y006756D01*
X014181Y006756D01*
X014106Y006681D01*
X014106Y006606D01*
X014181Y006531D01*
X014406Y006531D01*
X014406Y006381D02*
X014406Y006681D01*
X014406Y006381D02*
X014331Y006306D01*
X014181Y006306D01*
X014106Y006381D01*
X013946Y006381D02*
X013871Y006306D01*
X013720Y006306D01*
X013645Y006381D01*
X013946Y006681D01*
X013946Y006381D01*
X013946Y006681D02*
X013871Y006756D01*
X013720Y006756D01*
X013645Y006681D01*
X013645Y006381D01*
X013485Y006306D02*
X013485Y006756D01*
X013335Y006606D01*
X013185Y006756D01*
X013185Y006306D01*
X010935Y007916D02*
X010785Y008066D01*
X010785Y007991D01*
X010710Y007991D01*
X010710Y008066D01*
X010785Y008066D01*
X010710Y008223D02*
X010785Y008298D01*
X010785Y008448D01*
X010710Y008524D01*
X010560Y008524D01*
X010485Y008448D01*
X010485Y008373D01*
X010560Y008223D01*
X010335Y008223D01*
X010335Y008524D01*
X010560Y008684D02*
X010560Y008984D01*
X010785Y008909D02*
X010335Y008909D01*
X010560Y008684D01*
X010485Y007756D02*
X010410Y007756D01*
X010335Y007681D01*
X010335Y007531D01*
X010410Y007456D01*
X010485Y007756D02*
X010785Y007456D01*
X010785Y007756D01*
X013185Y009431D02*
X013260Y009356D01*
X013410Y009356D01*
X013485Y009431D01*
X013485Y009506D01*
X013410Y009581D01*
X013185Y009581D01*
X013185Y009431D01*
X013185Y009581D02*
X013335Y009731D01*
X013485Y009806D01*
X013485Y010406D02*
X013185Y010406D01*
X013335Y010406D02*
X013335Y010856D01*
X013185Y010706D01*
X036160Y003631D02*
X036160Y002631D01*
X037660Y002631D01*
X037660Y001131D01*
X042160Y001131D01*
X046660Y000131D01*
X046660Y002631D01*
X048160Y002631D01*
X048160Y003631D01*
X046660Y003631D01*
X046660Y010131D01*
X037660Y010131D01*
X037660Y003631D01*
X036160Y003631D01*
X037660Y003631D02*
X046660Y003631D01*
X072117Y004407D02*
X079203Y004407D01*
X079203Y009918D01*
X078416Y009918D01*
X078416Y010903D01*
X072904Y010903D01*
X072904Y009918D01*
X072117Y009918D01*
X072117Y004407D01*
D19*
X016160Y007281D03*
D20*
X016160Y005631D03*
D21*
X016160Y008856D03*
X015080Y008856D03*
X014000Y008856D03*
X017240Y008856D03*
X018320Y008856D03*
D22*
X017780Y008356D03*
X016700Y008356D03*
X015620Y008356D03*
X014540Y008356D03*
D23*
X005385Y026631D03*
X005385Y049131D03*
X005385Y079131D03*
X005385Y104131D03*
X115385Y104131D03*
X115385Y079131D03*
X115385Y049131D03*
X115385Y026631D03*
M02*
