%
M48
M72
T01C0.0240
T02C0.0400
T03C0.0512
T04C0.0730
T05C0.1000
T06C0.1300
T07C0.2000
%
T01
X14655Y4636
X38655Y7636
X39655Y3636
X40155Y3136
X51655Y11136
X53155Y11636
X52655Y13136
X52655Y15136
X67655Y7136
X61155Y52136
X62155Y53136
X61155Y61136
X62155Y61886
X7905Y58136
X7155Y56636
X7155Y48136
X7905Y47011
X1655Y29636
T02
X2655Y33136
X2655Y34136
X2655Y35136
X2655Y38136
X2655Y39136
X2655Y40136
X8343Y40136
X8343Y39136
X8343Y38136
X8343Y37136
X8343Y36136
X8343Y35136
X8343Y34136
X8343Y33136
X10185Y26261
X10685Y25395
X11185Y24529
X11685Y23663
X12185Y22797
X12685Y21931
X13185Y21065
X13685Y20199
X15905Y15636
X18718Y15166
X19584Y14666
X20450Y14166
X21316Y13666
X22182Y13166
X23048Y12666
X23914Y12166
X24780Y11666
X31655Y9824
X32655Y9824
X33655Y9824
X34655Y9824
X35655Y9824
X36655Y9824
X37655Y9824
X38655Y9824
X38655Y4136
X37655Y4136
X36655Y4136
X33655Y4136
X32655Y4136
X31655Y4136
X45530Y11666
X46396Y12166
X47262Y12666
X48128Y13166
X48994Y13666
X49860Y14166
X50726Y14666
X51592Y15166
X56625Y20199
X57125Y21065
X57625Y21931
X58125Y22797
X58625Y23663
X59125Y24529
X59625Y25395
X60125Y26261
X61967Y33136
X61967Y34136
X61967Y35136
X61967Y36136
X61967Y37136
X61967Y38136
X61967Y39136
X61967Y40136
X67655Y40136
X67655Y39136
X67655Y38136
X67655Y35136
X67655Y34136
X67655Y33136
X60125Y47011
X59625Y47877
X59125Y48743
X58625Y49609
X58125Y50475
X57625Y51341
X57125Y52207
X56625Y53073
X51592Y58106
X50726Y58606
X49860Y59106
X48994Y59606
X48128Y60106
X47261Y60606
X46395Y61106
X45529Y61606
X38655Y63448
X37655Y63448
X36655Y63448
X35655Y63448
X34655Y63448
X33655Y63448
X32655Y63448
X31655Y63448
X24780Y61606
X23914Y61106
X23048Y60606
X22182Y60106
X21316Y59606
X20449Y59106
X19583Y58606
X18717Y58106
X19155Y56636
X13685Y53073
X13185Y52207
X12685Y51341
X12185Y50475
X11685Y49609
X11185Y48743
X10685Y47877
X10185Y47011
X6155Y54636
X4155Y54636
X4155Y14636
X6155Y14636
X11495Y8136
X12575Y8136
X13655Y8136
X14735Y8136
X15815Y8136
X15275Y7136
X14195Y7136
X13115Y7136
X12035Y7136
X64155Y14636
X66155Y14636
X66155Y54636
X64155Y54636
T03
X56123Y8620
X57107Y7636
X54155Y7636
X52186Y8620
X51202Y7636
X53170Y3699
X55139Y3699
T04
X60155Y5636
X62155Y5636
X61155Y10636
X61155Y12636
X61155Y14636
T05
X2155Y9636
T06
X8725Y7636
X18585Y7636
T07
X5155Y6636
X5155Y66636
X65155Y66636
X65155Y6636
M30
