G75*
G70*
%OFA0B0*%
%FSLAX24Y24*%
%IPPOS*%
%LPD*%
%AMOC8*
5,1,8,0,0,1.08239X$1,22.5*
%
%ADD10C,0.2080*%
%ADD11R,0.0680X0.0680*%
%ADD12C,0.0680*%
%ADD13R,0.0680X0.0680*%
%ADD14OC8,0.0680*%
%ADD15C,0.0848*%
%ADD16C,0.1175*%
%ADD17C,0.1175*%
%ADD18C,0.1080*%
%ADD19OC8,0.1080*%
%ADD20C,0.1480*%
%ADD21C,0.0480*%
D10*
X005155Y006636D03*
X008725Y007636D03*
X018585Y007636D03*
X065155Y006636D03*
X065155Y066636D03*
X005155Y066636D03*
D11*
X031655Y063448D03*
X008343Y033136D03*
X038655Y009824D03*
X061967Y040136D03*
D12*
X061967Y039136D03*
X061967Y038136D03*
X061967Y037136D03*
X061967Y036136D03*
X061967Y035136D03*
X061967Y034136D03*
X061967Y033136D03*
X067655Y033136D03*
X067655Y034136D03*
X067655Y035136D03*
X067655Y038136D03*
X067655Y039136D03*
X067655Y040136D03*
X060125Y047011D03*
X059625Y047877D03*
X059125Y048743D03*
X058625Y049609D03*
X058125Y050475D03*
X057625Y051341D03*
X057125Y052207D03*
X051592Y058106D03*
X050726Y058606D03*
X049860Y059106D03*
X048994Y059606D03*
X048128Y060106D03*
X047261Y060606D03*
X046395Y061106D03*
X038655Y063448D03*
X037655Y063448D03*
X036655Y063448D03*
X035655Y063448D03*
X034655Y063448D03*
X033655Y063448D03*
X032655Y063448D03*
X024780Y061606D03*
X023914Y061106D03*
X023048Y060606D03*
X022182Y060106D03*
X021316Y059606D03*
X020449Y059106D03*
X019583Y058606D03*
X019155Y056636D03*
X013685Y053073D03*
X013185Y052207D03*
X012685Y051341D03*
X012185Y050475D03*
X011685Y049609D03*
X011185Y048743D03*
X010685Y047877D03*
X008343Y040136D03*
X008343Y039136D03*
X008343Y038136D03*
X008343Y037136D03*
X008343Y036136D03*
X008343Y035136D03*
X008343Y034136D03*
X002655Y034136D03*
X002655Y033136D03*
X002655Y035136D03*
X002655Y038136D03*
X002655Y039136D03*
X002655Y040136D03*
X010185Y026261D03*
X010685Y025395D03*
X011185Y024529D03*
X011685Y023663D03*
X012185Y022797D03*
X012685Y021931D03*
X013185Y021065D03*
X015905Y015636D03*
X018718Y015166D03*
X019584Y014666D03*
X020450Y014166D03*
X021316Y013666D03*
X022182Y013166D03*
X023048Y012666D03*
X023914Y012166D03*
X031655Y009824D03*
X032655Y009824D03*
X033655Y009824D03*
X034655Y009824D03*
X035655Y009824D03*
X036655Y009824D03*
X037655Y009824D03*
X037655Y004136D03*
X038655Y004136D03*
X036655Y004136D03*
X033655Y004136D03*
X032655Y004136D03*
X031655Y004136D03*
X045530Y011666D03*
X046396Y012166D03*
X047262Y012666D03*
X048128Y013166D03*
X048994Y013666D03*
X049860Y014166D03*
X050726Y014666D03*
X056625Y020199D03*
X057125Y021065D03*
X057625Y021931D03*
X058125Y022797D03*
X058625Y023663D03*
X059125Y024529D03*
X059625Y025395D03*
D13*
G36*
X060249Y025797D02*
X059661Y026137D01*
X060001Y026725D01*
X060589Y026385D01*
X060249Y025797D01*
G37*
G36*
X051468Y014702D02*
X051128Y015290D01*
X051716Y015630D01*
X052056Y015042D01*
X051468Y014702D01*
G37*
G36*
X024316Y011542D02*
X024656Y012130D01*
X025244Y011790D01*
X024904Y011202D01*
X024316Y011542D01*
G37*
G36*
X013221Y020323D02*
X013809Y020663D01*
X014149Y020075D01*
X013561Y019735D01*
X013221Y020323D01*
G37*
G36*
X010061Y047475D02*
X010649Y047135D01*
X010309Y046547D01*
X009721Y046887D01*
X010061Y047475D01*
G37*
G36*
X018841Y058570D02*
X019181Y057982D01*
X018593Y057642D01*
X018253Y058230D01*
X018841Y058570D01*
G37*
G36*
X045993Y061730D02*
X045653Y061142D01*
X045065Y061482D01*
X045405Y062070D01*
X045993Y061730D01*
G37*
G36*
X057089Y052949D02*
X056501Y052609D01*
X056161Y053197D01*
X056749Y053537D01*
X057089Y052949D01*
G37*
D14*
X015815Y008136D03*
X014735Y008136D03*
X013655Y008136D03*
X012575Y008136D03*
X011495Y008136D03*
X012035Y007136D03*
X013115Y007136D03*
X014195Y007136D03*
X015275Y007136D03*
D15*
X051202Y007636D03*
X052186Y008620D03*
X054155Y007636D03*
X056123Y008620D03*
X057107Y007636D03*
X055139Y003699D03*
X053170Y003699D03*
D16*
X060607Y010636D02*
X061702Y010636D01*
X061702Y012636D02*
X060607Y012636D01*
X060607Y014636D02*
X061702Y014636D01*
D17*
X062155Y005636D03*
X060155Y005636D03*
D18*
X064155Y014636D03*
X064155Y054636D03*
X004155Y054636D03*
X004155Y014636D03*
D19*
X006155Y014636D03*
X006155Y054636D03*
X066155Y054636D03*
X066155Y014636D03*
D20*
X002155Y009636D03*
D21*
X014655Y004636D03*
X038655Y007636D03*
X039655Y003636D03*
X040155Y003136D03*
X051655Y011136D03*
X053155Y011636D03*
X052655Y013136D03*
X052655Y015136D03*
X067655Y007136D03*
X061155Y052136D03*
X062155Y053136D03*
X061155Y061136D03*
X062155Y061886D03*
X007905Y058136D03*
X007155Y056636D03*
X007155Y048136D03*
X007905Y047011D03*
X001655Y029636D03*
M02*
