G75*
G70*
%OFA0B0*%
%FSLAX24Y24*%
%IPPOS*%
%LPD*%
%AMOC8*
5,1,8,0,0,1.08239X$1,22.5*
%
%ADD10C,0.0100*%
%ADD11C,0.0110*%
%ADD12C,0.0150*%
%ADD13C,0.0200*%
%ADD14C,0.0080*%
%ADD15C,0.0060*%
%ADD16R,0.0100X0.0950*%
%ADD17R,0.0400X0.0650*%
%ADD18C,0.0050*%
%ADD19R,0.7300X0.0300*%
%ADD20R,1.2200X0.0200*%
%ADD21R,0.0320X0.2850*%
%ADD22R,0.0320X0.1850*%
%ADD23R,0.0500X0.0300*%
%ADD24R,0.0500X0.1000*%
%ADD25R,0.0250X0.2550*%
%ADD26R,0.0800X0.1500*%
%ADD27R,0.0250X0.0900*%
D10*
X046705Y009686D02*
X046705Y010247D01*
X046985Y010247D01*
X047078Y010153D01*
X047078Y009966D01*
X046985Y009873D01*
X046705Y009873D01*
X046891Y009873D02*
X047078Y009686D01*
X047312Y009780D02*
X047312Y009966D01*
X047406Y010060D01*
X047593Y010060D01*
X047686Y009966D01*
X047686Y009873D01*
X047312Y009873D01*
X047312Y009780D02*
X047406Y009686D01*
X047593Y009686D01*
X047920Y009780D02*
X048013Y009686D01*
X048294Y009686D01*
X048294Y009593D02*
X048294Y010060D01*
X048013Y010060D01*
X047920Y009966D01*
X047920Y009780D01*
X048107Y009499D02*
X048200Y009499D01*
X048294Y009593D01*
X048528Y009780D02*
X048528Y010060D01*
X048528Y009780D02*
X048621Y009686D01*
X048901Y009686D01*
X048901Y010060D01*
X049136Y010247D02*
X049229Y010247D01*
X049229Y009686D01*
X049136Y009686D02*
X049322Y009686D01*
X049541Y009780D02*
X049634Y009873D01*
X049914Y009873D01*
X049914Y009966D02*
X049914Y009686D01*
X049634Y009686D01*
X049541Y009780D01*
X049634Y010060D02*
X049821Y010060D01*
X049914Y009966D01*
X050148Y010060D02*
X050335Y010060D01*
X050242Y010153D02*
X050242Y009780D01*
X050335Y009686D01*
X050553Y009780D02*
X050553Y009966D01*
X050647Y010060D01*
X050834Y010060D01*
X050927Y009966D01*
X050927Y009873D01*
X050553Y009873D01*
X050553Y009780D02*
X050647Y009686D01*
X050834Y009686D01*
X051161Y009780D02*
X051161Y009966D01*
X051255Y010060D01*
X051535Y010060D01*
X051535Y010247D02*
X051535Y009686D01*
X051255Y009686D01*
X051161Y009780D01*
X052377Y009873D02*
X052657Y009873D01*
X052750Y009966D01*
X052750Y010153D01*
X052657Y010247D01*
X052377Y010247D01*
X052377Y009686D01*
X052984Y009780D02*
X053078Y009686D01*
X053265Y009686D01*
X053358Y009780D01*
X053358Y009966D01*
X053265Y010060D01*
X053078Y010060D01*
X052984Y009966D01*
X052984Y009780D01*
X053592Y009780D02*
X053592Y010060D01*
X053592Y009780D02*
X053685Y009686D01*
X053779Y009780D01*
X053872Y009686D01*
X053966Y009780D01*
X053966Y010060D01*
X054200Y009966D02*
X054293Y010060D01*
X054480Y010060D01*
X054573Y009966D01*
X054573Y009873D01*
X054200Y009873D01*
X054200Y009780D02*
X054200Y009966D01*
X054200Y009780D02*
X054293Y009686D01*
X054480Y009686D01*
X054807Y009686D02*
X054807Y010060D01*
X054807Y009873D02*
X054994Y010060D01*
X055088Y010060D01*
X055922Y010060D02*
X056015Y009966D01*
X056202Y009966D01*
X056295Y009873D01*
X056295Y009780D01*
X056202Y009686D01*
X056015Y009686D01*
X055922Y009780D01*
X055922Y010060D02*
X055922Y010153D01*
X056015Y010247D01*
X056202Y010247D01*
X056295Y010153D01*
X056529Y010060D02*
X056529Y009780D01*
X056623Y009686D01*
X056903Y009686D01*
X056903Y010060D01*
X057137Y010060D02*
X057137Y009499D01*
X057137Y009686D02*
X057417Y009686D01*
X057511Y009780D01*
X057511Y009966D01*
X057417Y010060D01*
X057137Y010060D01*
X057745Y010060D02*
X057745Y009499D01*
X057745Y009686D02*
X058025Y009686D01*
X058118Y009780D01*
X058118Y009966D01*
X058025Y010060D01*
X057745Y010060D01*
X058352Y010247D02*
X058446Y010247D01*
X058446Y009686D01*
X058539Y009686D02*
X058352Y009686D01*
X058758Y009780D02*
X058758Y010060D01*
X058758Y009780D02*
X058851Y009686D01*
X059131Y009686D01*
X059131Y009593D02*
X059038Y009499D01*
X058944Y009499D01*
X059131Y009593D02*
X059131Y010060D01*
D11*
X063009Y010033D02*
X063600Y010033D01*
X063600Y010229D02*
X063600Y009836D01*
X063501Y009585D02*
X063600Y009486D01*
X063600Y009290D01*
X063501Y009191D01*
X063304Y009290D02*
X063304Y009486D01*
X063403Y009585D01*
X063501Y009585D01*
X063304Y009290D02*
X063206Y009191D01*
X063108Y009191D01*
X063009Y009290D01*
X063009Y009486D01*
X063108Y009585D01*
X063206Y009836D02*
X063009Y010033D01*
X064710Y011790D02*
X064808Y011691D01*
X065005Y011691D01*
X065103Y011790D01*
X065354Y011986D02*
X065748Y011986D01*
X065649Y011691D02*
X065649Y012282D01*
X065354Y011986D01*
X065103Y012183D02*
X065005Y012282D01*
X064808Y012282D01*
X064710Y012183D01*
X064710Y011790D01*
X056392Y018790D02*
X056392Y018888D01*
X056294Y018986D01*
X055999Y018986D01*
X055999Y018790D01*
X056097Y018691D01*
X056294Y018691D01*
X056392Y018790D01*
X056196Y019183D02*
X055999Y018986D01*
X055748Y018986D02*
X055649Y018888D01*
X055354Y018888D01*
X055354Y018691D02*
X055354Y019282D01*
X055649Y019282D01*
X055748Y019183D01*
X055748Y018986D01*
X056196Y019183D02*
X056392Y019282D01*
X055103Y019282D02*
X054906Y019282D01*
X055005Y019282D02*
X055005Y018790D01*
X054906Y018691D01*
X054808Y018691D01*
X054710Y018790D01*
X044892Y010782D02*
X044499Y010782D01*
X044499Y010486D01*
X044696Y010585D01*
X044794Y010585D01*
X044892Y010486D01*
X044892Y010290D01*
X044794Y010191D01*
X044597Y010191D01*
X044499Y010290D01*
X044248Y010486D02*
X044149Y010388D01*
X043854Y010388D01*
X043854Y010191D02*
X043854Y010782D01*
X044149Y010782D01*
X044248Y010683D01*
X044248Y010486D01*
X043603Y010782D02*
X043406Y010782D01*
X043505Y010782D02*
X043505Y010290D01*
X043406Y010191D01*
X043308Y010191D01*
X043210Y010290D01*
X038850Y007518D02*
X038850Y007125D01*
X038850Y007322D02*
X038259Y007322D01*
X038456Y007125D01*
X038850Y006874D02*
X038850Y006480D01*
X038259Y006480D01*
X038358Y006229D02*
X038259Y006131D01*
X038259Y005934D01*
X038358Y005836D01*
X038751Y005836D01*
X038850Y005934D01*
X038850Y006131D01*
X038751Y006229D01*
X038751Y005585D02*
X038653Y005585D01*
X038554Y005486D01*
X038554Y005290D01*
X038456Y005191D01*
X038358Y005191D01*
X038259Y005290D01*
X038259Y005486D01*
X038358Y005585D01*
X038751Y005585D02*
X038850Y005486D01*
X038850Y005290D01*
X038751Y005191D01*
X037850Y005290D02*
X037751Y005191D01*
X037850Y005290D02*
X037850Y005486D01*
X037751Y005585D01*
X037653Y005585D01*
X037554Y005486D01*
X037554Y005290D01*
X037456Y005191D01*
X037358Y005191D01*
X037259Y005290D01*
X037259Y005486D01*
X037358Y005585D01*
X037358Y005836D02*
X037259Y005934D01*
X037259Y006131D01*
X037358Y006229D01*
X037259Y006480D02*
X037850Y006480D01*
X037850Y006874D01*
X037850Y007125D02*
X037850Y007518D01*
X037850Y007322D02*
X037259Y007322D01*
X037456Y007125D01*
X036850Y007223D02*
X036751Y007125D01*
X036358Y007518D01*
X036751Y007518D01*
X036850Y007420D01*
X036850Y007223D01*
X036751Y007125D02*
X036358Y007125D01*
X036259Y007223D01*
X036259Y007420D01*
X036358Y007518D01*
X036850Y006874D02*
X036850Y006480D01*
X036259Y006480D01*
X036358Y006229D02*
X036259Y006131D01*
X036259Y005934D01*
X036358Y005836D01*
X036751Y005836D01*
X036850Y005934D01*
X036850Y006131D01*
X036751Y006229D01*
X036751Y005585D02*
X036850Y005486D01*
X036850Y005290D01*
X036751Y005191D01*
X036554Y005290D02*
X036554Y005486D01*
X036653Y005585D01*
X036751Y005585D01*
X036554Y005290D02*
X036456Y005191D01*
X036358Y005191D01*
X036259Y005290D01*
X036259Y005486D01*
X036358Y005585D01*
X035350Y005486D02*
X035350Y005191D01*
X034759Y005191D01*
X034759Y005486D01*
X034858Y005585D01*
X034956Y005585D01*
X035054Y005486D01*
X035054Y005191D01*
X035054Y005486D02*
X035153Y005585D01*
X035251Y005585D01*
X035350Y005486D01*
X035251Y005836D02*
X034759Y005836D01*
X034759Y006229D02*
X035251Y006229D01*
X035350Y006131D01*
X035350Y005934D01*
X035251Y005836D01*
X035251Y006480D02*
X035350Y006579D01*
X035350Y006776D01*
X035251Y006874D01*
X035153Y006874D01*
X035054Y006776D01*
X035054Y006579D01*
X034956Y006480D01*
X034858Y006480D01*
X034759Y006579D01*
X034759Y006776D01*
X034858Y006874D01*
X034956Y007125D02*
X034759Y007322D01*
X035350Y007322D01*
X035350Y007518D02*
X035350Y007125D01*
X035794Y008191D02*
X035794Y008782D01*
X035499Y008486D01*
X035892Y008486D01*
X035248Y008486D02*
X035248Y008683D01*
X035149Y008782D01*
X034854Y008782D01*
X034854Y008191D01*
X034854Y008388D02*
X035149Y008388D01*
X035248Y008486D01*
X034603Y008782D02*
X034406Y008782D01*
X034505Y008782D02*
X034505Y008290D01*
X034406Y008191D01*
X034308Y008191D01*
X034210Y008290D01*
X033850Y007518D02*
X033850Y007125D01*
X033850Y007322D02*
X033259Y007322D01*
X033456Y007125D01*
X033456Y006874D02*
X033850Y006874D01*
X033554Y006874D02*
X033554Y006480D01*
X033456Y006480D02*
X033259Y006677D01*
X033456Y006874D01*
X033456Y006480D02*
X033850Y006480D01*
X033751Y006229D02*
X033358Y006229D01*
X033259Y006131D01*
X033259Y005836D01*
X033850Y005836D01*
X033850Y006131D01*
X033751Y006229D01*
X033751Y005585D02*
X033653Y005585D01*
X033554Y005486D01*
X033554Y005290D01*
X033456Y005191D01*
X033358Y005191D01*
X033259Y005290D01*
X033259Y005486D01*
X033358Y005585D01*
X033751Y005585D02*
X033850Y005486D01*
X033850Y005290D01*
X033751Y005191D01*
X032850Y005290D02*
X032751Y005191D01*
X032850Y005290D02*
X032850Y005486D01*
X032751Y005585D01*
X032653Y005585D01*
X032554Y005486D01*
X032554Y005290D01*
X032456Y005191D01*
X032358Y005191D01*
X032259Y005290D01*
X032259Y005486D01*
X032358Y005585D01*
X032259Y005836D02*
X032259Y006131D01*
X032358Y006229D01*
X032751Y006229D01*
X032850Y006131D01*
X032850Y005836D01*
X032259Y005836D01*
X031850Y005836D02*
X031850Y006131D01*
X031751Y006229D01*
X031358Y006229D01*
X031259Y006131D01*
X031259Y005836D01*
X031850Y005836D01*
X031751Y005585D02*
X031850Y005486D01*
X031850Y005290D01*
X031751Y005191D01*
X031554Y005290D02*
X031554Y005486D01*
X031653Y005585D01*
X031751Y005585D01*
X031554Y005290D02*
X031456Y005191D01*
X031358Y005191D01*
X031259Y005290D01*
X031259Y005486D01*
X031358Y005585D01*
X031456Y006480D02*
X031259Y006677D01*
X031456Y006874D01*
X031850Y006874D01*
X031751Y007125D02*
X031358Y007518D01*
X031751Y007518D01*
X031850Y007420D01*
X031850Y007223D01*
X031751Y007125D01*
X031358Y007125D01*
X031259Y007223D01*
X031259Y007420D01*
X031358Y007518D01*
X031554Y006874D02*
X031554Y006480D01*
X031456Y006480D02*
X031850Y006480D01*
X032259Y006677D02*
X032456Y006874D01*
X032850Y006874D01*
X032850Y007125D02*
X032850Y007518D01*
X032850Y007322D02*
X032259Y007322D01*
X032456Y007125D01*
X032554Y006874D02*
X032554Y006480D01*
X032456Y006480D02*
X032259Y006677D01*
X032456Y006480D02*
X032850Y006480D01*
X032850Y007769D02*
X032850Y008163D01*
X032850Y007966D02*
X032259Y007966D01*
X032456Y007769D01*
X032696Y003282D02*
X032696Y002691D01*
X032892Y002691D02*
X032499Y002691D01*
X032248Y002986D02*
X032149Y002888D01*
X031854Y002888D01*
X031854Y002691D02*
X031854Y003282D01*
X032149Y003282D01*
X032248Y003183D01*
X032248Y002986D01*
X032499Y003085D02*
X032696Y003282D01*
X033143Y002986D02*
X033143Y002790D01*
X033242Y002691D01*
X033438Y002691D01*
X033537Y002790D01*
X033537Y002888D01*
X033438Y002986D01*
X033143Y002986D01*
X033340Y003183D01*
X033537Y003282D01*
X031603Y003282D02*
X031406Y003282D01*
X031505Y003282D02*
X031505Y002790D01*
X031406Y002691D01*
X031308Y002691D01*
X031210Y002790D01*
X036210Y002790D02*
X036308Y002691D01*
X036406Y002691D01*
X036505Y002790D01*
X036505Y003282D01*
X036603Y003282D02*
X036406Y003282D01*
X036854Y003282D02*
X036854Y002691D01*
X036854Y002888D02*
X037149Y002888D01*
X037248Y002986D01*
X037248Y003183D01*
X037149Y003282D01*
X036854Y003282D01*
X037499Y003085D02*
X037696Y003282D01*
X037696Y002691D01*
X037892Y002691D02*
X037499Y002691D01*
X038143Y002790D02*
X038242Y002691D01*
X038438Y002691D01*
X038537Y002790D01*
X038537Y002888D01*
X038438Y002986D01*
X038340Y002986D01*
X038438Y002986D02*
X038537Y003085D01*
X038537Y003183D01*
X038438Y003282D01*
X038242Y003282D01*
X038143Y003183D01*
X037751Y005836D02*
X037850Y005934D01*
X037850Y006131D01*
X037751Y006229D01*
X037751Y005836D02*
X037358Y005836D01*
X037456Y007769D02*
X037259Y007966D01*
X037850Y007966D01*
X037850Y007769D02*
X037850Y008163D01*
X026892Y010290D02*
X026794Y010191D01*
X026597Y010191D01*
X026499Y010290D01*
X026696Y010486D02*
X026794Y010486D01*
X026892Y010388D01*
X026892Y010290D01*
X026794Y010486D02*
X026892Y010585D01*
X026892Y010683D01*
X026794Y010782D01*
X026597Y010782D01*
X026499Y010683D01*
X026248Y010683D02*
X026248Y010486D01*
X026149Y010388D01*
X025854Y010388D01*
X025854Y010191D02*
X025854Y010782D01*
X026149Y010782D01*
X026248Y010683D01*
X025603Y010782D02*
X025406Y010782D01*
X025505Y010782D02*
X025505Y010290D01*
X025406Y010191D01*
X025308Y010191D01*
X025210Y010290D01*
X015392Y018691D02*
X014999Y018691D01*
X015392Y019085D01*
X015392Y019183D01*
X015294Y019282D01*
X015097Y019282D01*
X014999Y019183D01*
X014748Y019183D02*
X014748Y018986D01*
X014649Y018888D01*
X014354Y018888D01*
X014354Y018691D02*
X014354Y019282D01*
X014649Y019282D01*
X014748Y019183D01*
X014103Y019282D02*
X013906Y019282D01*
X014005Y019282D02*
X014005Y018790D01*
X013906Y018691D01*
X013808Y018691D01*
X013710Y018790D01*
X005748Y011691D02*
X005354Y011691D01*
X005551Y011691D02*
X005551Y012282D01*
X005354Y012085D01*
X005103Y012183D02*
X005005Y012282D01*
X004808Y012282D01*
X004710Y012183D01*
X004710Y011790D01*
X004808Y011691D01*
X005005Y011691D01*
X005103Y011790D01*
X006406Y009282D02*
X006603Y009282D01*
X006505Y009282D02*
X006505Y008790D01*
X006406Y008691D01*
X006308Y008691D01*
X006210Y008790D01*
X006854Y008691D02*
X007248Y008691D01*
X007051Y008691D02*
X007051Y009282D01*
X006854Y009085D01*
X002892Y008433D02*
X002794Y008532D01*
X002499Y008532D01*
X002499Y007941D01*
X002794Y007941D01*
X002892Y008040D01*
X002892Y008433D01*
X002248Y008532D02*
X002248Y007941D01*
X001854Y008532D01*
X001854Y007941D01*
X001603Y008040D02*
X001603Y008236D01*
X001406Y008236D01*
X001210Y008040D02*
X001308Y007941D01*
X001505Y007941D01*
X001603Y008040D01*
X001603Y008433D02*
X001505Y008532D01*
X001308Y008532D01*
X001210Y008433D01*
X001210Y008040D01*
X001808Y031691D02*
X001906Y031691D01*
X002005Y031790D01*
X002005Y032282D01*
X002103Y032282D02*
X001906Y032282D01*
X002354Y032282D02*
X002649Y032282D01*
X002748Y032183D01*
X002748Y031986D01*
X002649Y031888D01*
X002354Y031888D01*
X002354Y031691D02*
X002354Y032282D01*
X002999Y032085D02*
X003196Y032282D01*
X003196Y031691D01*
X003392Y031691D02*
X002999Y031691D01*
X003643Y031790D02*
X003742Y031691D01*
X003938Y031691D01*
X004037Y031790D01*
X004037Y031986D01*
X003938Y032085D01*
X003840Y032085D01*
X003643Y031986D01*
X003643Y032282D01*
X004037Y032282D01*
X004005Y032941D02*
X003808Y032941D01*
X003710Y033040D01*
X003808Y033236D02*
X004005Y033236D01*
X004103Y033138D01*
X004103Y033040D01*
X004005Y032941D01*
X003808Y033236D02*
X003710Y033335D01*
X003710Y033433D01*
X003808Y033532D01*
X004005Y033532D01*
X004103Y033433D01*
X004354Y033433D02*
X004354Y033040D01*
X004453Y032941D01*
X004649Y032941D01*
X004748Y033040D01*
X004999Y032941D02*
X005392Y032941D01*
X005643Y033040D02*
X005742Y032941D01*
X005938Y032941D01*
X006037Y033040D01*
X006037Y033138D01*
X005938Y033236D01*
X005840Y033236D01*
X005938Y033236D02*
X006037Y033335D01*
X006037Y033433D01*
X005938Y033532D01*
X005742Y033532D01*
X005643Y033433D01*
X005742Y033941D02*
X005643Y034040D01*
X005742Y033941D02*
X005938Y033941D01*
X006037Y034040D01*
X006037Y034138D01*
X005938Y034236D01*
X005840Y034236D01*
X005938Y034236D02*
X006037Y034335D01*
X006037Y034433D01*
X005938Y034532D01*
X005742Y034532D01*
X005643Y034433D01*
X005742Y034941D02*
X005643Y035040D01*
X006037Y035433D01*
X006037Y035040D01*
X005938Y034941D01*
X005742Y034941D01*
X005643Y035040D02*
X005643Y035433D01*
X005742Y035532D01*
X005938Y035532D01*
X006037Y035433D01*
X005392Y034941D02*
X004999Y034941D01*
X004999Y035532D01*
X004748Y035433D02*
X004649Y035532D01*
X004453Y035532D01*
X004354Y035433D01*
X004354Y035040D01*
X004453Y034941D01*
X004649Y034941D01*
X004748Y035040D01*
X004649Y034532D02*
X004453Y034532D01*
X004354Y034433D01*
X004354Y034040D01*
X004453Y033941D01*
X004649Y033941D01*
X004748Y034040D01*
X004999Y033941D02*
X004999Y034532D01*
X004748Y034433D02*
X004649Y034532D01*
X004103Y034433D02*
X004005Y034532D01*
X003808Y034532D01*
X003710Y034433D01*
X003710Y034335D01*
X003808Y034236D01*
X004005Y034236D01*
X004103Y034138D01*
X004103Y034040D01*
X004005Y033941D01*
X003808Y033941D01*
X003710Y034040D01*
X004354Y033433D02*
X004453Y033532D01*
X004649Y033532D01*
X004748Y033433D01*
X004999Y033532D02*
X004999Y032941D01*
X004999Y033941D02*
X005392Y033941D01*
X006288Y034040D02*
X006386Y033941D01*
X006583Y033941D01*
X006681Y034040D01*
X006681Y034138D01*
X006583Y034236D01*
X006485Y034236D01*
X006583Y034236D02*
X006681Y034335D01*
X006681Y034433D01*
X006583Y034532D01*
X006386Y034532D01*
X006288Y034433D01*
X005938Y036441D02*
X005742Y036441D01*
X005643Y036540D01*
X005392Y036540D02*
X005392Y036638D01*
X005294Y036736D01*
X005097Y036736D01*
X004999Y036835D01*
X004999Y036933D01*
X005097Y037032D01*
X005294Y037032D01*
X005392Y036933D01*
X005643Y036933D02*
X005742Y037032D01*
X005938Y037032D01*
X006037Y036933D01*
X006037Y036835D01*
X005938Y036736D01*
X006037Y036638D01*
X006037Y036540D01*
X005938Y036441D01*
X005938Y036736D02*
X005840Y036736D01*
X005392Y036540D02*
X005294Y036441D01*
X005097Y036441D01*
X004999Y036540D01*
X004748Y036540D02*
X004748Y037032D01*
X004354Y037032D02*
X004354Y036540D01*
X004453Y036441D01*
X004649Y036441D01*
X004748Y036540D01*
X004103Y036540D02*
X004103Y036638D01*
X004005Y036736D01*
X003710Y036736D01*
X003710Y036441D02*
X003710Y037032D01*
X004005Y037032D01*
X004103Y036933D01*
X004103Y036835D01*
X004005Y036736D01*
X004103Y036540D02*
X004005Y036441D01*
X003710Y036441D01*
X003808Y035532D02*
X003710Y035433D01*
X003710Y035335D01*
X003808Y035236D01*
X004005Y035236D01*
X004103Y035138D01*
X004103Y035040D01*
X004005Y034941D01*
X003808Y034941D01*
X003710Y035040D01*
X003808Y035532D02*
X004005Y035532D01*
X004103Y035433D01*
X004005Y037941D02*
X003808Y037941D01*
X003710Y038040D01*
X003808Y038236D02*
X004005Y038236D01*
X004103Y038138D01*
X004103Y038040D01*
X004005Y037941D01*
X004354Y037941D02*
X004354Y038532D01*
X004649Y038532D01*
X004748Y038433D01*
X004748Y038040D01*
X004649Y037941D01*
X004354Y037941D01*
X004103Y038433D02*
X004005Y038532D01*
X003808Y038532D01*
X003710Y038433D01*
X003710Y038335D01*
X003808Y038236D01*
X003808Y038941D02*
X003710Y039040D01*
X003808Y038941D02*
X004005Y038941D01*
X004103Y039040D01*
X004103Y039138D01*
X004005Y039236D01*
X003808Y039236D01*
X003710Y039335D01*
X003710Y039433D01*
X003808Y039532D01*
X004005Y039532D01*
X004103Y039433D01*
X004354Y039532D02*
X004649Y039532D01*
X004748Y039433D01*
X004748Y039040D01*
X004649Y038941D01*
X004354Y038941D01*
X004354Y039532D01*
X004354Y039941D02*
X004649Y039941D01*
X004748Y040040D01*
X004748Y040433D01*
X004649Y040532D01*
X004354Y040532D01*
X004354Y039941D01*
X004103Y040040D02*
X004005Y039941D01*
X003808Y039941D01*
X003710Y040040D01*
X003808Y040236D02*
X004005Y040236D01*
X004103Y040138D01*
X004103Y040040D01*
X003808Y040236D02*
X003710Y040335D01*
X003710Y040433D01*
X003808Y040532D01*
X004005Y040532D01*
X004103Y040433D01*
X003938Y040941D02*
X003742Y040941D01*
X003643Y041040D01*
X003643Y041138D01*
X003742Y041236D01*
X003938Y041236D01*
X004037Y041138D01*
X004037Y041040D01*
X003938Y040941D01*
X003938Y041236D02*
X004037Y041335D01*
X004037Y041433D01*
X003938Y041532D01*
X003742Y041532D01*
X003643Y041433D01*
X003643Y041335D01*
X003742Y041236D01*
X003392Y040941D02*
X002999Y040941D01*
X003196Y040941D02*
X003196Y041532D01*
X002999Y041335D01*
X002748Y041433D02*
X002748Y041236D01*
X002649Y041138D01*
X002354Y041138D01*
X002354Y040941D02*
X002354Y041532D01*
X002649Y041532D01*
X002748Y041433D01*
X002103Y041532D02*
X001906Y041532D01*
X002005Y041532D02*
X002005Y041040D01*
X001906Y040941D01*
X001808Y040941D01*
X001710Y041040D01*
X004999Y040335D02*
X004999Y039941D01*
X004999Y040236D02*
X005392Y040236D01*
X005392Y040335D02*
X005392Y039941D01*
X005643Y040040D02*
X006037Y040433D01*
X006037Y040040D01*
X005938Y039941D01*
X005742Y039941D01*
X005643Y040040D01*
X005643Y040433D01*
X005742Y040532D01*
X005938Y040532D01*
X006037Y040433D01*
X005392Y040335D02*
X005196Y040532D01*
X004999Y040335D01*
X005196Y039532D02*
X005392Y039335D01*
X005392Y038941D01*
X005643Y039040D02*
X005742Y038941D01*
X005938Y038941D01*
X006037Y039040D01*
X006037Y039138D01*
X005938Y039236D01*
X005840Y039236D01*
X005938Y039236D02*
X006037Y039335D01*
X006037Y039433D01*
X005938Y039532D01*
X005742Y039532D01*
X005643Y039433D01*
X005392Y039236D02*
X004999Y039236D01*
X004999Y039335D02*
X005196Y039532D01*
X004999Y039335D02*
X004999Y038941D01*
X005196Y038532D02*
X005392Y038335D01*
X005392Y037941D01*
X005643Y038040D02*
X005742Y037941D01*
X005938Y037941D01*
X006037Y038040D01*
X006037Y038138D01*
X005938Y038236D01*
X005840Y038236D01*
X005938Y038236D02*
X006037Y038335D01*
X006037Y038433D01*
X005938Y038532D01*
X005742Y038532D01*
X005643Y038433D01*
X005392Y038236D02*
X004999Y038236D01*
X004999Y038335D02*
X005196Y038532D01*
X004999Y038335D02*
X004999Y037941D01*
X006288Y039040D02*
X006386Y038941D01*
X006583Y038941D01*
X006681Y039040D01*
X006681Y039138D01*
X006583Y039236D01*
X006485Y039236D01*
X006583Y039236D02*
X006681Y039335D01*
X006681Y039433D01*
X006583Y039532D01*
X006386Y039532D01*
X006288Y039433D01*
X008808Y045191D02*
X008906Y045191D01*
X009005Y045290D01*
X009005Y045782D01*
X009103Y045782D02*
X008906Y045782D01*
X009354Y045782D02*
X009354Y045191D01*
X009354Y045388D02*
X009649Y045388D01*
X009748Y045486D01*
X009748Y045683D01*
X009649Y045782D01*
X009354Y045782D01*
X009999Y045585D02*
X010196Y045782D01*
X010196Y045191D01*
X010392Y045191D02*
X009999Y045191D01*
X010643Y045191D02*
X011037Y045585D01*
X011037Y045683D01*
X010938Y045782D01*
X010742Y045782D01*
X010643Y045683D01*
X010643Y045191D02*
X011037Y045191D01*
X008808Y045191D02*
X008710Y045290D01*
X005748Y051691D02*
X005354Y051691D01*
X005748Y052085D01*
X005748Y052183D01*
X005649Y052282D01*
X005453Y052282D01*
X005354Y052183D01*
X005103Y052183D02*
X005005Y052282D01*
X004808Y052282D01*
X004710Y052183D01*
X004710Y051790D01*
X004808Y051691D01*
X005005Y051691D01*
X005103Y051790D01*
X015710Y057290D02*
X015808Y057191D01*
X015906Y057191D01*
X016005Y057290D01*
X016005Y057782D01*
X016103Y057782D02*
X015906Y057782D01*
X016354Y057782D02*
X016354Y057191D01*
X016354Y057388D02*
X016649Y057388D01*
X016748Y057486D01*
X016748Y057683D01*
X016649Y057782D01*
X016354Y057782D01*
X016999Y057585D02*
X017196Y057782D01*
X017196Y057191D01*
X017392Y057191D02*
X016999Y057191D01*
X017643Y057191D02*
X018037Y057191D01*
X017840Y057191D02*
X017840Y057782D01*
X017643Y057585D01*
X039210Y062290D02*
X039308Y062191D01*
X039406Y062191D01*
X039505Y062290D01*
X039505Y062782D01*
X039603Y062782D02*
X039406Y062782D01*
X039854Y062782D02*
X040149Y062782D01*
X040248Y062683D01*
X040248Y062486D01*
X040149Y062388D01*
X039854Y062388D01*
X039854Y062191D02*
X039854Y062782D01*
X040499Y062585D02*
X040696Y062782D01*
X040696Y062191D01*
X040892Y062191D02*
X040499Y062191D01*
X041143Y062290D02*
X041143Y062683D01*
X041242Y062782D01*
X041438Y062782D01*
X041537Y062683D01*
X041143Y062290D01*
X041242Y062191D01*
X041438Y062191D01*
X041537Y062290D01*
X041537Y062683D01*
X052656Y057782D02*
X052853Y057782D01*
X052755Y057782D02*
X052755Y057290D01*
X052656Y057191D01*
X052558Y057191D01*
X052460Y057290D01*
X053104Y057388D02*
X053399Y057388D01*
X053498Y057486D01*
X053498Y057683D01*
X053399Y057782D01*
X053104Y057782D01*
X053104Y057191D01*
X053749Y057290D02*
X053847Y057191D01*
X054044Y057191D01*
X054142Y057290D01*
X054142Y057683D01*
X054044Y057782D01*
X053847Y057782D01*
X053749Y057683D01*
X053749Y057585D01*
X053847Y057486D01*
X054142Y057486D01*
X064710Y052183D02*
X064710Y051790D01*
X064808Y051691D01*
X065005Y051691D01*
X065103Y051790D01*
X065354Y051790D02*
X065453Y051691D01*
X065649Y051691D01*
X065748Y051790D01*
X065748Y051888D01*
X065649Y051986D01*
X065551Y051986D01*
X065649Y051986D02*
X065748Y052085D01*
X065748Y052183D01*
X065649Y052282D01*
X065453Y052282D01*
X065354Y052183D01*
X065103Y052183D02*
X065005Y052282D01*
X064808Y052282D01*
X064710Y052183D01*
X061794Y046032D02*
X061892Y045933D01*
X061892Y045835D01*
X061794Y045736D01*
X061597Y045736D01*
X061499Y045835D01*
X061499Y045933D01*
X061597Y046032D01*
X061794Y046032D01*
X061794Y045736D02*
X061892Y045638D01*
X061892Y045540D01*
X061794Y045441D01*
X061597Y045441D01*
X061499Y045540D01*
X061499Y045638D01*
X061597Y045736D01*
X061248Y045736D02*
X061149Y045638D01*
X060854Y045638D01*
X060854Y045441D02*
X060854Y046032D01*
X061149Y046032D01*
X061248Y045933D01*
X061248Y045736D01*
X060603Y046032D02*
X060406Y046032D01*
X060505Y046032D02*
X060505Y045540D01*
X060406Y045441D01*
X060308Y045441D01*
X060210Y045540D01*
X064480Y040332D02*
X064381Y040233D01*
X064381Y040135D01*
X064480Y040036D01*
X064677Y040036D01*
X064775Y039938D01*
X064775Y039840D01*
X064677Y039741D01*
X064480Y039741D01*
X064381Y039840D01*
X064480Y040332D02*
X064677Y040332D01*
X064775Y040233D01*
X065026Y040233D02*
X065026Y039840D01*
X065124Y039741D01*
X065321Y039741D01*
X065420Y039840D01*
X065671Y039741D02*
X066064Y039741D01*
X066315Y039741D02*
X066709Y040135D01*
X066709Y040233D01*
X066610Y040332D01*
X066413Y040332D01*
X066315Y040233D01*
X066315Y039741D02*
X066709Y039741D01*
X066610Y039332D02*
X066413Y039332D01*
X066315Y039233D01*
X066064Y039233D02*
X065966Y039332D01*
X065769Y039332D01*
X065671Y039233D01*
X066064Y039233D02*
X066064Y039135D01*
X065671Y038741D01*
X066064Y038741D01*
X066315Y038741D02*
X066709Y039135D01*
X066709Y039233D01*
X066610Y039332D01*
X066709Y038741D02*
X066315Y038741D01*
X066413Y038332D02*
X066610Y038332D01*
X066709Y038233D01*
X066315Y037840D01*
X066413Y037741D01*
X066610Y037741D01*
X066709Y037840D01*
X066709Y038233D01*
X066413Y038332D02*
X066315Y038233D01*
X066315Y037840D01*
X066064Y037741D02*
X065671Y037741D01*
X065671Y038332D01*
X065420Y038233D02*
X065321Y038332D01*
X065124Y038332D01*
X065026Y038233D01*
X065026Y037840D01*
X065124Y037741D01*
X065321Y037741D01*
X065420Y037840D01*
X064775Y037840D02*
X064677Y037741D01*
X064480Y037741D01*
X064381Y037840D01*
X064480Y038036D02*
X064677Y038036D01*
X064775Y037938D01*
X064775Y037840D01*
X064480Y038036D02*
X064381Y038135D01*
X064381Y038233D01*
X064480Y038332D01*
X064677Y038332D01*
X064775Y038233D01*
X064677Y038741D02*
X064775Y038840D01*
X064677Y038741D02*
X064480Y038741D01*
X064381Y038840D01*
X064381Y039233D01*
X064480Y039332D01*
X064677Y039332D01*
X064775Y039233D01*
X065026Y039332D02*
X065026Y038741D01*
X065420Y038741D01*
X065671Y039741D02*
X065671Y040332D01*
X065420Y040233D02*
X065321Y040332D01*
X065124Y040332D01*
X065026Y040233D01*
X064032Y039332D02*
X063835Y039332D01*
X063737Y039233D01*
X063737Y039135D01*
X063835Y039036D01*
X064032Y039036D01*
X064131Y038938D01*
X064131Y038840D01*
X064032Y038741D01*
X063835Y038741D01*
X063737Y038840D01*
X064131Y039233D02*
X064032Y039332D01*
X064381Y036832D02*
X064677Y036832D01*
X064775Y036733D01*
X064775Y036635D01*
X064677Y036536D01*
X064381Y036536D01*
X064381Y036241D02*
X064677Y036241D01*
X064775Y036340D01*
X064775Y036438D01*
X064677Y036536D01*
X065026Y036340D02*
X065026Y036832D01*
X065420Y036832D02*
X065420Y036340D01*
X065321Y036241D01*
X065124Y036241D01*
X065026Y036340D01*
X065671Y036340D02*
X065769Y036241D01*
X065966Y036241D01*
X066064Y036340D01*
X066064Y036438D01*
X065966Y036536D01*
X065769Y036536D01*
X065671Y036635D01*
X065671Y036733D01*
X065769Y036832D01*
X065966Y036832D01*
X066064Y036733D01*
X066315Y036733D02*
X066413Y036832D01*
X066610Y036832D01*
X066709Y036733D01*
X066709Y036635D01*
X066315Y036241D01*
X066709Y036241D01*
X066610Y035332D02*
X066413Y035332D01*
X066315Y035233D01*
X066064Y035135D02*
X066064Y034741D01*
X066315Y034741D02*
X066709Y035135D01*
X066709Y035233D01*
X066610Y035332D01*
X066064Y035135D02*
X065867Y035332D01*
X065671Y035135D01*
X065671Y034741D01*
X065420Y034840D02*
X065420Y035233D01*
X065321Y035332D01*
X065026Y035332D01*
X065026Y034741D01*
X065321Y034741D01*
X065420Y034840D01*
X065671Y035036D02*
X066064Y035036D01*
X066315Y034741D02*
X066709Y034741D01*
X066610Y034332D02*
X066413Y034332D01*
X066315Y034233D01*
X066064Y034233D02*
X065966Y034332D01*
X065769Y034332D01*
X065671Y034233D01*
X065420Y034135D02*
X065420Y033741D01*
X065671Y033741D02*
X066064Y034135D01*
X066064Y034233D01*
X066064Y033741D02*
X065671Y033741D01*
X065420Y034036D02*
X065026Y034036D01*
X065026Y034135D02*
X065223Y034332D01*
X065420Y034135D01*
X065026Y034135D02*
X065026Y033741D01*
X064775Y033840D02*
X064775Y034233D01*
X064677Y034332D01*
X064381Y034332D01*
X064381Y033741D01*
X064677Y033741D01*
X064775Y033840D01*
X064677Y033332D02*
X064480Y033332D01*
X064381Y033233D01*
X064381Y033135D01*
X064480Y033036D01*
X064677Y033036D01*
X064775Y032938D01*
X064775Y032840D01*
X064677Y032741D01*
X064480Y032741D01*
X064381Y032840D01*
X064775Y033233D02*
X064677Y033332D01*
X065026Y033332D02*
X065026Y032741D01*
X065321Y032741D01*
X065420Y032840D01*
X065420Y033233D01*
X065321Y033332D01*
X065026Y033332D01*
X065671Y033135D02*
X065671Y032741D01*
X065671Y033036D02*
X066064Y033036D01*
X066064Y033135D02*
X066064Y032741D01*
X066315Y032840D02*
X066709Y033233D01*
X066709Y032840D01*
X066610Y032741D01*
X066413Y032741D01*
X066315Y032840D01*
X066315Y033233D01*
X066413Y033332D01*
X066610Y033332D01*
X066709Y033233D01*
X066709Y033741D02*
X066315Y033741D01*
X066709Y034135D01*
X066709Y034233D01*
X066610Y034332D01*
X065867Y033332D02*
X066064Y033135D01*
X065867Y033332D02*
X065671Y033135D01*
X066906Y032282D02*
X067103Y032282D01*
X067005Y032282D02*
X067005Y031790D01*
X066906Y031691D01*
X066808Y031691D01*
X066710Y031790D01*
X067354Y031888D02*
X067649Y031888D01*
X067748Y031986D01*
X067748Y032183D01*
X067649Y032282D01*
X067354Y032282D01*
X067354Y031691D01*
X067999Y031691D02*
X068392Y031691D01*
X068196Y031691D02*
X068196Y032282D01*
X067999Y032085D01*
X068643Y032282D02*
X069037Y032282D01*
X069037Y032183D01*
X068643Y031790D01*
X068643Y031691D01*
X064775Y034840D02*
X064677Y034741D01*
X064480Y034741D01*
X064381Y034840D01*
X064480Y035036D02*
X064677Y035036D01*
X064775Y034938D01*
X064775Y034840D01*
X064480Y035036D02*
X064381Y035135D01*
X064381Y035233D01*
X064480Y035332D01*
X064677Y035332D01*
X064775Y035233D01*
X064381Y036241D02*
X064381Y036832D01*
X064032Y034332D02*
X063835Y034332D01*
X063737Y034233D01*
X063737Y034135D01*
X063835Y034036D01*
X064032Y034036D01*
X064131Y033938D01*
X064131Y033840D01*
X064032Y033741D01*
X063835Y033741D01*
X063737Y033840D01*
X064131Y034233D02*
X064032Y034332D01*
X062892Y032282D02*
X062499Y032282D01*
X062248Y032183D02*
X062248Y031986D01*
X062149Y031888D01*
X061854Y031888D01*
X061854Y031691D02*
X061854Y032282D01*
X062149Y032282D01*
X062248Y032183D01*
X062499Y031790D02*
X062499Y031691D01*
X062499Y031790D02*
X062892Y032183D01*
X062892Y032282D01*
X061603Y032282D02*
X061406Y032282D01*
X061505Y032282D02*
X061505Y031790D01*
X061406Y031691D01*
X061308Y031691D01*
X061210Y031790D01*
X066808Y040941D02*
X066710Y041040D01*
X066808Y040941D02*
X066906Y040941D01*
X067005Y041040D01*
X067005Y041532D01*
X067103Y041532D02*
X066906Y041532D01*
X067354Y041532D02*
X067649Y041532D01*
X067748Y041433D01*
X067748Y041236D01*
X067649Y041138D01*
X067354Y041138D01*
X067354Y040941D02*
X067354Y041532D01*
X067999Y041335D02*
X068196Y041532D01*
X068196Y040941D01*
X068392Y040941D02*
X067999Y040941D01*
X068643Y041236D02*
X069037Y041236D01*
X068938Y040941D02*
X068938Y041532D01*
X068643Y041236D01*
X050149Y004282D02*
X049953Y004282D01*
X049854Y004183D01*
X049603Y004282D02*
X049406Y004282D01*
X049505Y004282D02*
X049505Y003790D01*
X049406Y003691D01*
X049308Y003691D01*
X049210Y003790D01*
X049854Y003691D02*
X050248Y004085D01*
X050248Y004183D01*
X050149Y004282D01*
X050248Y003691D02*
X049854Y003691D01*
X009392Y031691D02*
X008999Y031691D01*
X009196Y031691D02*
X009196Y032282D01*
X008999Y032085D01*
X008748Y032183D02*
X008748Y031986D01*
X008649Y031888D01*
X008354Y031888D01*
X008354Y031691D02*
X008354Y032282D01*
X008649Y032282D01*
X008748Y032183D01*
X008103Y032282D02*
X007906Y032282D01*
X008005Y032282D02*
X008005Y031790D01*
X007906Y031691D01*
X007808Y031691D01*
X007710Y031790D01*
X001808Y031691D02*
X001710Y031790D01*
D12*
X006230Y029062D02*
X006230Y028211D01*
X006655Y028211D01*
X006797Y028353D01*
X006797Y028495D01*
X006655Y028637D01*
X006230Y028637D01*
X006230Y029062D02*
X006655Y029062D01*
X006797Y028920D01*
X006797Y028778D01*
X006655Y028637D01*
X007150Y028353D02*
X007150Y029062D01*
X007718Y029062D02*
X007718Y028353D01*
X007576Y028211D01*
X007292Y028211D01*
X007150Y028353D01*
X008071Y028353D02*
X008213Y028211D01*
X008496Y028211D01*
X008638Y028353D01*
X008638Y028495D01*
X008496Y028637D01*
X008213Y028637D01*
X008071Y028778D01*
X008071Y028920D01*
X008213Y029062D01*
X008496Y029062D01*
X008638Y028920D01*
X008992Y028920D02*
X009134Y029062D01*
X009417Y029062D01*
X009559Y028920D01*
X008992Y028353D01*
X009134Y028211D01*
X009417Y028211D01*
X009559Y028353D01*
X009559Y028920D01*
X008992Y028920D02*
X008992Y028353D01*
X012980Y055211D02*
X013405Y055211D01*
X013547Y055353D01*
X013547Y055495D01*
X013405Y055637D01*
X012980Y055637D01*
X012980Y056062D02*
X012980Y055211D01*
X013405Y055637D02*
X013547Y055778D01*
X013547Y055920D01*
X013405Y056062D01*
X012980Y056062D01*
X013900Y056062D02*
X013900Y055353D01*
X014042Y055211D01*
X014326Y055211D01*
X014468Y055353D01*
X014468Y056062D01*
X014821Y055920D02*
X014821Y055778D01*
X014963Y055637D01*
X015246Y055637D01*
X015388Y055495D01*
X015388Y055353D01*
X015246Y055211D01*
X014963Y055211D01*
X014821Y055353D01*
X014821Y055920D02*
X014963Y056062D01*
X015246Y056062D01*
X015388Y055920D01*
X015742Y055920D02*
X015884Y056062D01*
X016167Y056062D01*
X016309Y055920D01*
X016309Y055778D01*
X016167Y055637D01*
X016309Y055495D01*
X016309Y055353D01*
X016167Y055211D01*
X015884Y055211D01*
X015742Y055353D01*
X016025Y055637D02*
X016167Y055637D01*
X017396Y067428D02*
X017538Y067428D01*
X017680Y067569D01*
X017680Y068278D01*
X017255Y068278D01*
X017113Y068137D01*
X017113Y067853D01*
X017255Y067711D01*
X017680Y067711D01*
X018034Y067711D02*
X018034Y068562D01*
X018175Y068278D02*
X018459Y068278D01*
X018601Y068137D01*
X018601Y067711D01*
X018954Y067853D02*
X018954Y068137D01*
X019096Y068278D01*
X019380Y068278D01*
X019522Y068137D01*
X019522Y067995D01*
X018954Y067995D01*
X018954Y067853D02*
X019096Y067711D01*
X019380Y067711D01*
X019875Y067711D02*
X020301Y067711D01*
X020442Y067853D01*
X020301Y067995D01*
X020017Y067995D01*
X019875Y068137D01*
X020017Y068278D01*
X020442Y068278D01*
X020182Y069211D02*
X020182Y070062D01*
X020607Y070062D01*
X020749Y069920D01*
X020749Y069637D01*
X020607Y069495D01*
X020182Y069495D01*
X020466Y069495D02*
X020749Y069211D01*
X021103Y069353D02*
X021103Y069637D01*
X021245Y069778D01*
X021528Y069778D01*
X021670Y069637D01*
X021670Y069495D01*
X021103Y069495D01*
X021103Y069353D02*
X021245Y069211D01*
X021528Y069211D01*
X022024Y069211D02*
X022449Y069211D01*
X022591Y069353D01*
X022449Y069495D01*
X022165Y069495D01*
X022024Y069637D01*
X022165Y069778D01*
X022591Y069778D01*
X022944Y069637D02*
X023086Y069778D01*
X023370Y069778D01*
X023511Y069637D01*
X023511Y069495D01*
X022944Y069495D01*
X022944Y069353D02*
X022944Y069637D01*
X022944Y069353D02*
X023086Y069211D01*
X023370Y069211D01*
X023865Y069353D02*
X024007Y069495D01*
X024432Y069495D01*
X024432Y069637D02*
X024432Y069211D01*
X024007Y069211D01*
X023865Y069353D01*
X024007Y069778D02*
X024290Y069778D01*
X024432Y069637D01*
X024786Y069778D02*
X024786Y069211D01*
X024786Y069495D02*
X025069Y069778D01*
X025211Y069778D01*
X025553Y069637D02*
X025553Y069353D01*
X025695Y069211D01*
X026120Y069211D01*
X026474Y069211D02*
X026474Y070062D01*
X026616Y069778D02*
X026899Y069778D01*
X027041Y069637D01*
X027041Y069211D01*
X027076Y068562D02*
X027076Y067711D01*
X026934Y067711D02*
X027218Y067711D01*
X026581Y067711D02*
X026155Y067711D01*
X026013Y067853D01*
X026155Y067995D01*
X026581Y067995D01*
X026581Y068137D02*
X026581Y067711D01*
X026581Y068137D02*
X026439Y068278D01*
X026155Y068278D01*
X025660Y068278D02*
X025234Y068278D01*
X025093Y068137D01*
X025093Y067853D01*
X025234Y067711D01*
X025660Y067711D01*
X024762Y067711D02*
X024479Y067711D01*
X024621Y067711D02*
X024621Y068278D01*
X024479Y068278D01*
X024621Y068562D02*
X024621Y068704D01*
X024125Y068562D02*
X024125Y067711D01*
X023700Y067711D01*
X023558Y067853D01*
X023558Y068137D01*
X023700Y068278D01*
X024125Y068278D01*
X023205Y068137D02*
X023205Y067995D01*
X022637Y067995D01*
X022637Y068137D02*
X022779Y068278D01*
X023063Y068278D01*
X023205Y068137D01*
X023063Y067711D02*
X022779Y067711D01*
X022637Y067853D01*
X022637Y068137D01*
X022284Y068562D02*
X022284Y067711D01*
X021717Y067711D02*
X021717Y068562D01*
X022000Y068278D01*
X022284Y068562D01*
X018908Y069211D02*
X018908Y069637D01*
X018766Y069778D01*
X018624Y069637D01*
X018624Y069211D01*
X018341Y069211D02*
X018341Y069778D01*
X018482Y069778D01*
X018624Y069637D01*
X017999Y069778D02*
X017857Y069778D01*
X017573Y069495D01*
X017573Y069778D02*
X017573Y069211D01*
X017220Y069211D02*
X016794Y069211D01*
X016653Y069353D01*
X016794Y069495D01*
X017220Y069495D01*
X017220Y069637D02*
X017220Y069211D01*
X017220Y069637D02*
X017078Y069778D01*
X016794Y069778D01*
X016299Y070062D02*
X015732Y070062D01*
X015732Y069211D01*
X015732Y069637D02*
X016015Y069637D01*
X015839Y068562D02*
X015839Y067711D01*
X016192Y067853D02*
X016192Y068278D01*
X015839Y068137D02*
X015271Y068137D01*
X015271Y068562D02*
X015271Y067711D01*
X016192Y067853D02*
X016334Y067711D01*
X016759Y067711D01*
X016759Y068278D01*
X018034Y068137D02*
X018175Y068278D01*
X014457Y069211D02*
X014032Y069211D01*
X013890Y069353D01*
X014032Y069495D01*
X014457Y069495D01*
X014457Y069637D02*
X014457Y069211D01*
X014457Y069637D02*
X014316Y069778D01*
X014032Y069778D01*
X013418Y069778D02*
X013418Y069211D01*
X013276Y069211D02*
X013560Y069211D01*
X013418Y069778D02*
X013276Y069778D01*
X013418Y070062D02*
X013418Y070204D01*
X012804Y070062D02*
X012804Y069211D01*
X012663Y069211D02*
X012946Y069211D01*
X012309Y069495D02*
X012309Y069637D01*
X012167Y069778D01*
X011884Y069778D01*
X011742Y069637D01*
X011742Y069353D01*
X011884Y069211D01*
X012167Y069211D01*
X012309Y069495D02*
X011742Y069495D01*
X011388Y069637D02*
X011388Y069211D01*
X011388Y069637D02*
X011246Y069778D01*
X010821Y069778D01*
X010821Y069211D01*
X010468Y069211D02*
X010468Y069637D01*
X010326Y069778D01*
X010042Y069778D01*
X010042Y069495D02*
X010468Y069495D01*
X010468Y069211D02*
X010042Y069211D01*
X009900Y069353D01*
X010042Y069495D01*
X009405Y069353D02*
X009405Y070062D01*
X009263Y070062D02*
X009547Y070062D01*
X009405Y069353D02*
X009263Y069211D01*
X009121Y069211D01*
X008980Y069353D01*
X008980Y068562D02*
X008980Y067711D01*
X008980Y068137D02*
X009547Y068137D01*
X009900Y068137D02*
X010042Y068278D01*
X010326Y068278D01*
X010468Y068137D01*
X010468Y067853D01*
X010326Y067711D01*
X010042Y067711D01*
X009900Y067853D01*
X009900Y068137D01*
X009547Y068562D02*
X009547Y067711D01*
X010821Y067853D02*
X010963Y067711D01*
X011105Y067853D01*
X011246Y067711D01*
X011388Y067853D01*
X011388Y068278D01*
X011884Y068278D02*
X012167Y068278D01*
X012309Y068137D01*
X012309Y067711D01*
X011884Y067711D01*
X011742Y067853D01*
X011884Y067995D01*
X012309Y067995D01*
X012663Y067995D02*
X012946Y068278D01*
X013088Y068278D01*
X013430Y068137D02*
X013572Y068278D01*
X013997Y068278D01*
X013997Y068562D02*
X013997Y067711D01*
X013572Y067711D01*
X013430Y067853D01*
X013430Y068137D01*
X012663Y068278D02*
X012663Y067711D01*
X010821Y067853D02*
X010821Y068278D01*
X012663Y070062D02*
X012804Y070062D01*
X025553Y069637D02*
X025695Y069778D01*
X026120Y069778D01*
X026474Y069637D02*
X026616Y069778D01*
X026934Y068562D02*
X027076Y068562D01*
X028469Y068562D02*
X028752Y068562D01*
X028611Y068562D02*
X028611Y067711D01*
X028752Y067711D02*
X028469Y067711D01*
X029083Y067711D02*
X029083Y068278D01*
X029508Y068278D01*
X029650Y068137D01*
X029650Y067711D01*
X030003Y067711D02*
X030429Y067711D01*
X030570Y067853D01*
X030429Y067995D01*
X030145Y067995D01*
X030003Y068137D01*
X030145Y068278D01*
X030570Y068278D01*
X030924Y068278D02*
X031208Y068278D01*
X031066Y068420D02*
X031066Y067853D01*
X031208Y067711D01*
X031538Y067711D02*
X031821Y067711D01*
X031680Y067711D02*
X031680Y068278D01*
X031538Y068278D01*
X031680Y068562D02*
X031680Y068704D01*
X031503Y069211D02*
X031078Y069211D01*
X031078Y068928D02*
X031078Y069778D01*
X031503Y069778D01*
X031645Y069637D01*
X031645Y069353D01*
X031503Y069211D01*
X031998Y069353D02*
X031998Y069778D01*
X031998Y069353D02*
X032140Y069211D01*
X032565Y069211D01*
X032565Y069778D01*
X032919Y069637D02*
X033061Y069778D01*
X033486Y069778D01*
X033344Y069495D02*
X033061Y069495D01*
X032919Y069637D01*
X032919Y069211D02*
X033344Y069211D01*
X033486Y069353D01*
X033344Y069495D01*
X033828Y068420D02*
X033828Y067853D01*
X033970Y067711D01*
X034300Y067853D02*
X034300Y068137D01*
X034442Y068278D01*
X034725Y068278D01*
X034867Y068137D01*
X034867Y067995D01*
X034300Y067995D01*
X034300Y067853D02*
X034442Y067711D01*
X034725Y067711D01*
X033970Y068278D02*
X033686Y068278D01*
X033333Y068278D02*
X033333Y067711D01*
X032907Y067711D01*
X032766Y067853D01*
X032766Y068278D01*
X032435Y068278D02*
X032152Y068278D01*
X032294Y068420D02*
X032294Y067853D01*
X032435Y067711D01*
X030724Y069211D02*
X030724Y069637D01*
X030582Y069778D01*
X030440Y069637D01*
X030440Y069211D01*
X030157Y069211D02*
X030157Y069778D01*
X030299Y069778D01*
X030440Y069637D01*
X029803Y069637D02*
X029803Y069211D01*
X029378Y069211D01*
X029236Y069353D01*
X029378Y069495D01*
X029803Y069495D01*
X029803Y069637D02*
X029661Y069778D01*
X029378Y069778D01*
X028882Y069920D02*
X028741Y070062D01*
X028457Y070062D01*
X028315Y069920D01*
X028315Y069353D01*
X028457Y069211D01*
X028741Y069211D01*
X028882Y069353D01*
X034761Y069211D02*
X035328Y069778D01*
X035328Y069920D01*
X035186Y070062D01*
X034902Y070062D01*
X034761Y069920D01*
X034761Y069211D02*
X035328Y069211D01*
X035681Y069353D02*
X036248Y069920D01*
X036248Y069353D01*
X036107Y069211D01*
X035823Y069211D01*
X035681Y069353D01*
X035681Y069920D01*
X035823Y070062D01*
X036107Y070062D01*
X036248Y069920D01*
X036602Y069778D02*
X036886Y070062D01*
X036886Y069211D01*
X037169Y069211D02*
X036602Y069211D01*
X037523Y069353D02*
X037523Y069920D01*
X037665Y070062D01*
X037948Y070062D01*
X038090Y069920D01*
X037523Y069353D01*
X037665Y069211D01*
X037948Y069211D01*
X038090Y069353D01*
X038090Y069920D01*
X043980Y069353D02*
X044121Y069211D01*
X044263Y069211D01*
X044405Y069353D01*
X044405Y070062D01*
X044263Y070062D02*
X044547Y070062D01*
X044900Y070062D02*
X045468Y070062D01*
X045184Y069637D02*
X044900Y069637D01*
X044900Y070062D02*
X044900Y069211D01*
X045821Y069637D02*
X046388Y069637D01*
X046742Y069211D02*
X046742Y070062D01*
X047025Y069778D01*
X047309Y070062D01*
X047309Y069211D01*
X047663Y069211D02*
X047663Y070062D01*
X048088Y070062D01*
X048230Y069920D01*
X048230Y069637D01*
X048088Y069495D01*
X047663Y069495D01*
X047946Y069495D02*
X048230Y069211D01*
X048583Y069637D02*
X049151Y069637D01*
X049504Y069637D02*
X049788Y069637D01*
X050071Y070062D02*
X049504Y070062D01*
X049504Y069211D01*
X050425Y069211D02*
X050425Y069778D01*
X050708Y070062D01*
X050992Y069778D01*
X050992Y069211D01*
X051346Y069353D02*
X051913Y069920D01*
X051913Y069353D01*
X051771Y069211D01*
X051487Y069211D01*
X051346Y069353D01*
X051346Y069920D01*
X051487Y070062D01*
X051771Y070062D01*
X051913Y069920D01*
X052266Y069920D02*
X052266Y069353D01*
X052834Y069920D01*
X052834Y069353D01*
X052692Y069211D01*
X052408Y069211D01*
X052266Y069353D01*
X052266Y069920D02*
X052408Y070062D01*
X052692Y070062D01*
X052834Y069920D01*
X053187Y069920D02*
X053329Y070062D01*
X053612Y070062D01*
X053754Y069920D01*
X053187Y069353D01*
X053329Y069211D01*
X053612Y069211D01*
X053754Y069353D01*
X053754Y069920D01*
X054108Y069778D02*
X054391Y070062D01*
X054391Y069211D01*
X054108Y069211D02*
X054675Y069211D01*
X055949Y069211D02*
X055949Y070062D01*
X056375Y070062D01*
X056516Y069920D01*
X056516Y069637D01*
X056375Y069495D01*
X055949Y069495D01*
X056233Y069495D02*
X056516Y069211D01*
X056870Y069353D02*
X056870Y069637D01*
X057012Y069778D01*
X057295Y069778D01*
X057437Y069637D01*
X057437Y069495D01*
X056870Y069495D01*
X056870Y069353D02*
X057012Y069211D01*
X057295Y069211D01*
X057791Y069778D02*
X058074Y069211D01*
X058358Y069778D01*
X059632Y069637D02*
X060058Y069637D01*
X060199Y069495D01*
X060199Y069353D01*
X060058Y069211D01*
X059632Y069211D01*
X059632Y070062D01*
X060058Y070062D01*
X060199Y069920D01*
X060199Y069778D01*
X060058Y069637D01*
X053187Y069353D02*
X053187Y069920D01*
X050992Y069637D02*
X050425Y069637D01*
X054480Y055812D02*
X054905Y055812D01*
X055047Y055670D01*
X055047Y055528D01*
X054905Y055387D01*
X054480Y055387D01*
X054480Y055812D02*
X054480Y054961D01*
X054905Y054961D01*
X055047Y055103D01*
X055047Y055245D01*
X054905Y055387D01*
X055400Y055103D02*
X055400Y055812D01*
X055968Y055812D02*
X055968Y055103D01*
X055826Y054961D01*
X055542Y054961D01*
X055400Y055103D01*
X056321Y055103D02*
X056463Y054961D01*
X056746Y054961D01*
X056888Y055103D01*
X056888Y055245D01*
X056746Y055387D01*
X056463Y055387D01*
X056321Y055528D01*
X056321Y055670D01*
X056463Y055812D01*
X056746Y055812D01*
X056888Y055670D01*
X057242Y055670D02*
X057384Y055812D01*
X057667Y055812D01*
X057809Y055670D01*
X057809Y055528D01*
X057242Y054961D01*
X057809Y054961D01*
X056275Y017062D02*
X055992Y016778D01*
X055638Y016920D02*
X055496Y017062D01*
X055213Y017062D01*
X055071Y016920D01*
X055071Y016778D01*
X055213Y016637D01*
X055496Y016637D01*
X055638Y016495D01*
X055638Y016353D01*
X055496Y016211D01*
X055213Y016211D01*
X055071Y016353D01*
X054718Y016353D02*
X054718Y017062D01*
X054150Y017062D02*
X054150Y016353D01*
X054292Y016211D01*
X054576Y016211D01*
X054718Y016353D01*
X053797Y016353D02*
X053655Y016211D01*
X053230Y016211D01*
X053230Y017062D01*
X053655Y017062D01*
X053797Y016920D01*
X053797Y016778D01*
X053655Y016637D01*
X053230Y016637D01*
X053655Y016637D02*
X053797Y016495D01*
X053797Y016353D01*
X055992Y016211D02*
X056559Y016211D01*
X056275Y016211D02*
X056275Y017062D01*
D13*
X059155Y026636D02*
X058644Y025492D01*
X058080Y024375D01*
X057462Y023285D01*
X056792Y022227D01*
X056072Y021203D01*
X055304Y020214D01*
X054488Y019263D01*
X053628Y018353D01*
X052725Y017486D01*
X051781Y016663D01*
X050798Y015886D01*
X049780Y015158D01*
X048727Y014480D01*
X047643Y013853D01*
X046530Y013280D01*
X045390Y012760D01*
X044227Y012297D01*
X043043Y011890D01*
X041840Y011540D01*
X040622Y011249D01*
X039391Y011017D01*
X038151Y010845D01*
X036904Y010732D01*
X035653Y010680D01*
X034400Y010688D01*
X033150Y010757D01*
X031904Y010886D01*
X025155Y012636D02*
X024011Y013147D01*
X022894Y013711D01*
X021804Y014329D01*
X020746Y014999D01*
X019722Y015719D01*
X018733Y016487D01*
X017782Y017303D01*
X016872Y018163D01*
X016005Y019066D01*
X015182Y020010D01*
X014405Y020993D01*
X013677Y022011D01*
X012999Y023064D01*
X012372Y024148D01*
X011799Y025261D01*
X011279Y026401D01*
X010816Y027564D01*
X010409Y028748D01*
X010059Y029951D01*
X009768Y031169D01*
X009536Y032400D01*
X009364Y033640D01*
X009251Y034887D01*
X009199Y036138D01*
X009207Y037391D01*
X009276Y038641D01*
X009405Y039887D01*
X011155Y046636D02*
X011661Y047771D01*
X012221Y048880D01*
X012834Y049961D01*
X013498Y051011D01*
X014211Y052028D01*
X014972Y053010D01*
X015779Y053955D01*
X016631Y054859D01*
X017525Y055722D01*
X018459Y056541D01*
X019432Y057314D01*
X020440Y058040D01*
X021482Y058717D01*
X022555Y059343D01*
X023657Y059917D01*
X024786Y060437D01*
X025937Y060903D01*
X027110Y061313D01*
X028301Y061667D01*
X029508Y061963D01*
X030727Y062201D01*
X031957Y062380D01*
X033194Y062500D01*
X034435Y062561D01*
X035677Y062562D01*
X036918Y062504D01*
X038155Y062386D01*
X045155Y060637D02*
X046299Y060126D01*
X047416Y059562D01*
X048506Y058944D01*
X049564Y058274D01*
X050588Y057554D01*
X051577Y056786D01*
X052528Y055970D01*
X053438Y055110D01*
X054305Y054207D01*
X055128Y053263D01*
X055905Y052280D01*
X056633Y051262D01*
X057311Y050209D01*
X057938Y049125D01*
X058511Y048012D01*
X059031Y046872D01*
X059494Y045709D01*
X059901Y044525D01*
X060251Y043322D01*
X060542Y042104D01*
X060774Y040873D01*
X060946Y039633D01*
X061059Y038386D01*
X061111Y037135D01*
X061103Y035882D01*
X061034Y034632D01*
X060905Y033386D01*
D14*
X061467Y033386D02*
X061467Y032886D01*
X061717Y032636D01*
X062217Y032636D01*
X062467Y032886D01*
X062467Y033386D01*
X062217Y033636D01*
X062467Y033886D01*
X062467Y034386D01*
X062217Y034636D01*
X062467Y034886D01*
X062467Y035386D01*
X062217Y035636D01*
X062467Y035886D01*
X062467Y036386D01*
X062217Y036636D01*
X062467Y036886D01*
X062467Y037386D01*
X062217Y037636D01*
X062467Y037886D01*
X062467Y038386D01*
X062217Y038636D01*
X062467Y038886D01*
X062467Y039386D01*
X062217Y039636D01*
X062467Y039886D01*
X062467Y040386D01*
X062217Y040636D01*
X061717Y040636D01*
X061467Y040386D01*
X061467Y039886D01*
X061717Y039636D01*
X061467Y039386D01*
X061467Y038886D01*
X061717Y038636D01*
X061467Y038386D01*
X061467Y037886D01*
X061717Y037636D01*
X061467Y037386D01*
X061467Y036886D01*
X061717Y036636D01*
X061467Y036386D01*
X061467Y035886D01*
X061717Y035636D01*
X061467Y035386D01*
X061467Y034886D01*
X061717Y034636D01*
X061467Y034386D01*
X061467Y033886D01*
X061717Y033636D01*
X061467Y033386D01*
X067155Y033386D02*
X067155Y032886D01*
X067405Y032636D01*
X067905Y032636D01*
X068155Y032886D01*
X068155Y033386D01*
X067905Y033636D01*
X068155Y033886D01*
X068155Y034386D01*
X067905Y034636D01*
X068155Y034886D01*
X068155Y035386D01*
X067905Y035636D01*
X067405Y035636D01*
X067155Y035386D01*
X067155Y034886D01*
X067405Y034636D01*
X067155Y034386D01*
X067155Y033886D01*
X067405Y033636D01*
X067155Y033386D01*
X067405Y037636D02*
X067155Y037886D01*
X067155Y038386D01*
X067405Y038636D01*
X067155Y038886D01*
X067155Y039386D01*
X067405Y039636D01*
X067155Y039886D01*
X067155Y040386D01*
X067405Y040636D01*
X067905Y040636D01*
X068155Y040386D01*
X068155Y039886D01*
X067905Y039636D01*
X068155Y039386D01*
X068155Y038886D01*
X067905Y038636D01*
X068155Y038386D01*
X068155Y037886D01*
X067905Y037636D01*
X067405Y037636D01*
X060591Y046703D02*
X060158Y046453D01*
X059817Y046545D01*
X059567Y046978D01*
X059658Y047319D01*
X059317Y047411D01*
X059067Y047844D01*
X059158Y048185D01*
X058817Y048277D01*
X058567Y048710D01*
X058658Y049051D01*
X058317Y049143D01*
X058067Y049576D01*
X058158Y049917D01*
X057817Y050009D01*
X057567Y050442D01*
X057658Y050783D01*
X057317Y050875D01*
X057067Y051308D01*
X057158Y051649D01*
X056817Y051741D01*
X056567Y052174D01*
X056658Y052515D01*
X056317Y052607D01*
X056067Y053040D01*
X056158Y053381D01*
X056591Y053631D01*
X056933Y053540D01*
X057183Y053107D01*
X057091Y052765D01*
X057433Y052674D01*
X057683Y052241D01*
X057591Y051899D01*
X057933Y051808D01*
X058183Y051375D01*
X058091Y051033D01*
X058433Y050942D01*
X058683Y050509D01*
X058591Y050167D01*
X058933Y050076D01*
X059183Y049643D01*
X059091Y049301D01*
X059433Y049210D01*
X059683Y048777D01*
X059591Y048435D01*
X059933Y048344D01*
X060183Y047911D01*
X060091Y047569D01*
X060433Y047478D01*
X060683Y047045D01*
X060591Y046703D01*
X051900Y057640D02*
X051558Y057548D01*
X051125Y057798D01*
X051034Y058140D01*
X050692Y058048D01*
X050259Y058298D01*
X050168Y058640D01*
X049826Y058548D01*
X049393Y058798D01*
X049302Y059140D01*
X048960Y059048D01*
X048527Y059298D01*
X048436Y059640D01*
X048094Y059548D01*
X047661Y059798D01*
X047570Y060140D01*
X047228Y060048D01*
X046795Y060298D01*
X046704Y060640D01*
X046362Y060548D01*
X045929Y060798D01*
X045837Y061140D01*
X045496Y061048D01*
X045063Y061298D01*
X044971Y061640D01*
X045221Y062073D01*
X045563Y062164D01*
X045996Y061914D01*
X046087Y061573D01*
X046429Y061664D01*
X046862Y061414D01*
X046954Y061073D01*
X047295Y061164D01*
X047728Y060914D01*
X047820Y060573D01*
X048161Y060664D01*
X048594Y060414D01*
X048686Y060073D01*
X049027Y060164D01*
X049460Y059914D01*
X049552Y059573D01*
X049893Y059664D01*
X050326Y059414D01*
X050418Y059073D01*
X050759Y059164D01*
X051192Y058914D01*
X051284Y058573D01*
X051625Y058664D01*
X052058Y058414D01*
X052150Y058073D01*
X051900Y057640D01*
X039155Y063198D02*
X038905Y062948D01*
X038405Y062948D01*
X038155Y063198D01*
X037905Y062948D01*
X037405Y062948D01*
X037155Y063198D01*
X036905Y062948D01*
X036405Y062948D01*
X036155Y063198D01*
X035905Y062948D01*
X035405Y062948D01*
X035155Y063198D01*
X034905Y062948D01*
X034405Y062948D01*
X034155Y063198D01*
X033905Y062948D01*
X033405Y062948D01*
X033155Y063198D01*
X032905Y062948D01*
X032405Y062948D01*
X032155Y063198D01*
X031905Y062948D01*
X031405Y062948D01*
X031155Y063198D01*
X031155Y063698D01*
X031405Y063948D01*
X031905Y063948D01*
X032155Y063698D01*
X032405Y063948D01*
X032905Y063948D01*
X033155Y063698D01*
X033405Y063948D01*
X033905Y063948D01*
X034155Y063698D01*
X034405Y063948D01*
X034905Y063948D01*
X035155Y063698D01*
X035405Y063948D01*
X035905Y063948D01*
X036155Y063698D01*
X036405Y063948D01*
X036905Y063948D01*
X037155Y063698D01*
X037405Y063948D01*
X037905Y063948D01*
X038155Y063698D01*
X038405Y063948D01*
X038905Y063948D01*
X039155Y063698D01*
X039155Y063198D01*
X025338Y061640D02*
X025246Y061298D01*
X024813Y061048D01*
X024472Y061140D01*
X024380Y060798D01*
X023947Y060548D01*
X023606Y060640D01*
X023514Y060298D01*
X023081Y060048D01*
X022740Y060140D01*
X022648Y059798D01*
X022215Y059548D01*
X021874Y059640D01*
X021782Y059298D01*
X021349Y059048D01*
X021008Y059140D01*
X020916Y058798D01*
X020483Y058548D01*
X020141Y058640D01*
X020050Y058298D01*
X019617Y058048D01*
X019275Y058140D01*
X019184Y057798D01*
X018751Y057548D01*
X018409Y057640D01*
X018159Y058073D01*
X018251Y058414D01*
X018684Y058664D01*
X019025Y058573D01*
X019117Y058914D01*
X019550Y059164D01*
X019891Y059073D01*
X019983Y059414D01*
X020416Y059664D01*
X020758Y059573D01*
X020849Y059914D01*
X021282Y060164D01*
X021624Y060073D01*
X021715Y060414D01*
X022148Y060664D01*
X022490Y060573D01*
X022581Y060914D01*
X023014Y061164D01*
X023356Y061073D01*
X023447Y061414D01*
X023880Y061664D01*
X024222Y061573D01*
X024313Y061914D01*
X024746Y062164D01*
X025088Y062073D01*
X025338Y061640D01*
X014151Y053381D02*
X014243Y053040D01*
X013993Y052607D01*
X013651Y052515D01*
X013743Y052174D01*
X013493Y051741D01*
X013151Y051649D01*
X013243Y051308D01*
X012993Y050875D01*
X012651Y050783D01*
X012743Y050442D01*
X012493Y050009D01*
X012151Y049917D01*
X012243Y049576D01*
X011993Y049143D01*
X011651Y049051D01*
X011743Y048710D01*
X011493Y048277D01*
X011151Y048185D01*
X011243Y047844D01*
X010993Y047411D01*
X010651Y047319D01*
X010743Y046978D01*
X010493Y046545D01*
X010151Y046453D01*
X009718Y046703D01*
X009627Y047045D01*
X009877Y047478D01*
X010218Y047569D01*
X010127Y047911D01*
X010377Y048344D01*
X010718Y048435D01*
X010627Y048777D01*
X010877Y049210D01*
X011218Y049301D01*
X011127Y049643D01*
X011377Y050076D01*
X011718Y050167D01*
X011627Y050509D01*
X011877Y050942D01*
X012218Y051033D01*
X012127Y051375D01*
X012377Y051808D01*
X012718Y051899D01*
X012627Y052241D01*
X012877Y052674D01*
X013218Y052765D01*
X013127Y053107D01*
X013377Y053540D01*
X013718Y053631D01*
X014151Y053381D01*
X008593Y040636D02*
X008093Y040636D01*
X007843Y040386D01*
X007843Y039886D01*
X008093Y039636D01*
X007843Y039386D01*
X007843Y038886D01*
X008093Y038636D01*
X007843Y038386D01*
X007843Y037886D01*
X008093Y037636D01*
X007843Y037386D01*
X007843Y036886D01*
X008093Y036636D01*
X007843Y036386D01*
X007843Y035886D01*
X008093Y035636D01*
X007843Y035386D01*
X007843Y034886D01*
X008093Y034636D01*
X007843Y034386D01*
X007843Y033886D01*
X008093Y033636D01*
X007843Y033386D01*
X007843Y032886D01*
X008093Y032636D01*
X008593Y032636D01*
X008843Y032886D01*
X008843Y033386D01*
X008593Y033636D01*
X008843Y033886D01*
X008843Y034386D01*
X008593Y034636D01*
X008843Y034886D01*
X008843Y035386D01*
X008593Y035636D01*
X008843Y035886D01*
X008843Y036386D01*
X008593Y036636D01*
X008843Y036886D01*
X008843Y037386D01*
X008593Y037636D01*
X008843Y037886D01*
X008843Y038386D01*
X008593Y038636D01*
X008843Y038886D01*
X008843Y039386D01*
X008593Y039636D01*
X008843Y039886D01*
X008843Y040386D01*
X008593Y040636D01*
X003155Y040386D02*
X003155Y039886D01*
X002905Y039636D01*
X003155Y039386D01*
X003155Y038886D01*
X002905Y038636D01*
X003155Y038386D01*
X003155Y037886D01*
X002905Y037636D01*
X002405Y037636D01*
X002155Y037886D01*
X002155Y038386D01*
X002405Y038636D01*
X002155Y038886D01*
X002155Y039386D01*
X002405Y039636D01*
X002155Y039886D01*
X002155Y040386D01*
X002405Y040636D01*
X002905Y040636D01*
X003155Y040386D01*
X002905Y035636D02*
X002405Y035636D01*
X002155Y035386D01*
X002155Y034886D01*
X002405Y034636D01*
X002155Y034386D01*
X002155Y033886D01*
X002405Y033636D01*
X002155Y033386D01*
X002155Y032886D01*
X002405Y032636D01*
X002905Y032636D01*
X003155Y032886D01*
X003155Y033386D01*
X002905Y033636D01*
X003155Y033886D01*
X003155Y034386D01*
X002905Y034636D01*
X003155Y034886D01*
X003155Y035386D01*
X002905Y035636D01*
X009718Y026569D02*
X010151Y026819D01*
X010493Y026728D01*
X010743Y026295D01*
X010651Y025953D01*
X010993Y025862D01*
X011243Y025429D01*
X011151Y025087D01*
X011493Y024996D01*
X011743Y024563D01*
X011651Y024221D01*
X011993Y024130D01*
X012243Y023697D01*
X012151Y023355D01*
X012493Y023264D01*
X012743Y022831D01*
X012651Y022489D01*
X012993Y022398D01*
X013243Y021965D01*
X013151Y021623D01*
X013493Y021532D01*
X013743Y021099D01*
X013651Y020757D01*
X013993Y020666D01*
X014243Y020233D01*
X014151Y019891D01*
X013718Y019641D01*
X013377Y019733D01*
X013127Y020166D01*
X013218Y020507D01*
X012877Y020599D01*
X012627Y021032D01*
X012718Y021373D01*
X012377Y021465D01*
X012127Y021898D01*
X012218Y022239D01*
X011877Y022331D01*
X011627Y022764D01*
X011718Y023105D01*
X011377Y023197D01*
X011127Y023630D01*
X011218Y023971D01*
X010877Y024063D01*
X010627Y024496D01*
X010718Y024837D01*
X010377Y024929D01*
X010127Y025362D01*
X010218Y025703D01*
X009877Y025795D01*
X009627Y026228D01*
X009718Y026569D01*
X018410Y015633D02*
X018160Y015200D01*
X018251Y014858D01*
X018684Y014608D01*
X019026Y014700D01*
X019117Y014358D01*
X019550Y014108D01*
X019892Y014200D01*
X019983Y013858D01*
X020416Y013608D01*
X020758Y013700D01*
X020849Y013358D01*
X021282Y013108D01*
X021624Y013200D01*
X021715Y012858D01*
X022148Y012608D01*
X022490Y012700D01*
X022581Y012358D01*
X023014Y012108D01*
X023356Y012200D01*
X023447Y011858D01*
X023880Y011608D01*
X024222Y011700D01*
X024313Y011358D01*
X024746Y011108D01*
X025088Y011200D01*
X025338Y011633D01*
X025246Y011974D01*
X024813Y012224D01*
X024472Y012133D01*
X024380Y012474D01*
X023947Y012724D01*
X023606Y012633D01*
X023514Y012974D01*
X023081Y013224D01*
X022740Y013133D01*
X022648Y013474D01*
X022215Y013724D01*
X021874Y013633D01*
X021782Y013974D01*
X021349Y014224D01*
X021008Y014133D01*
X020916Y014474D01*
X020483Y014724D01*
X020142Y014633D01*
X020050Y014974D01*
X019617Y015224D01*
X019276Y015133D01*
X019184Y015474D01*
X018751Y015724D01*
X018410Y015633D01*
X031155Y010074D02*
X031155Y009574D01*
X031405Y009324D01*
X031905Y009324D01*
X032155Y009574D01*
X032405Y009324D01*
X032905Y009324D01*
X033155Y009574D01*
X033405Y009324D01*
X033905Y009324D01*
X034155Y009574D01*
X034405Y009324D01*
X034905Y009324D01*
X035155Y009574D01*
X035405Y009324D01*
X035905Y009324D01*
X036155Y009574D01*
X036405Y009324D01*
X036905Y009324D01*
X037155Y009574D01*
X037405Y009324D01*
X037905Y009324D01*
X038155Y009574D01*
X038405Y009324D01*
X038905Y009324D01*
X039155Y009574D01*
X039155Y010074D01*
X038905Y010324D01*
X038405Y010324D01*
X038155Y010074D01*
X037905Y010324D01*
X037405Y010324D01*
X037155Y010074D01*
X036905Y010324D01*
X036405Y010324D01*
X036155Y010074D01*
X035905Y010324D01*
X035405Y010324D01*
X035155Y010074D01*
X034905Y010324D01*
X034405Y010324D01*
X034155Y010074D01*
X033905Y010324D01*
X033405Y010324D01*
X033155Y010074D01*
X032905Y010324D01*
X032405Y010324D01*
X032155Y010074D01*
X031905Y010324D01*
X031405Y010324D01*
X031155Y010074D01*
X031405Y004636D02*
X031155Y004386D01*
X031155Y003886D01*
X031405Y003636D01*
X031905Y003636D01*
X032155Y003886D01*
X032405Y003636D01*
X032905Y003636D01*
X033155Y003886D01*
X033405Y003636D01*
X033905Y003636D01*
X034155Y003886D01*
X034155Y004386D01*
X033905Y004636D01*
X033405Y004636D01*
X033155Y004386D01*
X032905Y004636D01*
X032405Y004636D01*
X032155Y004386D01*
X031905Y004636D01*
X031405Y004636D01*
X036155Y004386D02*
X036155Y003886D01*
X036405Y003636D01*
X036905Y003636D01*
X037155Y003886D01*
X037405Y003636D01*
X037905Y003636D01*
X038155Y003886D01*
X038405Y003636D01*
X038905Y003636D01*
X039155Y003886D01*
X039155Y004386D01*
X038905Y004636D01*
X038405Y004636D01*
X038155Y004386D01*
X037905Y004636D01*
X037405Y004636D01*
X037155Y004386D01*
X036905Y004636D01*
X036405Y004636D01*
X036155Y004386D01*
X045222Y011200D02*
X044972Y011633D01*
X045063Y011974D01*
X045496Y012224D01*
X045838Y012133D01*
X045929Y012474D01*
X046362Y012724D01*
X046704Y012633D01*
X046795Y012974D01*
X047228Y013224D01*
X047570Y013133D01*
X047661Y013474D01*
X048094Y013724D01*
X048436Y013633D01*
X048527Y013974D01*
X048960Y014224D01*
X049302Y014133D01*
X049393Y014474D01*
X049826Y014724D01*
X050168Y014633D01*
X050259Y014974D01*
X050692Y015224D01*
X051034Y015133D01*
X051125Y015474D01*
X051558Y015724D01*
X051900Y015633D01*
X052150Y015200D01*
X052058Y014858D01*
X051625Y014608D01*
X051284Y014700D01*
X051192Y014358D01*
X050759Y014108D01*
X050418Y014200D01*
X050326Y013858D01*
X049893Y013608D01*
X049552Y013700D01*
X049460Y013358D01*
X049027Y013108D01*
X048686Y013200D01*
X048594Y012858D01*
X048161Y012608D01*
X047820Y012700D01*
X047728Y012358D01*
X047295Y012108D01*
X046954Y012200D01*
X046862Y011858D01*
X046429Y011608D01*
X046088Y011700D01*
X045996Y011358D01*
X045563Y011108D01*
X045222Y011200D01*
X056158Y019891D02*
X056067Y020233D01*
X056317Y020666D01*
X056658Y020757D01*
X056567Y021099D01*
X056817Y021532D01*
X057158Y021623D01*
X057067Y021965D01*
X057317Y022398D01*
X057658Y022489D01*
X057567Y022831D01*
X057817Y023264D01*
X058158Y023355D01*
X058067Y023697D01*
X058317Y024130D01*
X058658Y024221D01*
X058567Y024563D01*
X058817Y024996D01*
X059158Y025087D01*
X059067Y025429D01*
X059317Y025862D01*
X059658Y025953D01*
X059567Y026295D01*
X059817Y026728D01*
X060158Y026819D01*
X060591Y026569D01*
X060683Y026228D01*
X060433Y025795D01*
X060091Y025703D01*
X060183Y025362D01*
X059933Y024929D01*
X059591Y024837D01*
X059683Y024496D01*
X059433Y024063D01*
X059091Y023971D01*
X059183Y023630D01*
X058933Y023197D01*
X058591Y023105D01*
X058683Y022764D01*
X058433Y022331D01*
X058091Y022239D01*
X058183Y021898D01*
X057933Y021465D01*
X057591Y021373D01*
X057683Y021032D01*
X057433Y020599D01*
X057091Y020507D01*
X057183Y020166D01*
X056933Y019733D01*
X056591Y019641D01*
X056158Y019891D01*
D15*
X010355Y003036D02*
X007555Y003036D01*
X007555Y003236D01*
X008555Y003236D01*
X009555Y003236D01*
X009555Y003436D01*
X009605Y003436D01*
X009605Y004386D01*
X009607Y004416D01*
X009612Y004446D01*
X009621Y004475D01*
X009634Y004502D01*
X009649Y004528D01*
X009668Y004552D01*
X009689Y004573D01*
X009713Y004592D01*
X009739Y004607D01*
X009766Y004620D01*
X009795Y004629D01*
X009825Y004634D01*
X009855Y004636D01*
X009905Y004636D02*
X009905Y008686D01*
X009705Y008886D01*
X007755Y008886D01*
X007555Y008686D01*
X007555Y004686D01*
X009555Y004686D01*
X009555Y004636D01*
X007555Y004636D01*
X007555Y004686D01*
X007555Y004636D02*
X007555Y003436D01*
X008555Y003436D01*
X008555Y003536D01*
X009555Y003536D01*
X009555Y003436D01*
X009605Y003436D02*
X017705Y003436D01*
X017705Y004386D01*
X017703Y004416D01*
X017698Y004446D01*
X017689Y004475D01*
X017676Y004502D01*
X017661Y004528D01*
X017642Y004552D01*
X017621Y004573D01*
X017597Y004592D01*
X017571Y004607D01*
X017544Y004620D01*
X017515Y004629D01*
X017485Y004634D01*
X017455Y004636D01*
X017405Y004636D02*
X017405Y008686D01*
X017605Y008886D01*
X019505Y008886D01*
X019755Y008636D01*
X019755Y004686D01*
X017755Y004686D01*
X017755Y004636D01*
X017405Y004636D01*
X017305Y004636D01*
X010005Y004636D01*
X009905Y004636D01*
X009555Y004636D01*
X010005Y004636D02*
X010005Y004936D01*
X017305Y004936D01*
X017305Y004636D01*
X017755Y004636D02*
X019755Y004636D01*
X019755Y004686D01*
X019755Y004636D02*
X019755Y003436D01*
X019755Y003236D01*
X018755Y003236D01*
X018755Y003436D01*
X018755Y003536D01*
X017755Y003536D01*
X017755Y003436D01*
X017705Y003436D01*
X017755Y003436D02*
X017755Y003236D01*
X009555Y003236D01*
X009955Y003036D02*
X009985Y003034D01*
X010015Y003029D01*
X010044Y003020D01*
X010071Y003007D01*
X010097Y002992D01*
X010121Y002973D01*
X010142Y002952D01*
X010161Y002928D01*
X010176Y002902D01*
X010189Y002875D01*
X010198Y002846D01*
X010203Y002816D01*
X010205Y002786D01*
X010205Y000936D01*
X010355Y000936D02*
X010355Y003036D01*
X016955Y003036D01*
X019755Y003036D01*
X019755Y003236D01*
X019755Y003436D02*
X018755Y003436D01*
X018755Y003236D02*
X017755Y003236D01*
X017355Y003036D02*
X017325Y003034D01*
X017295Y003029D01*
X017266Y003020D01*
X017239Y003007D01*
X017213Y002992D01*
X017189Y002973D01*
X017168Y002952D01*
X017149Y002928D01*
X017134Y002902D01*
X017121Y002875D01*
X017112Y002846D01*
X017107Y002816D01*
X017105Y002786D01*
X017105Y000936D01*
X016955Y000936D02*
X016955Y003036D01*
X016805Y002836D02*
X016805Y000736D01*
X010505Y000736D01*
X010405Y000736D01*
X010505Y000736D02*
X010505Y002836D01*
X011655Y002136D02*
X011655Y001236D01*
X011805Y001236D01*
X011805Y001986D01*
X012405Y001986D01*
X012405Y001236D01*
X012555Y001236D01*
X012555Y002136D01*
X011655Y002136D01*
X013205Y002136D02*
X013205Y001236D01*
X013355Y001236D01*
X013355Y001986D01*
X013955Y001986D01*
X013955Y001236D01*
X014105Y001236D01*
X014105Y002136D01*
X013205Y002136D01*
X014755Y002136D02*
X014755Y001236D01*
X014905Y001236D01*
X014905Y001986D01*
X015505Y001986D01*
X015505Y001236D01*
X015655Y001236D01*
X015655Y002136D01*
X014755Y002136D01*
X016805Y000736D02*
X016905Y000736D01*
X016931Y000738D01*
X016957Y000743D01*
X016982Y000751D01*
X017005Y000763D01*
X017027Y000777D01*
X017046Y000795D01*
X017064Y000814D01*
X017078Y000836D01*
X017090Y000859D01*
X017098Y000884D01*
X017103Y000910D01*
X017105Y000936D01*
X017935Y007636D02*
X017937Y007686D01*
X017943Y007736D01*
X017953Y007786D01*
X017966Y007834D01*
X017983Y007882D01*
X018004Y007928D01*
X018028Y007972D01*
X018056Y008014D01*
X018087Y008054D01*
X018121Y008091D01*
X018158Y008126D01*
X018197Y008157D01*
X018238Y008186D01*
X018282Y008211D01*
X018328Y008233D01*
X018375Y008251D01*
X018423Y008265D01*
X018472Y008276D01*
X018522Y008283D01*
X018572Y008286D01*
X018623Y008285D01*
X018673Y008280D01*
X018723Y008271D01*
X018771Y008259D01*
X018819Y008242D01*
X018865Y008222D01*
X018910Y008199D01*
X018953Y008172D01*
X018993Y008142D01*
X019031Y008109D01*
X019066Y008073D01*
X019099Y008034D01*
X019128Y007993D01*
X019154Y007950D01*
X019177Y007905D01*
X019196Y007858D01*
X019211Y007810D01*
X019223Y007761D01*
X019231Y007711D01*
X019235Y007661D01*
X019235Y007611D01*
X019231Y007561D01*
X019223Y007511D01*
X019211Y007462D01*
X019196Y007414D01*
X019177Y007367D01*
X019154Y007322D01*
X019128Y007279D01*
X019099Y007238D01*
X019066Y007199D01*
X019031Y007163D01*
X018993Y007130D01*
X018953Y007100D01*
X018910Y007073D01*
X018865Y007050D01*
X018819Y007030D01*
X018771Y007013D01*
X018723Y007001D01*
X018673Y006992D01*
X018623Y006987D01*
X018572Y006986D01*
X018522Y006989D01*
X018472Y006996D01*
X018423Y007007D01*
X018375Y007021D01*
X018328Y007039D01*
X018282Y007061D01*
X018238Y007086D01*
X018197Y007115D01*
X018158Y007146D01*
X018121Y007181D01*
X018087Y007218D01*
X018056Y007258D01*
X018028Y007300D01*
X018004Y007344D01*
X017983Y007390D01*
X017966Y007438D01*
X017953Y007486D01*
X017943Y007536D01*
X017937Y007586D01*
X017935Y007636D01*
X010405Y000736D02*
X010379Y000738D01*
X010353Y000743D01*
X010328Y000751D01*
X010305Y000763D01*
X010283Y000777D01*
X010264Y000795D01*
X010246Y000814D01*
X010232Y000836D01*
X010220Y000859D01*
X010212Y000884D01*
X010207Y000910D01*
X010205Y000936D01*
X008555Y003236D02*
X008555Y003436D01*
X007555Y003436D02*
X007555Y003236D01*
X008075Y007636D02*
X008077Y007686D01*
X008083Y007736D01*
X008093Y007786D01*
X008106Y007834D01*
X008123Y007882D01*
X008144Y007928D01*
X008168Y007972D01*
X008196Y008014D01*
X008227Y008054D01*
X008261Y008091D01*
X008298Y008126D01*
X008337Y008157D01*
X008378Y008186D01*
X008422Y008211D01*
X008468Y008233D01*
X008515Y008251D01*
X008563Y008265D01*
X008612Y008276D01*
X008662Y008283D01*
X008712Y008286D01*
X008763Y008285D01*
X008813Y008280D01*
X008863Y008271D01*
X008911Y008259D01*
X008959Y008242D01*
X009005Y008222D01*
X009050Y008199D01*
X009093Y008172D01*
X009133Y008142D01*
X009171Y008109D01*
X009206Y008073D01*
X009239Y008034D01*
X009268Y007993D01*
X009294Y007950D01*
X009317Y007905D01*
X009336Y007858D01*
X009351Y007810D01*
X009363Y007761D01*
X009371Y007711D01*
X009375Y007661D01*
X009375Y007611D01*
X009371Y007561D01*
X009363Y007511D01*
X009351Y007462D01*
X009336Y007414D01*
X009317Y007367D01*
X009294Y007322D01*
X009268Y007279D01*
X009239Y007238D01*
X009206Y007199D01*
X009171Y007163D01*
X009133Y007130D01*
X009093Y007100D01*
X009050Y007073D01*
X009005Y007050D01*
X008959Y007030D01*
X008911Y007013D01*
X008863Y007001D01*
X008813Y006992D01*
X008763Y006987D01*
X008712Y006986D01*
X008662Y006989D01*
X008612Y006996D01*
X008563Y007007D01*
X008515Y007021D01*
X008468Y007039D01*
X008422Y007061D01*
X008378Y007086D01*
X008337Y007115D01*
X008298Y007146D01*
X008261Y007181D01*
X008227Y007218D01*
X008196Y007258D01*
X008168Y007300D01*
X008144Y007344D01*
X008123Y007390D01*
X008106Y007438D01*
X008093Y007486D01*
X008083Y007536D01*
X008077Y007586D01*
X008075Y007636D01*
X005055Y014186D02*
X004805Y014186D01*
X004805Y014636D01*
X004805Y015086D01*
X005055Y015086D01*
X005055Y014186D01*
X003155Y014636D02*
X003157Y014734D01*
X003165Y014832D01*
X003177Y014929D01*
X003193Y015026D01*
X003215Y015122D01*
X003241Y015217D01*
X003272Y015310D01*
X003307Y015401D01*
X003347Y015491D01*
X003391Y015579D01*
X003440Y015664D01*
X003492Y015747D01*
X003549Y015827D01*
X003609Y015905D01*
X003673Y015979D01*
X003741Y016050D01*
X003812Y016118D01*
X003886Y016182D01*
X003964Y016242D01*
X004044Y016299D01*
X004127Y016351D01*
X004212Y016400D01*
X004300Y016444D01*
X004390Y016484D01*
X004481Y016519D01*
X004574Y016550D01*
X004669Y016576D01*
X004765Y016598D01*
X004862Y016614D01*
X004959Y016626D01*
X005057Y016634D01*
X005155Y016636D01*
X005253Y016634D01*
X005351Y016626D01*
X005448Y016614D01*
X005545Y016598D01*
X005641Y016576D01*
X005736Y016550D01*
X005829Y016519D01*
X005920Y016484D01*
X006010Y016444D01*
X006098Y016400D01*
X006183Y016351D01*
X006266Y016299D01*
X006346Y016242D01*
X006424Y016182D01*
X006498Y016118D01*
X006569Y016050D01*
X006637Y015979D01*
X006701Y015905D01*
X006761Y015827D01*
X006818Y015747D01*
X006870Y015664D01*
X006919Y015579D01*
X006963Y015491D01*
X007003Y015401D01*
X007038Y015310D01*
X007069Y015217D01*
X007095Y015122D01*
X007117Y015026D01*
X007133Y014929D01*
X007145Y014832D01*
X007153Y014734D01*
X007155Y014636D01*
X007153Y014538D01*
X007145Y014440D01*
X007133Y014343D01*
X007117Y014246D01*
X007095Y014150D01*
X007069Y014055D01*
X007038Y013962D01*
X007003Y013871D01*
X006963Y013781D01*
X006919Y013693D01*
X006870Y013608D01*
X006818Y013525D01*
X006761Y013445D01*
X006701Y013367D01*
X006637Y013293D01*
X006569Y013222D01*
X006498Y013154D01*
X006424Y013090D01*
X006346Y013030D01*
X006266Y012973D01*
X006183Y012921D01*
X006098Y012872D01*
X006010Y012828D01*
X005920Y012788D01*
X005829Y012753D01*
X005736Y012722D01*
X005641Y012696D01*
X005545Y012674D01*
X005448Y012658D01*
X005351Y012646D01*
X005253Y012638D01*
X005155Y012636D01*
X005057Y012638D01*
X004959Y012646D01*
X004862Y012658D01*
X004765Y012674D01*
X004669Y012696D01*
X004574Y012722D01*
X004481Y012753D01*
X004390Y012788D01*
X004300Y012828D01*
X004212Y012872D01*
X004127Y012921D01*
X004044Y012973D01*
X003964Y013030D01*
X003886Y013090D01*
X003812Y013154D01*
X003741Y013222D01*
X003673Y013293D01*
X003609Y013367D01*
X003549Y013445D01*
X003492Y013525D01*
X003440Y013608D01*
X003391Y013693D01*
X003347Y013781D01*
X003307Y013871D01*
X003272Y013962D01*
X003241Y014055D01*
X003215Y014150D01*
X003193Y014246D01*
X003177Y014343D01*
X003165Y014440D01*
X003157Y014538D01*
X003155Y014636D01*
X003655Y014986D02*
X003655Y015286D01*
X003805Y015136D02*
X003505Y015136D01*
X004705Y014636D02*
X004805Y014636D01*
X005405Y014636D02*
X005605Y014636D01*
X005055Y054186D02*
X004805Y054186D01*
X004805Y054636D01*
X004805Y055086D01*
X005055Y055086D01*
X005055Y054186D01*
X003155Y054636D02*
X003157Y054734D01*
X003165Y054832D01*
X003177Y054929D01*
X003193Y055026D01*
X003215Y055122D01*
X003241Y055217D01*
X003272Y055310D01*
X003307Y055401D01*
X003347Y055491D01*
X003391Y055579D01*
X003440Y055664D01*
X003492Y055747D01*
X003549Y055827D01*
X003609Y055905D01*
X003673Y055979D01*
X003741Y056050D01*
X003812Y056118D01*
X003886Y056182D01*
X003964Y056242D01*
X004044Y056299D01*
X004127Y056351D01*
X004212Y056400D01*
X004300Y056444D01*
X004390Y056484D01*
X004481Y056519D01*
X004574Y056550D01*
X004669Y056576D01*
X004765Y056598D01*
X004862Y056614D01*
X004959Y056626D01*
X005057Y056634D01*
X005155Y056636D01*
X005253Y056634D01*
X005351Y056626D01*
X005448Y056614D01*
X005545Y056598D01*
X005641Y056576D01*
X005736Y056550D01*
X005829Y056519D01*
X005920Y056484D01*
X006010Y056444D01*
X006098Y056400D01*
X006183Y056351D01*
X006266Y056299D01*
X006346Y056242D01*
X006424Y056182D01*
X006498Y056118D01*
X006569Y056050D01*
X006637Y055979D01*
X006701Y055905D01*
X006761Y055827D01*
X006818Y055747D01*
X006870Y055664D01*
X006919Y055579D01*
X006963Y055491D01*
X007003Y055401D01*
X007038Y055310D01*
X007069Y055217D01*
X007095Y055122D01*
X007117Y055026D01*
X007133Y054929D01*
X007145Y054832D01*
X007153Y054734D01*
X007155Y054636D01*
X007153Y054538D01*
X007145Y054440D01*
X007133Y054343D01*
X007117Y054246D01*
X007095Y054150D01*
X007069Y054055D01*
X007038Y053962D01*
X007003Y053871D01*
X006963Y053781D01*
X006919Y053693D01*
X006870Y053608D01*
X006818Y053525D01*
X006761Y053445D01*
X006701Y053367D01*
X006637Y053293D01*
X006569Y053222D01*
X006498Y053154D01*
X006424Y053090D01*
X006346Y053030D01*
X006266Y052973D01*
X006183Y052921D01*
X006098Y052872D01*
X006010Y052828D01*
X005920Y052788D01*
X005829Y052753D01*
X005736Y052722D01*
X005641Y052696D01*
X005545Y052674D01*
X005448Y052658D01*
X005351Y052646D01*
X005253Y052638D01*
X005155Y052636D01*
X005057Y052638D01*
X004959Y052646D01*
X004862Y052658D01*
X004765Y052674D01*
X004669Y052696D01*
X004574Y052722D01*
X004481Y052753D01*
X004390Y052788D01*
X004300Y052828D01*
X004212Y052872D01*
X004127Y052921D01*
X004044Y052973D01*
X003964Y053030D01*
X003886Y053090D01*
X003812Y053154D01*
X003741Y053222D01*
X003673Y053293D01*
X003609Y053367D01*
X003549Y053445D01*
X003492Y053525D01*
X003440Y053608D01*
X003391Y053693D01*
X003347Y053781D01*
X003307Y053871D01*
X003272Y053962D01*
X003241Y054055D01*
X003215Y054150D01*
X003193Y054246D01*
X003177Y054343D01*
X003165Y054440D01*
X003157Y054538D01*
X003155Y054636D01*
X003655Y054986D02*
X003655Y055286D01*
X003805Y055136D02*
X003505Y055136D01*
X004705Y054636D02*
X004805Y054636D01*
X005405Y054636D02*
X005605Y054636D01*
X059555Y009836D02*
X059555Y005636D01*
X060155Y005086D02*
X060155Y002836D01*
X061055Y002836D01*
X061055Y005286D01*
X060605Y005286D01*
X060705Y005536D02*
X061605Y005536D01*
X061605Y005636D02*
X060755Y005636D01*
X061055Y005286D02*
X061255Y005286D01*
X061705Y005286D01*
X061255Y005286D02*
X061255Y002836D01*
X061055Y002836D01*
X061255Y002836D02*
X062155Y002836D01*
X062155Y005086D01*
X062755Y005636D02*
X062755Y009836D01*
X062705Y009886D01*
X062155Y009886D01*
X062155Y009836D01*
X060155Y009836D01*
X060155Y009886D01*
X059605Y009886D01*
X059555Y009836D01*
X063655Y014986D02*
X063655Y015286D01*
X063805Y015136D02*
X063505Y015136D01*
X064705Y014636D02*
X064805Y014636D01*
X064805Y015086D01*
X065055Y015086D01*
X065055Y014186D01*
X064805Y014186D01*
X064805Y014636D01*
X063155Y014636D02*
X063157Y014734D01*
X063165Y014832D01*
X063177Y014929D01*
X063193Y015026D01*
X063215Y015122D01*
X063241Y015217D01*
X063272Y015310D01*
X063307Y015401D01*
X063347Y015491D01*
X063391Y015579D01*
X063440Y015664D01*
X063492Y015747D01*
X063549Y015827D01*
X063609Y015905D01*
X063673Y015979D01*
X063741Y016050D01*
X063812Y016118D01*
X063886Y016182D01*
X063964Y016242D01*
X064044Y016299D01*
X064127Y016351D01*
X064212Y016400D01*
X064300Y016444D01*
X064390Y016484D01*
X064481Y016519D01*
X064574Y016550D01*
X064669Y016576D01*
X064765Y016598D01*
X064862Y016614D01*
X064959Y016626D01*
X065057Y016634D01*
X065155Y016636D01*
X065253Y016634D01*
X065351Y016626D01*
X065448Y016614D01*
X065545Y016598D01*
X065641Y016576D01*
X065736Y016550D01*
X065829Y016519D01*
X065920Y016484D01*
X066010Y016444D01*
X066098Y016400D01*
X066183Y016351D01*
X066266Y016299D01*
X066346Y016242D01*
X066424Y016182D01*
X066498Y016118D01*
X066569Y016050D01*
X066637Y015979D01*
X066701Y015905D01*
X066761Y015827D01*
X066818Y015747D01*
X066870Y015664D01*
X066919Y015579D01*
X066963Y015491D01*
X067003Y015401D01*
X067038Y015310D01*
X067069Y015217D01*
X067095Y015122D01*
X067117Y015026D01*
X067133Y014929D01*
X067145Y014832D01*
X067153Y014734D01*
X067155Y014636D01*
X067153Y014538D01*
X067145Y014440D01*
X067133Y014343D01*
X067117Y014246D01*
X067095Y014150D01*
X067069Y014055D01*
X067038Y013962D01*
X067003Y013871D01*
X066963Y013781D01*
X066919Y013693D01*
X066870Y013608D01*
X066818Y013525D01*
X066761Y013445D01*
X066701Y013367D01*
X066637Y013293D01*
X066569Y013222D01*
X066498Y013154D01*
X066424Y013090D01*
X066346Y013030D01*
X066266Y012973D01*
X066183Y012921D01*
X066098Y012872D01*
X066010Y012828D01*
X065920Y012788D01*
X065829Y012753D01*
X065736Y012722D01*
X065641Y012696D01*
X065545Y012674D01*
X065448Y012658D01*
X065351Y012646D01*
X065253Y012638D01*
X065155Y012636D01*
X065057Y012638D01*
X064959Y012646D01*
X064862Y012658D01*
X064765Y012674D01*
X064669Y012696D01*
X064574Y012722D01*
X064481Y012753D01*
X064390Y012788D01*
X064300Y012828D01*
X064212Y012872D01*
X064127Y012921D01*
X064044Y012973D01*
X063964Y013030D01*
X063886Y013090D01*
X063812Y013154D01*
X063741Y013222D01*
X063673Y013293D01*
X063609Y013367D01*
X063549Y013445D01*
X063492Y013525D01*
X063440Y013608D01*
X063391Y013693D01*
X063347Y013781D01*
X063307Y013871D01*
X063272Y013962D01*
X063241Y014055D01*
X063215Y014150D01*
X063193Y014246D01*
X063177Y014343D01*
X063165Y014440D01*
X063157Y014538D01*
X063155Y014636D01*
X065405Y014636D02*
X065605Y014636D01*
X062155Y002836D02*
X062005Y002686D01*
X061505Y002686D01*
X060805Y002686D01*
X060655Y000636D01*
X060657Y000592D01*
X060663Y000549D01*
X060672Y000507D01*
X060685Y000465D01*
X060702Y000425D01*
X060722Y000386D01*
X060745Y000349D01*
X060772Y000315D01*
X060801Y000282D01*
X060834Y000253D01*
X060868Y000226D01*
X060905Y000203D01*
X060944Y000183D01*
X060984Y000166D01*
X061026Y000153D01*
X061068Y000144D01*
X061111Y000138D01*
X061155Y000136D01*
X061199Y000138D01*
X061242Y000144D01*
X061284Y000153D01*
X061326Y000166D01*
X061366Y000183D01*
X061405Y000203D01*
X061442Y000226D01*
X061476Y000253D01*
X061509Y000282D01*
X061538Y000315D01*
X061565Y000349D01*
X061588Y000386D01*
X061608Y000425D01*
X061625Y000465D01*
X061638Y000507D01*
X061647Y000549D01*
X061653Y000592D01*
X061655Y000636D01*
X061505Y002686D01*
X060805Y002686D02*
X060305Y002686D01*
X060155Y002836D01*
X064805Y054186D02*
X065055Y054186D01*
X065055Y055086D01*
X064805Y055086D01*
X064805Y054636D01*
X064805Y054186D01*
X064805Y054636D02*
X064705Y054636D01*
X063155Y054636D02*
X063157Y054734D01*
X063165Y054832D01*
X063177Y054929D01*
X063193Y055026D01*
X063215Y055122D01*
X063241Y055217D01*
X063272Y055310D01*
X063307Y055401D01*
X063347Y055491D01*
X063391Y055579D01*
X063440Y055664D01*
X063492Y055747D01*
X063549Y055827D01*
X063609Y055905D01*
X063673Y055979D01*
X063741Y056050D01*
X063812Y056118D01*
X063886Y056182D01*
X063964Y056242D01*
X064044Y056299D01*
X064127Y056351D01*
X064212Y056400D01*
X064300Y056444D01*
X064390Y056484D01*
X064481Y056519D01*
X064574Y056550D01*
X064669Y056576D01*
X064765Y056598D01*
X064862Y056614D01*
X064959Y056626D01*
X065057Y056634D01*
X065155Y056636D01*
X065253Y056634D01*
X065351Y056626D01*
X065448Y056614D01*
X065545Y056598D01*
X065641Y056576D01*
X065736Y056550D01*
X065829Y056519D01*
X065920Y056484D01*
X066010Y056444D01*
X066098Y056400D01*
X066183Y056351D01*
X066266Y056299D01*
X066346Y056242D01*
X066424Y056182D01*
X066498Y056118D01*
X066569Y056050D01*
X066637Y055979D01*
X066701Y055905D01*
X066761Y055827D01*
X066818Y055747D01*
X066870Y055664D01*
X066919Y055579D01*
X066963Y055491D01*
X067003Y055401D01*
X067038Y055310D01*
X067069Y055217D01*
X067095Y055122D01*
X067117Y055026D01*
X067133Y054929D01*
X067145Y054832D01*
X067153Y054734D01*
X067155Y054636D01*
X067153Y054538D01*
X067145Y054440D01*
X067133Y054343D01*
X067117Y054246D01*
X067095Y054150D01*
X067069Y054055D01*
X067038Y053962D01*
X067003Y053871D01*
X066963Y053781D01*
X066919Y053693D01*
X066870Y053608D01*
X066818Y053525D01*
X066761Y053445D01*
X066701Y053367D01*
X066637Y053293D01*
X066569Y053222D01*
X066498Y053154D01*
X066424Y053090D01*
X066346Y053030D01*
X066266Y052973D01*
X066183Y052921D01*
X066098Y052872D01*
X066010Y052828D01*
X065920Y052788D01*
X065829Y052753D01*
X065736Y052722D01*
X065641Y052696D01*
X065545Y052674D01*
X065448Y052658D01*
X065351Y052646D01*
X065253Y052638D01*
X065155Y052636D01*
X065057Y052638D01*
X064959Y052646D01*
X064862Y052658D01*
X064765Y052674D01*
X064669Y052696D01*
X064574Y052722D01*
X064481Y052753D01*
X064390Y052788D01*
X064300Y052828D01*
X064212Y052872D01*
X064127Y052921D01*
X064044Y052973D01*
X063964Y053030D01*
X063886Y053090D01*
X063812Y053154D01*
X063741Y053222D01*
X063673Y053293D01*
X063609Y053367D01*
X063549Y053445D01*
X063492Y053525D01*
X063440Y053608D01*
X063391Y053693D01*
X063347Y053781D01*
X063307Y053871D01*
X063272Y053962D01*
X063241Y054055D01*
X063215Y054150D01*
X063193Y054246D01*
X063177Y054343D01*
X063165Y054440D01*
X063157Y054538D01*
X063155Y054636D01*
X063655Y054986D02*
X063655Y055286D01*
X063805Y055136D02*
X063505Y055136D01*
X065405Y054636D02*
X065605Y054636D01*
D16*
X017505Y003911D03*
X009805Y003911D03*
D17*
X008725Y004961D03*
X018585Y004961D03*
D18*
X016755Y006911D02*
X016830Y006986D01*
X016830Y007287D01*
X016755Y007362D01*
X016605Y007362D01*
X016530Y007287D01*
X016530Y007211D01*
X016605Y007136D01*
X016830Y007136D01*
X016755Y006911D02*
X016605Y006911D01*
X016530Y006986D01*
X016605Y007911D02*
X016530Y007986D01*
X016605Y007911D02*
X016755Y007911D01*
X016830Y007986D01*
X016830Y008136D01*
X016755Y008211D01*
X016680Y008211D01*
X016530Y008136D01*
X016530Y008362D01*
X016830Y008362D01*
X011901Y004187D02*
X011826Y004262D01*
X011675Y004262D01*
X011600Y004187D01*
X011600Y004111D01*
X011675Y004036D01*
X011901Y004036D01*
X011901Y003886D02*
X011901Y004187D01*
X011901Y003886D02*
X011826Y003811D01*
X011675Y003811D01*
X011600Y003886D01*
X011440Y003886D02*
X011365Y003811D01*
X011215Y003811D01*
X011140Y003886D01*
X011440Y004187D01*
X011440Y003886D01*
X011140Y003886D02*
X011140Y004187D01*
X011215Y004262D01*
X011365Y004262D01*
X011440Y004187D01*
X010980Y004262D02*
X010980Y003811D01*
X010680Y003811D02*
X010680Y004262D01*
X010830Y004111D01*
X010980Y004262D01*
X010905Y006861D02*
X010980Y006936D01*
X010980Y007011D01*
X010905Y007086D01*
X010680Y007086D01*
X010680Y006936D01*
X010755Y006861D01*
X010905Y006861D01*
X010680Y007086D02*
X010830Y007237D01*
X010980Y007312D01*
X010980Y007911D02*
X010680Y007911D01*
X010830Y007911D02*
X010830Y008362D01*
X010680Y008211D01*
X008280Y006414D02*
X007829Y006414D01*
X008054Y006189D01*
X008054Y006489D01*
X008054Y006029D02*
X008205Y006029D01*
X008280Y005954D01*
X008280Y005804D01*
X008205Y005728D01*
X008054Y005728D02*
X007979Y005879D01*
X007979Y005954D01*
X008054Y006029D01*
X007829Y006029D02*
X007829Y005728D01*
X008054Y005728D01*
X008205Y005572D02*
X008205Y005497D01*
X008280Y005497D01*
X008280Y005572D01*
X008205Y005572D01*
X008280Y005572D02*
X008430Y005422D01*
X008280Y005261D02*
X008280Y004961D01*
X007979Y005261D01*
X007904Y005261D01*
X007829Y005186D01*
X007829Y005036D01*
X007904Y004961D01*
X050611Y002912D02*
X057698Y002912D01*
X057698Y008424D01*
X056911Y008424D01*
X056911Y009408D01*
X051399Y009408D01*
X051399Y008424D01*
X050611Y008424D01*
X050611Y002912D01*
D19*
X013655Y004786D03*
D20*
X013655Y003136D03*
D21*
X013655Y006361D03*
X014735Y006361D03*
X015815Y006361D03*
X012575Y006361D03*
X011495Y006361D03*
D22*
X012035Y005861D03*
X013115Y005861D03*
X014195Y005861D03*
X015275Y005861D03*
D23*
X061155Y010986D03*
D24*
X061155Y012636D03*
X061155Y014636D03*
D25*
X062630Y007361D03*
X059680Y007361D03*
D26*
X061155Y006386D03*
D27*
X065380Y014636D03*
X065380Y054636D03*
X005380Y054636D03*
X005380Y014636D03*
M02*
