G75*
G70*
%OFA0B0*%
%FSLAX24Y24*%
%IPPOS*%
%LPD*%
%AMOC8*
5,1,8,0,0,1.08239X$1,22.5*
%
%ADD10C,0.0070*%
%ADD11C,0.0000*%
%ADD12C,0.0100*%
D10*
X000155Y001636D02*
X000155Y071636D01*
X070155Y071636D01*
X070155Y001636D01*
X000155Y001636D01*
D11*
X004155Y006636D02*
X004157Y006699D01*
X004163Y006761D01*
X004173Y006823D01*
X004186Y006885D01*
X004204Y006945D01*
X004225Y007004D01*
X004250Y007062D01*
X004279Y007118D01*
X004311Y007172D01*
X004346Y007224D01*
X004384Y007273D01*
X004426Y007321D01*
X004470Y007365D01*
X004518Y007407D01*
X004567Y007445D01*
X004619Y007480D01*
X004673Y007512D01*
X004729Y007541D01*
X004787Y007566D01*
X004846Y007587D01*
X004906Y007605D01*
X004968Y007618D01*
X005030Y007628D01*
X005092Y007634D01*
X005155Y007636D01*
X005218Y007634D01*
X005280Y007628D01*
X005342Y007618D01*
X005404Y007605D01*
X005464Y007587D01*
X005523Y007566D01*
X005581Y007541D01*
X005637Y007512D01*
X005691Y007480D01*
X005743Y007445D01*
X005792Y007407D01*
X005840Y007365D01*
X005884Y007321D01*
X005926Y007273D01*
X005964Y007224D01*
X005999Y007172D01*
X006031Y007118D01*
X006060Y007062D01*
X006085Y007004D01*
X006106Y006945D01*
X006124Y006885D01*
X006137Y006823D01*
X006147Y006761D01*
X006153Y006699D01*
X006155Y006636D01*
X006153Y006573D01*
X006147Y006511D01*
X006137Y006449D01*
X006124Y006387D01*
X006106Y006327D01*
X006085Y006268D01*
X006060Y006210D01*
X006031Y006154D01*
X005999Y006100D01*
X005964Y006048D01*
X005926Y005999D01*
X005884Y005951D01*
X005840Y005907D01*
X005792Y005865D01*
X005743Y005827D01*
X005691Y005792D01*
X005637Y005760D01*
X005581Y005731D01*
X005523Y005706D01*
X005464Y005685D01*
X005404Y005667D01*
X005342Y005654D01*
X005280Y005644D01*
X005218Y005638D01*
X005155Y005636D01*
X005092Y005638D01*
X005030Y005644D01*
X004968Y005654D01*
X004906Y005667D01*
X004846Y005685D01*
X004787Y005706D01*
X004729Y005731D01*
X004673Y005760D01*
X004619Y005792D01*
X004567Y005827D01*
X004518Y005865D01*
X004470Y005907D01*
X004426Y005951D01*
X004384Y005999D01*
X004346Y006048D01*
X004311Y006100D01*
X004279Y006154D01*
X004250Y006210D01*
X004225Y006268D01*
X004204Y006327D01*
X004186Y006387D01*
X004173Y006449D01*
X004163Y006511D01*
X004157Y006573D01*
X004155Y006636D01*
X004155Y066636D02*
X004157Y066699D01*
X004163Y066761D01*
X004173Y066823D01*
X004186Y066885D01*
X004204Y066945D01*
X004225Y067004D01*
X004250Y067062D01*
X004279Y067118D01*
X004311Y067172D01*
X004346Y067224D01*
X004384Y067273D01*
X004426Y067321D01*
X004470Y067365D01*
X004518Y067407D01*
X004567Y067445D01*
X004619Y067480D01*
X004673Y067512D01*
X004729Y067541D01*
X004787Y067566D01*
X004846Y067587D01*
X004906Y067605D01*
X004968Y067618D01*
X005030Y067628D01*
X005092Y067634D01*
X005155Y067636D01*
X005218Y067634D01*
X005280Y067628D01*
X005342Y067618D01*
X005404Y067605D01*
X005464Y067587D01*
X005523Y067566D01*
X005581Y067541D01*
X005637Y067512D01*
X005691Y067480D01*
X005743Y067445D01*
X005792Y067407D01*
X005840Y067365D01*
X005884Y067321D01*
X005926Y067273D01*
X005964Y067224D01*
X005999Y067172D01*
X006031Y067118D01*
X006060Y067062D01*
X006085Y067004D01*
X006106Y066945D01*
X006124Y066885D01*
X006137Y066823D01*
X006147Y066761D01*
X006153Y066699D01*
X006155Y066636D01*
X006153Y066573D01*
X006147Y066511D01*
X006137Y066449D01*
X006124Y066387D01*
X006106Y066327D01*
X006085Y066268D01*
X006060Y066210D01*
X006031Y066154D01*
X005999Y066100D01*
X005964Y066048D01*
X005926Y065999D01*
X005884Y065951D01*
X005840Y065907D01*
X005792Y065865D01*
X005743Y065827D01*
X005691Y065792D01*
X005637Y065760D01*
X005581Y065731D01*
X005523Y065706D01*
X005464Y065685D01*
X005404Y065667D01*
X005342Y065654D01*
X005280Y065644D01*
X005218Y065638D01*
X005155Y065636D01*
X005092Y065638D01*
X005030Y065644D01*
X004968Y065654D01*
X004906Y065667D01*
X004846Y065685D01*
X004787Y065706D01*
X004729Y065731D01*
X004673Y065760D01*
X004619Y065792D01*
X004567Y065827D01*
X004518Y065865D01*
X004470Y065907D01*
X004426Y065951D01*
X004384Y065999D01*
X004346Y066048D01*
X004311Y066100D01*
X004279Y066154D01*
X004250Y066210D01*
X004225Y066268D01*
X004204Y066327D01*
X004186Y066387D01*
X004173Y066449D01*
X004163Y066511D01*
X004157Y066573D01*
X004155Y066636D01*
X064155Y066636D02*
X064157Y066699D01*
X064163Y066761D01*
X064173Y066823D01*
X064186Y066885D01*
X064204Y066945D01*
X064225Y067004D01*
X064250Y067062D01*
X064279Y067118D01*
X064311Y067172D01*
X064346Y067224D01*
X064384Y067273D01*
X064426Y067321D01*
X064470Y067365D01*
X064518Y067407D01*
X064567Y067445D01*
X064619Y067480D01*
X064673Y067512D01*
X064729Y067541D01*
X064787Y067566D01*
X064846Y067587D01*
X064906Y067605D01*
X064968Y067618D01*
X065030Y067628D01*
X065092Y067634D01*
X065155Y067636D01*
X065218Y067634D01*
X065280Y067628D01*
X065342Y067618D01*
X065404Y067605D01*
X065464Y067587D01*
X065523Y067566D01*
X065581Y067541D01*
X065637Y067512D01*
X065691Y067480D01*
X065743Y067445D01*
X065792Y067407D01*
X065840Y067365D01*
X065884Y067321D01*
X065926Y067273D01*
X065964Y067224D01*
X065999Y067172D01*
X066031Y067118D01*
X066060Y067062D01*
X066085Y067004D01*
X066106Y066945D01*
X066124Y066885D01*
X066137Y066823D01*
X066147Y066761D01*
X066153Y066699D01*
X066155Y066636D01*
X066153Y066573D01*
X066147Y066511D01*
X066137Y066449D01*
X066124Y066387D01*
X066106Y066327D01*
X066085Y066268D01*
X066060Y066210D01*
X066031Y066154D01*
X065999Y066100D01*
X065964Y066048D01*
X065926Y065999D01*
X065884Y065951D01*
X065840Y065907D01*
X065792Y065865D01*
X065743Y065827D01*
X065691Y065792D01*
X065637Y065760D01*
X065581Y065731D01*
X065523Y065706D01*
X065464Y065685D01*
X065404Y065667D01*
X065342Y065654D01*
X065280Y065644D01*
X065218Y065638D01*
X065155Y065636D01*
X065092Y065638D01*
X065030Y065644D01*
X064968Y065654D01*
X064906Y065667D01*
X064846Y065685D01*
X064787Y065706D01*
X064729Y065731D01*
X064673Y065760D01*
X064619Y065792D01*
X064567Y065827D01*
X064518Y065865D01*
X064470Y065907D01*
X064426Y065951D01*
X064384Y065999D01*
X064346Y066048D01*
X064311Y066100D01*
X064279Y066154D01*
X064250Y066210D01*
X064225Y066268D01*
X064204Y066327D01*
X064186Y066387D01*
X064173Y066449D01*
X064163Y066511D01*
X064157Y066573D01*
X064155Y066636D01*
X064155Y006636D02*
X064157Y006699D01*
X064163Y006761D01*
X064173Y006823D01*
X064186Y006885D01*
X064204Y006945D01*
X064225Y007004D01*
X064250Y007062D01*
X064279Y007118D01*
X064311Y007172D01*
X064346Y007224D01*
X064384Y007273D01*
X064426Y007321D01*
X064470Y007365D01*
X064518Y007407D01*
X064567Y007445D01*
X064619Y007480D01*
X064673Y007512D01*
X064729Y007541D01*
X064787Y007566D01*
X064846Y007587D01*
X064906Y007605D01*
X064968Y007618D01*
X065030Y007628D01*
X065092Y007634D01*
X065155Y007636D01*
X065218Y007634D01*
X065280Y007628D01*
X065342Y007618D01*
X065404Y007605D01*
X065464Y007587D01*
X065523Y007566D01*
X065581Y007541D01*
X065637Y007512D01*
X065691Y007480D01*
X065743Y007445D01*
X065792Y007407D01*
X065840Y007365D01*
X065884Y007321D01*
X065926Y007273D01*
X065964Y007224D01*
X065999Y007172D01*
X066031Y007118D01*
X066060Y007062D01*
X066085Y007004D01*
X066106Y006945D01*
X066124Y006885D01*
X066137Y006823D01*
X066147Y006761D01*
X066153Y006699D01*
X066155Y006636D01*
X066153Y006573D01*
X066147Y006511D01*
X066137Y006449D01*
X066124Y006387D01*
X066106Y006327D01*
X066085Y006268D01*
X066060Y006210D01*
X066031Y006154D01*
X065999Y006100D01*
X065964Y006048D01*
X065926Y005999D01*
X065884Y005951D01*
X065840Y005907D01*
X065792Y005865D01*
X065743Y005827D01*
X065691Y005792D01*
X065637Y005760D01*
X065581Y005731D01*
X065523Y005706D01*
X065464Y005685D01*
X065404Y005667D01*
X065342Y005654D01*
X065280Y005644D01*
X065218Y005638D01*
X065155Y005636D01*
X065092Y005638D01*
X065030Y005644D01*
X064968Y005654D01*
X064906Y005667D01*
X064846Y005685D01*
X064787Y005706D01*
X064729Y005731D01*
X064673Y005760D01*
X064619Y005792D01*
X064567Y005827D01*
X064518Y005865D01*
X064470Y005907D01*
X064426Y005951D01*
X064384Y005999D01*
X064346Y006048D01*
X064311Y006100D01*
X064279Y006154D01*
X064250Y006210D01*
X064225Y006268D01*
X064204Y006327D01*
X064186Y006387D01*
X064173Y006449D01*
X064163Y006511D01*
X064157Y006573D01*
X064155Y006636D01*
D12*
X011155Y036636D02*
X011184Y037814D01*
X011271Y038988D01*
X011415Y040158D01*
X011616Y041318D01*
X011874Y042468D01*
X012188Y043603D01*
X012558Y044721D01*
X012982Y045820D01*
X013459Y046897D01*
X013989Y047950D01*
X014570Y048974D01*
X015200Y049970D01*
X015878Y050933D01*
X016603Y051861D01*
X017372Y052753D01*
X018184Y053607D01*
X019038Y054419D01*
X019930Y055188D01*
X020858Y055913D01*
X021821Y056591D01*
X022817Y057221D01*
X023841Y057802D01*
X024894Y058332D01*
X025971Y058809D01*
X027070Y059233D01*
X028188Y059603D01*
X029323Y059917D01*
X030473Y060175D01*
X031633Y060376D01*
X032803Y060520D01*
X033977Y060607D01*
X035155Y060636D01*
X036333Y060607D01*
X037507Y060520D01*
X038677Y060376D01*
X039837Y060175D01*
X040987Y059917D01*
X042122Y059603D01*
X043240Y059233D01*
X044339Y058809D01*
X045416Y058332D01*
X046469Y057802D01*
X047493Y057221D01*
X048489Y056591D01*
X049452Y055913D01*
X050380Y055188D01*
X051272Y054419D01*
X052126Y053607D01*
X052938Y052753D01*
X053707Y051861D01*
X054432Y050933D01*
X055110Y049970D01*
X055740Y048974D01*
X056321Y047950D01*
X056851Y046897D01*
X057328Y045820D01*
X057752Y044721D01*
X058122Y043603D01*
X058436Y042468D01*
X058694Y041318D01*
X058895Y040158D01*
X059039Y038988D01*
X059126Y037814D01*
X059155Y036636D01*
X059126Y035458D01*
X059039Y034284D01*
X058895Y033114D01*
X058694Y031954D01*
X058436Y030804D01*
X058122Y029669D01*
X057752Y028551D01*
X057328Y027452D01*
X056851Y026375D01*
X056321Y025322D01*
X055740Y024298D01*
X055110Y023302D01*
X054432Y022339D01*
X053707Y021411D01*
X052938Y020519D01*
X052126Y019665D01*
X051272Y018853D01*
X050380Y018084D01*
X049452Y017359D01*
X048489Y016681D01*
X047493Y016051D01*
X046469Y015470D01*
X045416Y014940D01*
X044339Y014463D01*
X043240Y014039D01*
X042122Y013669D01*
X040987Y013355D01*
X039837Y013097D01*
X038677Y012896D01*
X037507Y012752D01*
X036333Y012665D01*
X035155Y012636D01*
X033977Y012665D01*
X032803Y012752D01*
X031633Y012896D01*
X030473Y013097D01*
X029323Y013355D01*
X028188Y013669D01*
X027070Y014039D01*
X025971Y014463D01*
X024894Y014940D01*
X023841Y015470D01*
X022817Y016051D01*
X021821Y016681D01*
X020858Y017359D01*
X019930Y018084D01*
X019038Y018853D01*
X018184Y019665D01*
X017372Y020519D01*
X016603Y021411D01*
X015878Y022339D01*
X015200Y023302D01*
X014570Y024298D01*
X013989Y025322D01*
X013459Y026375D01*
X012982Y027452D01*
X012558Y028551D01*
X012188Y029669D01*
X011874Y030804D01*
X011616Y031954D01*
X011415Y033114D01*
X011271Y034284D01*
X011184Y035458D01*
X011155Y036636D01*
X011184Y037814D01*
X011271Y038988D01*
X011415Y040158D01*
X011616Y041318D01*
X011874Y042468D01*
X012188Y043603D01*
X012558Y044721D01*
X012982Y045820D01*
X013459Y046897D01*
X013989Y047950D01*
X014570Y048974D01*
X015200Y049970D01*
X015878Y050933D01*
X016603Y051861D01*
X017372Y052753D01*
X018184Y053607D01*
X019038Y054419D01*
X019930Y055188D01*
X020858Y055913D01*
X021821Y056591D01*
X022817Y057221D01*
X023841Y057802D01*
X024894Y058332D01*
X025971Y058809D01*
X027070Y059233D01*
X028188Y059603D01*
X029323Y059917D01*
X030473Y060175D01*
X031633Y060376D01*
X032803Y060520D01*
X033977Y060607D01*
X035155Y060636D01*
X036333Y060607D01*
X037507Y060520D01*
X038677Y060376D01*
X039837Y060175D01*
X040987Y059917D01*
X042122Y059603D01*
X043240Y059233D01*
X044339Y058809D01*
X045416Y058332D01*
X046469Y057802D01*
X047493Y057221D01*
X048489Y056591D01*
X049452Y055913D01*
X050380Y055188D01*
X051272Y054419D01*
X052126Y053607D01*
X052938Y052753D01*
X053707Y051861D01*
X054432Y050933D01*
X055110Y049970D01*
X055740Y048974D01*
X056321Y047950D01*
X056851Y046897D01*
X057328Y045820D01*
X057752Y044721D01*
X058122Y043603D01*
X058436Y042468D01*
X058694Y041318D01*
X058895Y040158D01*
X059039Y038988D01*
X059126Y037814D01*
X059155Y036636D01*
X059126Y035458D01*
X059039Y034284D01*
X058895Y033114D01*
X058694Y031954D01*
X058436Y030804D01*
X058122Y029669D01*
X057752Y028551D01*
X057328Y027452D01*
X056851Y026375D01*
X056321Y025322D01*
X055740Y024298D01*
X055110Y023302D01*
X054432Y022339D01*
X053707Y021411D01*
X052938Y020519D01*
X052126Y019665D01*
X051272Y018853D01*
X050380Y018084D01*
X049452Y017359D01*
X048489Y016681D01*
X047493Y016051D01*
X046469Y015470D01*
X045416Y014940D01*
X044339Y014463D01*
X043240Y014039D01*
X042122Y013669D01*
X040987Y013355D01*
X039837Y013097D01*
X038677Y012896D01*
X037507Y012752D01*
X036333Y012665D01*
X035155Y012636D01*
X033977Y012665D01*
X032803Y012752D01*
X031633Y012896D01*
X030473Y013097D01*
X029323Y013355D01*
X028188Y013669D01*
X027070Y014039D01*
X025971Y014463D01*
X024894Y014940D01*
X023841Y015470D01*
X022817Y016051D01*
X021821Y016681D01*
X020858Y017359D01*
X019930Y018084D01*
X019038Y018853D01*
X018184Y019665D01*
X017372Y020519D01*
X016603Y021411D01*
X015878Y022339D01*
X015200Y023302D01*
X014570Y024298D01*
X013989Y025322D01*
X013459Y026375D01*
X012982Y027452D01*
X012558Y028551D01*
X012188Y029669D01*
X011874Y030804D01*
X011616Y031954D01*
X011415Y033114D01*
X011271Y034284D01*
X011184Y035458D01*
X011155Y036636D01*
M02*
